<?xml version="1.0" encoding="utf-8"?>
<!-- Generator: Adobe Illustrator 27.5.0, SVG Export Plug-In . SVG Version: 6.00 Build 0)  -->
<svg version="1.1" xmlns="http://www.w3.org/2000/svg" xmlns:xlink="http://www.w3.org/1999/xlink" x="0px" y="0px"
	 viewBox="0 0 500 500" style="enable-background:new 0 0 500 500;" xml:space="preserve">
<g id="BACKGROUND">
	<rect style="fill:#FFFFFF;" width="500" height="500"/>
</g>
<g id="OBJECTS">
	<g>
		<g>
			<path style="fill:none;stroke:#000000;stroke-linecap:round;stroke-linejoin:round;stroke-miterlimit:10;" d="M277.903,205.437
				c-11.067,0.379-22.461,0.333-32.77-3.71c-10.309-4.043-19.409-12.948-20.587-23.958c-0.645-6.023,1.076-12.02,2.778-17.833
				c2.258-7.711,4.517-15.422,6.775-23.133c2.366-8.079,15.056-10.093,23.449-9.432c1.502,5.84,7.985,10.219,13.535,12.578
				s11.6,3.224,17.407,4.851c5.806,1.627,11.667,4.238,15.257,9.083c2.436,3.288,3.638,7.469,3.319,11.549
				c0.828,0.381,2.147,0.949,2.975,1.33c0.454-0.904,1.557-2.012,2.011-2.916c7.384-0.841,15.576,4.197,17.966,11.235
				c2.389,7.037-0.724,15.537-7.094,19.366c-4.341,2.609-9.646,3.076-14.703,2.798c0.076,1.508-0.079,3.105-0.003,4.613"/>
			<g>
				<path style="fill:none;stroke:#000000;stroke-linecap:round;stroke-linejoin:round;stroke-miterlimit:10;" d="M271.856,169.464
					l-9.989-0.537c-0.319,2.711,1.982,5.444,4.708,5.59S271.882,172.194,271.856,169.464z"/>
				<path style="fill:none;stroke:#000000;stroke-linecap:round;stroke-linejoin:round;stroke-miterlimit:10;" d="M281.823,167.968
					c1.156-2.011,3.598-3.199,5.894-2.867c2.296,0.332,4.301,2.164,4.839,4.42"/>
				<path style="fill:none;stroke:#000000;stroke-linecap:round;stroke-linejoin:round;stroke-miterlimit:10;" d="M236.415,157.18
					c1.768-1.406,4.345-1.708,6.39-0.75c2.045,0.958,3.462,3.131,3.514,5.389"/>
				<path style="fill:none;stroke:#000000;stroke-linecap:round;stroke-linejoin:round;stroke-miterlimit:10;" d="M229.076,157.556
					c2.437,0.559,4.945,1.148,6.979,2.602c2.034,1.454,3.495,4.007,2.911,6.438c-0.593,2.468-3.121,4.084-5.638,4.416
					c-2.517,0.331-5.045-0.354-7.491-1.032"/>
				<path style="fill:none;stroke:#000000;stroke-linecap:round;stroke-linejoin:round;stroke-miterlimit:10;" d="M286.472,173.592
					c-2.975,0.872-5.667,3.542-5.488,6.636c0.129,2.215,1.701,4.157,3.637,5.241c1.936,1.084,4.194,1.433,6.408,1.583
					c2.104,0.142,4.259,0.115,6.262-0.542c2.004-0.657,3.854-2.021,4.696-3.954C305.767,173.876,291.674,172.068,286.472,173.592z"
					/>
				<path style="fill:none;stroke:#000000;stroke-linecap:round;stroke-linejoin:round;stroke-miterlimit:10;" d="M283.323,150.943
					c3.408-2.248,8.453-1.514,11.079,1.612"/>
				<path style="fill:none;stroke:#000000;stroke-linecap:round;stroke-linejoin:round;stroke-miterlimit:10;" d="M241.79,139.023
					c1.113-1.677,3.045-2.783,5.055-2.892c2.01-0.11,4.051,0.779,5.34,2.326"/>
			</g>
			<path style="fill:none;stroke:#000000;stroke-linecap:round;stroke-linejoin:round;stroke-miterlimit:10;" d="M312.167,178.006
				c2.423-1.967,5.616-2.958,8.727-2.708"/>
			<path style="fill:none;stroke:#000000;stroke-linecap:round;stroke-linejoin:round;stroke-miterlimit:10;" d="M274.208,206.396
				c0.132,0.757,0.265,1.515,0.397,2.272"/>
		</g>
		<path style="fill:none;stroke:#000000;stroke-linecap:round;stroke-linejoin:round;stroke-miterlimit:10;" d="M328.12,191.525
			c12.96,0.994,26.202-2.075,37.402-8.67c11.2-6.595,20.38-16.644,25.797-28.459c-1.208-4.094-2.424-8.787-3.632-12.881
			c-5.085,5.64-12.531,9.08-20.122,9.297c7.962-2.253,15.273-8.322,18.419-15.976c-3.007-8.6-6.175-17.552-9.182-26.152
			c-7.36,7.629-19.251,10.508-29.285,7.088c5.641,0.324,11.373-1.216,16.091-4.325c4.718-3.108,7.689-7.134,9.617-12.445
			c-1.233-2.323-2.524-4.867-3.757-7.191c-6.325,6.536-15.844,9.209-24.937,9.018c-9.093-0.191-17.922-2.936-26.53-5.872
			c-8.608-2.936-17.231-6.109-26.259-7.21c-17.523-2.137-35.884,4.149-48.421,16.577c-4.174,4.138-7.762,8.982-9.777,14.504
			c-2.015,5.522-2.361,11.772-0.242,17.255"/>
		<g>
			<g>
				<path style="fill:none;stroke:#000000;stroke-linecap:round;stroke-linejoin:round;stroke-miterlimit:10;" d="M291.079,210.757
					c6.279-0.053,16.919-0.387,22.089-4.82c-0.305-1.281-0.55-2.908-0.856-4.19c-12.897,2.551-25.795,5.101-38.692,7.652
					c0.169,1.884,0.268,4.15,0.437,6.033"/>
				<g>
					<path style="fill:none;stroke:#000000;stroke-linecap:round;stroke-linejoin:round;stroke-miterlimit:10;" d="M313.272,204.361
						c4.394-4.79,11.802-5.31,18.202-4.174c6.401,1.136,12.636,3.583,19.136,3.504c7.049-0.085,14.001-3.332,18.59-8.683
						c2.414,2.488,4.772,4.969,7.186,7.457c-3.346,7.695-11.651,13.06-20.002,13.881c-7.879,0.774-15.537-2.394-22.947-5.184
						c-7.409-2.79-15.496-5.284-23.125-3.167"/>
					<path style="fill:none;stroke:#000000;stroke-linecap:round;stroke-linejoin:round;stroke-miterlimit:10;" d="M313.712,206.235
						c3.271-2.716,7.947-3.635,12.001-2.357"/>
				</g>
			</g>
			<g>
				<path style="fill:none;stroke:#000000;stroke-linecap:round;stroke-linejoin:round;stroke-miterlimit:10;" d="M294.753,211.694
					c-5.671-2.521-11.763,0.256-17.354,2.951c-7.324,3.53-14.648,7.06-21.972,10.59L283.6,260.26
					c6.107-6.963,11.49-14.561,16.034-22.632c1.92-3.41,3.724-7.021,4.039-10.921C304.171,220.52,300.424,214.215,294.753,211.694z"
					/>
				<path style="fill:none;stroke:#000000;stroke-linecap:round;stroke-linejoin:round;stroke-miterlimit:10;" d="M263.487,221.67
					c8.403,10.698,16.807,21.396,25.21,32.095"/>
			</g>
			<g>
				<path style="fill:none;stroke:#000000;stroke-linecap:round;stroke-linejoin:round;stroke-miterlimit:10;" d="M200.356,235.157
					c-1.832-1.245-2.922-3.36-3.288-5.607c-0.279-1.715,1.442-3.079,3.077-2.493l14.328,5.133c2.832,1.015,6.042,1.991,8.22,4.066
					c11.911-1.154,23.462-3.581,34.746-7.563"/>
				<path style="fill:none;stroke:#000000;stroke-linecap:round;stroke-linejoin:round;stroke-miterlimit:10;" d="M202.48,234.891
					c-5.227,0.98-10.47,1.965-15.531,3.6c-1.393,0.45-2.832,1.003-4.065,1.788c-1.392,0.886-0.919,3.036,0.713,3.272
					c3.201,0.462,6.531,0.917,9.588,1.388c-3.911,0.104-7.81,0.54-11.62,1.43c-1.051,0.245-2.114,0.529-3.026,1.106
					c-0.009,0.006-0.018,0.012-0.027,0.017c-1.221,0.785-0.743,2.68,0.695,2.886c4.722,0.678,9.507,1.55,14.204,2.146
					c-2.233,0.376-4.595,0.88-6.827,1.257c-1.273,0.214-2.561,0.433-3.744,0.948c-0.21,0.091-0.417,0.193-0.618,0.305
					c-1.239,0.691-0.962,2.554,0.419,2.876c4.821,1.124,9.617,1.856,14.615,1.887"/>
				<path style="fill:none;stroke:#000000;stroke-linecap:round;stroke-linejoin:round;stroke-miterlimit:10;" d="M192.736,259.975
					c-1.009,0.072-1.984,0.462-2.789,1.075c-0.888,0.677-0.491,2.095,0.617,2.227c4.774,0.572,9.65,1.223,14.387,1.765
					c10.164,1.164,20.565-0.728,30.71-2.047c14.371-1.87,29.39-2.331,42.095-9.301"/>
			</g>
			<g>
				<path style="fill:none;stroke:#000000;stroke-linecap:round;stroke-linejoin:round;stroke-miterlimit:10;" d="M293.736,248.255
					c6.333,0.915,12.751,2.203,19.083,3.118c2.773-14.543,2.54-29.652-0.678-44.103"/>
				<path style="fill:none;stroke:#000000;stroke-linecap:round;stroke-linejoin:round;stroke-miterlimit:10;" d="M313.286,251.581
					c8.655,16.898,17.31,33.796,25.966,50.694c-18.992,9.75-43.02,10.074-63.643,4.555c-20.622-5.52-39.187-17.4-54.584-32.188
					c5.871-3.937,11.887-7.515,17.758-11.452"/>
			</g>
			<g>
				<path style="fill:none;stroke:#000000;stroke-linecap:round;stroke-linejoin:round;stroke-miterlimit:10;" d="M248.036,324.469
					c4.329-7.363,7.27-15.54,8.622-23.973"/>
				<path style="fill:none;stroke:#000000;stroke-linecap:round;stroke-linejoin:round;stroke-miterlimit:10;" d="M212.833,311.527
					c2.288-6.502,4.577-13.005,6.865-19.507c1.57-4.462,3.227-9.074,6.811-12.162"/>
				<path style="fill:none;stroke:#000000;stroke-linecap:round;stroke-linejoin:round;stroke-miterlimit:10;" d="M214.848,331.693
					c-1.511-4.914-5.829-8.846-10.867-9.87c-2.077,1.684-4.153,3.368-6.23,5.053c-2.159,1.751-4.121,4.771-4.127,7.551
					l42.382,15.471c2.316-4.573,4.894-9.196,7.21-13.768C233.773,334.072,224.464,332.665,214.848,331.693z"/>
				<path style="fill:none;stroke:#000000;stroke-linecap:round;stroke-linejoin:round;stroke-miterlimit:10;" d="M204.674,321.436
					c1.934-0.996,3.569-2.561,4.648-4.45"/>
				<path style="fill:none;stroke:#000000;stroke-linecap:round;stroke-linejoin:round;stroke-miterlimit:10;" d="M244.834,331.238
					c-0.825,1.586-1.649,3.172-2.474,4.758"/>
				<g>
					<path style="fill:none;stroke:#000000;stroke-linecap:round;stroke-linejoin:round;stroke-miterlimit:10;" d="M246.85,331.184
						c-12.538-5.021-25.077-10.041-37.615-15.062c0.623-1.417,1.656-3.297,2.279-4.714c12.724,4.754,25.448,9.507,38.171,14.261
						C249.16,327.329,247.376,329.524,246.85,331.184z"/>
					<path style="fill:none;stroke:#000000;stroke-linecap:round;stroke-linejoin:round;stroke-miterlimit:10;" d="M248.286,324.101
						c5.404-1.139,10.808-2.278,16.211-3.417c0.668,2.306,1.335,4.612,2.003,6.918c-5.806,0.09-11.747,0.412-17.553,0.502
						c6.11,1.501,11.32,3.422,17.43,4.922c-1.054,2.112-2.369,4.482-3.422,6.594c-4.83-3.085-10.414-6.014-15.245-9.1"/>
				</g>
			</g>
		</g>
	</g>
	<g>
		<g>
			<path style="fill:none;stroke:#000000;stroke-linecap:round;stroke-linejoin:round;stroke-miterlimit:10;" d="M165.682,131.577
				c1.059,1.689,3.078,2.494,5.011,2.98c1.721,0.433,3.51,0.7,5.271,0.478c1.761-0.222,3.5-0.973,4.664-2.312
				c1.984-2.282,1.758-6.143-0.479-8.178C176.271,121.017,161.256,124.516,165.682,131.577z"/>
			<path style="fill:none;stroke:#000000;stroke-linecap:round;stroke-linejoin:round;stroke-miterlimit:10;" d="M112.499,103.726
				c3.865,0.268,6.694,4.948,5.133,8.494c-1.561,3.546-6.923,4.622-9.731,1.953"/>
		</g>
		<g>
			<path d="M169.057,118.01c0-1.593-1.291-2.884-2.884-2.884s-2.884,1.291-2.884,2.884c0,1.593,1.291,2.884,2.884,2.884
				S169.057,119.603,169.057,118.01z"/>
			<path d="M125.352,104.865c0-1.593-1.291-2.884-2.884-2.884c-1.593,0-2.884,1.291-2.884,2.884c0,1.593,1.291,2.884,2.884,2.884
				C124.061,107.749,125.352,106.458,125.352,104.865z"/>
			<path style="fill:none;stroke:#000000;stroke-linecap:round;stroke-linejoin:round;stroke-miterlimit:10;" d="M143.171,117.746
				c0.551,1.654,2.157,2.902,3.896,3.028c1.739,0.126,3.508-0.878,4.292-2.435"/>
			<path style="fill:none;stroke:#000000;stroke-linecap:round;stroke-linejoin:round;stroke-miterlimit:10;" d="M130.168,88.718
				c2.929-1.072,6.574,0.733,7.497,3.712"/>
			<path style="fill:none;stroke:#000000;stroke-linecap:round;stroke-linejoin:round;stroke-miterlimit:10;" d="M167.288,95.907
				c1.508,0.151,3.016,0.303,4.524,0.454"/>
		</g>
		<g>
			<path style="fill:none;stroke:#000000;stroke-linecap:round;stroke-linejoin:round;stroke-miterlimit:10;" d="M161.176,75.177
				c11.269-12.555,22.538-25.111,33.808-37.666c0.232,18.324,0.718,36.982,0.949,55.306"/>
			<path style="fill:none;stroke:#000000;stroke-linecap:round;stroke-linejoin:round;stroke-miterlimit:10;" d="M168.39,68.539
				c10.006,1.378,19.566,5.839,27.05,12.622"/>
			<path style="fill:none;stroke:#000000;stroke-linecap:round;stroke-linejoin:round;stroke-miterlimit:10;" d="M174.521,60.574
				c7.863,0.124,15.609,3.724,20.772,9.656"/>
			<path style="fill:none;stroke:#000000;stroke-linecap:round;stroke-linejoin:round;stroke-miterlimit:10;" d="M182.882,52.34
				c5.124,2.342,9.57,6.143,12.681,10.839"/>
			<path style="fill:none;stroke:#000000;stroke-linecap:round;stroke-linejoin:round;stroke-miterlimit:10;" d="M186.534,47.413
				c2.665-1.004,5.815-0.609,8.15,1.021"/>
		</g>
		<g>
			<path style="fill:none;stroke:#000000;stroke-linecap:round;stroke-linejoin:round;stroke-miterlimit:10;" d="M140.007,378.986
				c-4.424,9.866-8.849,19.732-13.273,29.598c-2.228,4.969-3,10.974,0.243,15.349c2.999,4.046,8.224,5.988,13.259,6.062
				c5.035,0.074,9.947-1.489,14.641-3.315c13.232-5.147,25.587-12.541,36.376-21.77"/>
			<path style="fill:none;stroke:#000000;stroke-linecap:round;stroke-linejoin:round;stroke-miterlimit:10;" d="M127.286,408.297
				c1.831-0.268,3.769,0.311,5.153,1.539c1.384,1.229,2.189,3.084,2.14,4.934c2.081-1.283,4.852-1.357,7-0.187
				c2.147,1.17,3.587,3.538,3.638,5.983c1.907-0.081,3.9,0.25,5.351,1.49c1.451,1.241,2.409,3.043,2.626,4.94"/>
		</g>
		<g>
			<path style="fill:none;stroke:#000000;stroke-linecap:round;stroke-linejoin:round;stroke-miterlimit:10;" d="M118.578,369.232
				c-8.115,9.076-16.229,18.151-24.343,27.226c-3.438,3.845-1.859,10.176,1.735,13.876c3.594,3.7,9.024,5.142,14.18,4.986
				c5.156-0.156,10.151-1.728,15.068-3.286"/>
			<path style="fill:none;stroke:#000000;stroke-linecap:round;stroke-linejoin:round;stroke-miterlimit:10;" d="M99.622,390.834
				c1.978,0.419,3.769,1.66,4.856,3.365c1.087,1.705,1.457,3.852,1.002,5.823c2.304-1.105,5.689-0.561,7.627,1.104
				c1.938,1.666,2.764,4.515,2.018,6.959c1.38-0.388,2.948-0.025,4.017,0.93c1.07,0.955,1.608,2.471,1.379,3.886"/>
		</g>
		<g>
			<g>
				<path style="fill:none;stroke:#000000;stroke-linecap:round;stroke-linejoin:round;stroke-miterlimit:10;" d="M142.473,148.578
					c-5.992-1.914-12.024-3.845-17.565-6.822c-5.542-2.977-10.625-7.095-13.786-12.534c-2.869-4.938-4.023-10.867-3.124-16.507
					c0.899-5.64,3.861-10.943,8.251-14.596c4.645-3.866,9.417-8.086,14.516-11.33c13.292-8.456,29.475-14.139,44.344-8.934
					c14.869,5.205,26.371,19.01,28.807,34.575c6.127,39.15,5.83,78.884,8.445,118.425"/>
				<path style="fill:none;stroke:#000000;stroke-linecap:round;stroke-linejoin:round;stroke-miterlimit:10;" d="M135.082,146.589
					c-8.326,30.182-16.652,60.364-24.977,90.546c-7.157,25.944-11.956,52.937-9.42,79.729c2.536,26.793,14.169,53.843,36.09,69.456"
					/>
				<path style="fill:none;stroke:#000000;stroke-linecap:round;stroke-linejoin:round;stroke-miterlimit:10;" d="M187.606,407.827
					c38.808,12.568,81.204,13.831,120.691,3.596"/>
				<path style="fill:none;stroke:#000000;stroke-linecap:round;stroke-linejoin:round;stroke-miterlimit:10;" d="M296.089,402.893
					c5.521,3.401,11.041,6.802,16.562,10.202c6.979,4.299,13.994,8.617,21.562,11.764c7.568,3.148,15.779,5.1,23.949,4.447
					c3.23-0.258,6.497-0.949,9.262-2.638s4.976-4.497,5.354-7.715c0.459-3.906-1.735-7.578-3.842-10.899
					c-3.544-5.586-7.089-11.172-10.633-16.758c23.499-13.529,41.792-37.511,49.056-63.636c7.224-25.982,3.888-54.735-9.077-78.379
					c-0.892-1.627-2.635-2.721-4.484-2.576c-2.4,0.188-3.879,2.314-4.355,4.487c-0.391,1.783-0.225,3.633-0.155,5.456
					c0.708,18.365-9.108,36.582-24.373,46.817c-15.265,10.235-35.38,12.483-52.826,6.704"/>
			</g>
			<path style="fill:none;stroke:#000000;stroke-linecap:round;stroke-linejoin:round;stroke-miterlimit:10;" d="M364.356,403.481
				c-3.687,2.288-5.584,7.119-4.438,11.304c-2.437,0.155-4.721,1.787-5.657,4.043c-0.936,2.255-0.48,5.025,1.131,6.86
				c-1.643-0.309-3.696,1.638-3.503,3.299"/>
		</g>
		<g>
			<path style="fill:none;stroke:#000000;stroke-linecap:round;stroke-linejoin:round;stroke-miterlimit:10;" d="M329.404,312.497
				c1.518-3.585,4.964-6.283,8.808-6.896c3.844-0.613,7.959,0.879,10.516,3.814c-1.463-3.79,1.459-7.986,5.156-9.672
				c3.696-1.686,8.57-0.03,10.473,3.559c-2.485-3.253-1.467-9.533,1.67-12.163c3.138-2.629,8.332-2.29,11.1,0.726
				c-1.306-2.011-0.999-6.034,0.284-8.06c1.283-2.025,3.796-3.197,6.171-2.876c-2.16-0.727-3.471-3.345-2.757-5.51
				c0.713-2.165,3.324-3.491,5.493-2.791c-2.987-1.167-4.864-5.412-4.305-8.57c0.559-3.158,3.536-5.712,6.742-5.783"/>
			<path style="fill:none;stroke:#000000;stroke-linecap:round;stroke-linejoin:round;stroke-miterlimit:10;" d="M196.188,93.268
				c1.312-0.769,3.028-0.793,4.361-0.062c1.333,0.731,2.235,2.191,2.293,3.711c0.057,1.519-0.732,3.043-2.007,3.873
				c3.699-0.769,7.907,1.422,8.82,5.088c0.913,3.666-1.484,7.837-5.112,8.894c4.382,0.074,9.15,3.932,9.575,8.294
				c0.425,4.363-2.806,8.783-7.092,9.701c2.211-0.495,4.78,0.646,6.207,2.406c1.427,1.76,1.754,4.342,0.813,6.403
				s-3.108,3.503-5.372,3.576c4.195,0.476,7.35,3.856,7.713,8.062c0.363,4.206-2.549,8.467-6.6,9.656
				c3.262,0.805,5.568,4.144,5.703,7.502c0.135,3.358-2.151,6.67-5.338,7.735c4.74,1.171,8.455,5.661,8.718,10.537
				c0.263,4.876-2.948,9.74-7.535,11.414c3.794-0.102,7.355,3.199,7.541,6.99c0.186,3.791-3.036,7.424-6.822,7.694
				c3.303,1.329,6,4.126,7.079,7.518c1.079,3.393,0.566,7.256-1.362,10.249"/>
		</g>
		<g>
			<path style="fill:none;stroke:#000000;stroke-linecap:round;stroke-linejoin:round;stroke-miterlimit:10;" d="M105.387,260.003
				c14.152,1.956,28.972-7.966,32.557-21.795s-4.55-29.701-17.869-34.866"/>
			<path style="fill:none;stroke:#000000;stroke-linecap:round;stroke-linejoin:round;stroke-miterlimit:10;" d="M143.572,282.133
				c-1.468,5.714,1.179,12.225,6.19,15.338c5.011,3.113,11.985,2.62,16.541-1.129c4.556-3.749,6.388-10.458,4.419-16.019
				C166.011,267.014,146.962,268.934,143.572,282.133z"/>
			<path style="fill:none;stroke:#000000;stroke-linecap:round;stroke-linejoin:round;stroke-miterlimit:10;" d="M121.889,342.973
				c1.03,6.972,6.445,13.114,13.25,14.951c6.804,1.837,14.608-0.772,18.89-6.37c4.283-5.598,4.747-13.853,1.067-19.864
				C145.1,315.36,118.977,323.27,121.889,342.973z"/>
			<path style="fill:none;stroke:#000000;stroke-linecap:round;stroke-linejoin:round;stroke-miterlimit:10;" d="M209.192,340.28
				c-6.058,6.46-7.791,16.622-4.218,24.726c3.574,8.103,12.246,13.676,21.102,13.559c8.856-0.117,17.378-5.916,20.737-14.111
				c3.359-8.195,1.358-18.307-4.868-24.606"/>
			<path style="fill:none;stroke:#000000;stroke-linecap:round;stroke-linejoin:round;stroke-miterlimit:10;" d="M277.136,308.019
				c-6.291,10.8-3.73,25.803,5.478,34.254c9.208,8.452,24.011,9.836,34.872,3.651c10.861-6.185,17.196-19.269,15.802-31.69"/>
			<path style="fill:none;stroke:#000000;stroke-linecap:round;stroke-linejoin:round;stroke-miterlimit:10;" d="M393.003,357.792
				c-8.504-2.659-15.278-10.221-16.988-18.965c-1.711-8.744,1.714-18.301,8.589-23.969c6.875-5.668,16.91-7.207,25.167-3.86"/>
			<path style="fill:none;stroke:#000000;stroke-linecap:round;stroke-linejoin:round;stroke-miterlimit:10;" d="M301.471,376.644
				c0.635,4.814,5.324,8.685,10.177,8.555c4.853-0.13,9.272-4.113,10.063-8.904C324.103,361.819,299.535,361.966,301.471,376.644z"
				/>
			<path style="fill:none;stroke:#000000;stroke-linecap:round;stroke-linejoin:round;stroke-miterlimit:10;" d="M196.342,408.609
				c14.01-10.417,31.133-16.59,48.567-17.51c17.434-0.92,36.152,2.909,51.181,11.794"/>
		</g>
		<g>
			<path style="fill:none;stroke:#000000;stroke-linecap:round;stroke-linejoin:round;stroke-miterlimit:10;" d="M290.872,415.405
				c7.685,11.388,20.186,19.409,33.741,21.648c3.079,0.508,6.433,0.281,8.64-1.925c2.207-2.205,3.184-5.57,2.501-8.615"/>
			<path style="fill:none;stroke:#000000;stroke-linecap:round;stroke-linejoin:round;stroke-miterlimit:10;" d="M308.85,430.522
				c0.782-2.464,2.633-4.569,4.977-5.658c2.344-1.09,5.146-1.148,7.534-0.157c0.988-1.502,1.977-3.005,2.965-4.507"/>
		</g>
	</g>
	<g>
		<g>
			<path style="fill:none;stroke:#000000;stroke-linecap:round;stroke-linejoin:round;stroke-miterlimit:10;" d="M77.358,339.945
				c4.098-6.703,3.358-16.009-1.749-21.98c-5.107-5.97-14.186-8.145-21.443-5.135c-3.193,6.517-2.567,15.836,1.949,21.516
				C60.631,340.027,70.289,341.586,77.358,339.945z"/>
			<path style="fill:none;stroke:#000000;stroke-linecap:round;stroke-linejoin:round;stroke-miterlimit:10;" d="M65.313,323.239
				c6.702,7.143,11.431,16.119,13.531,25.685"/>
		</g>
		<g>
			<path style="fill:none;stroke:#000000;stroke-linecap:round;stroke-linejoin:round;stroke-miterlimit:10;" d="M79.067,142.275
				c-7.564-2.118-13.361-9.437-13.69-17.284s4.834-15.619,12.194-18.355c6.775,2.599,12.664,9.848,13.228,17.081
				C91.363,130.951,85.358,138.666,79.067,142.275z"/>
			<path style="fill:none;stroke:#000000;stroke-linecap:round;stroke-linejoin:round;stroke-miterlimit:10;" d="M76.503,121.845
				c-0.04,9.792,2.613,19.582,7.592,28.017"/>
		</g>
		<g>
			<path style="fill:none;stroke:#000000;stroke-linecap:round;stroke-linejoin:round;stroke-miterlimit:10;" d="M426.512,323.708
				c-2.863-7.315-0.51-16.35,5.558-21.337c6.067-4.988,15.381-5.544,21.997-1.315c2.004,6.974-0.238,16.041-5.674,20.846
				C442.957,326.706,433.181,326.557,426.512,323.708z"/>
			<path style="fill:none;stroke:#000000;stroke-linecap:round;stroke-linejoin:round;stroke-miterlimit:10;" d="M441.281,309.36
				c-7.842,5.864-14.062,13.877-17.799,22.93"/>
		</g>
		<path style="fill:none;stroke:#000000;stroke-linecap:round;stroke-linejoin:round;stroke-miterlimit:10;" d="M81.853,267.08
			c1.298-2.439,2.596-4.877,3.894-7.316c-2.537,0.881-5.388,2.015-7.924,2.897c-1.585-2.054-3.171-4.109-4.756-6.164
			c-0.139,2.713-0.279,5.426-0.418,8.14c-2.064,0.828-4.466,1.624-6.53,2.452c2.167,0.986,4.335,1.971,6.502,2.956
			c0.18,2.683,0.524,5.274,0.704,7.958c1.62-2.047,3.241-4.094,4.861-6.14c2.48,0.967,5.203,1.956,7.683,2.924
			C84.744,272.427,83.228,269.304,81.853,267.08z"/>
		<path style="fill:none;stroke:#000000;stroke-linecap:round;stroke-linejoin:round;stroke-miterlimit:10;" d="M422.035,159.883
			c2.763-0.009,5.525-0.019,8.288-0.028c-1.976-1.818-4.323-3.794-6.299-5.613c1.061-2.368,2.121-4.737,3.182-7.105
			c-2.457,1.16-4.913,2.321-7.37,3.481c-1.705-1.427-3.543-3.167-5.248-4.594c0.157,2.376,0.313,4.751,0.47,7.127
			c-2.279,1.428-4.4,2.956-6.679,4.383c2.57,0.46,5.139,0.92,7.709,1.38c0.32,2.642,0.737,5.51,1.057,8.152
			C418.691,164.958,420.726,162.145,422.035,159.883z"/>
		<path style="fill:none;stroke:#000000;stroke-linecap:round;stroke-linejoin:round;stroke-miterlimit:10;" d="M235.892,69.591
			c2.33,1.484,4.66,2.969,6.99,4.453c-0.681-2.598-1.589-5.529-2.27-8.126c2.172-1.42,4.344-2.84,6.516-4.26
			c-2.694-0.351-5.388-0.701-8.082-1.052c-0.664-2.122-1.27-4.579-1.935-6.701c-1.152,2.084-2.303,4.168-3.455,6.251
			c-2.689-0.03-5.299,0.111-7.988,0.081c1.914,1.775,3.828,3.55,5.742,5.326c-1.158,2.396-2.356,5.035-3.514,7.431
			C230.336,72.056,233.568,70.788,235.892,69.591z"/>
		<path style="fill:none;stroke:#000000;stroke-linecap:round;stroke-linejoin:round;stroke-miterlimit:10;" d="M127.142,173.716
			c-4.63-6.673-13.266-10.313-21.276-8.966s-14.981,7.61-17.175,15.43c-3.085-1.039-8.208-1.219-10.667,0.913
			c-2.459,2.133-3.675,5.607-3.082,8.807c-4.06-1.012-8.676,0.959-10.753,4.591c-2.424,4.24-1.133,10.037,2.458,13.347
			c3.591,3.31,9.013,4.223,13.725,2.938c0.824,2.395,3.58,4.063,6.088,4.414c2.508,0.351,5.168-0.81,6.618-2.887
			c5.241,6.298,15.095,8.174,22.283,4.241"/>
		<path style="fill:none;stroke:#000000;stroke-linecap:round;stroke-linejoin:round;stroke-miterlimit:10;" d="M424.831,234.293
			c2.142,1.488,5.014,1.866,7.468,0.983c2.454-0.883,5.459-3.11,6.162-5.622c5.148,2.6,11.586,2.458,16.614-0.367
			c5.028-2.825,10.01-8.285,10.467-14.034c4.373-0.296,7.813-5.156,6.638-9.379c-1.175-4.222-6.632-6.607-10.529-4.6
			c0.722-3.428-0.733-7.217-3.564-9.281c-2.831-2.064-6.493-2.553-9.535-0.816c-5.318-7.375-15.087-11.245-24.013-9.514
			c-8.926,1.732-16.539,8.974-18.713,17.803c-5.611-1.968-12.582-1.681-17.67,1.395c-5.089,3.077-8.376,9.255-7.289,15.1
			c1.087,5.846,7.008,10.607,12.884,9.696c-0.282,5.163,4.229,9.789,9.35,10.504c2.203,3.424,7.486,5.356,11.548,5.08
			C418.71,240.964,423.112,237.984,424.831,234.293z"/>
		<path style="fill:none;stroke:#000000;stroke-linecap:round;stroke-linejoin:round;stroke-miterlimit:10;" d="M327.075,97.676
			c-0.314-4.021,1.422-8.149,4.516-10.737c3.094-2.587,7.464-3.566,11.366-2.546c0.183-1.785,1.47-3.369,3.087-4.147
			c1.616-0.778,3.633-0.655,5.142,0.315c2.202-6.944,9.765-12.567,17.047-12.356s14.097,5.672,15.892,12.732
			c3.762-3.496,9.793-3.636,14.178-0.961s6.642,8.409,5.255,13.354c3.274-0.387,7.452,1.391,8.857,4.374
			c1.405,2.983,0.69,6.828-1.694,9.105c-2.384,2.278-6.257,2.818-9.173,1.278c0.051,2.309-1.793,5.38-3.892,6.344
			c-2.099,0.964-4.753,0.561-6.471-0.983c-0.925,4.322-5.51,7.516-9.885,6.885"/>
		<g>
			<path style="fill:none;stroke:#000000;stroke-linecap:round;stroke-linejoin:round;stroke-miterlimit:10;" d="M127.759,425.987
				c-12.723,1.423-25.446,2.847-38.17,4.27c-5.233,0.585-11.715,2.273-12.629,7.458c-0.564,3.198,1.544,6.394,4.312,8.093
				c2.768,1.699,6.08,2.214,9.298,2.656c46.829,6.432,94.348,4.744,141.586,3.043c59.948-2.159,119.896-4.318,179.843-6.478
				c4.56-0.164,10.511-1.594,10.778-6.15c0.276-4.701-5.796-6.719-10.478-7.217c-14.842-1.578-29.684-3.156-44.526-4.733"/>
			<path style="fill:none;stroke:#000000;stroke-linecap:round;stroke-linejoin:round;stroke-miterlimit:10;" d="M159.252,424.921
				c47.278,0.766,94.555,1.533,141.833,2.299"/>
		</g>
	</g>
</g>
</svg>
