<?xml version='1.0' encoding='utf-8'?>
<svg xmlns="http://www.w3.org/2000/svg" enable-background="new 0 0 612 612" version="1.1" viewBox="0 0 612 612"> <g stroke="#000" stroke-linecap="round" stroke-linejoin="round" stroke-miterlimit="10" stroke-width=".75"> <path d="m481.3 310.5c1.5 2 3.3 2.5 4.9 3.5 13.1 7.7 22.8 18.4 28.6 32.4 3.7 9.1 4 18.5-0.3 27.5-2.6 5.3-6.1 10.3-10.1 14.7s-9.3 6.4-15.2 6.6c-1.4 0-2.7 0.3-4 0.9-6.9 3.3-13.7 2.8-20.2-1.1-1.3-0.8-2-0.6-3.1 0.2-5.3 4.1-11.2 6.9-17.9 7.8-0.4 0.1-1.1 0.2-1.2 0.4-1.2 3.7-4.4 3-7.1 3.3-4.5 0.5-9 0.3-13.4-1 0.8 0.9 2 1.6 1.4 2.9-0.6 1.4-2.2 1.6-3.3 1.3-4.4-1.1-9-0.4-13.3-1.8-2-0.6-2.5-0.2-2.6 1.9-0.3 6.6-2.8 12-8.6 15.6-1 0.6-1.2 1.8-1.6 2.8-2.1 4.5-4.5 8.6-8.8 11.4-0.3 0.2-0.6 0.3-1 0.5-0.7-1.6-0.1-3.2-0.4-4.8-5.9 10.1-15.1 16.1-24.6 21.8-4.9 0.1-8.3 4.4-12.9 4.9-3.8 0.5-6.3 3.4-9.9 4.1-1.2 0.2-1.7 1.5-2.2 2.6-3.1 6.9-7.5 12.9-13.7 16.9-5.3 3.5-10 7.9-15.8 10.5-8 3.6-15.7 8.2-24.6 9.4-1.7 0.2-2.2 1.2-2.5 2.8-0.9 6.3-0.6 12.6-0.1 18.9 0.6 7.4 0.5 14.7-1.6 21.8-0.1 0.4-0.2 0.7-0.3 1-3.2 7.7-8.1 14.3-13.1 20.8-1.4 1.8-3.5 3-5.6 3.9-4.9 2.2-10.1 3.4-15.5 3.5-7.9 0-13.8-3.8-18.1-10.2-0.6-0.9-1.1-1.7-2.3-2.2-6.8-2.6-11.5-9.7-11.8-17.1-0.2-4.7 0.5-9.3 1.2-13.9 1.5-9.4 0.5-18.7-2.3-27.7-2.2-7.2-4.8-14.3-7.2-21.4-0.5-1.4-0.8-2.4-2.8-1.4-13 6.4-26.9 9.5-41.4 9.6-4.3 0-8.6 0.1-12.9-0.5-2.4-0.3-3.5 0.3-4.1 2.9-1.3 5.7-1.4 11.4-1.5 17.2-0.2 8.7-1.1 17.4-4.2 25.7-2.4 6.5-5.8 12.4-12.5 15.3-2.9 1.3-5.6 2.6-8.3 4.2-3.2 1.9-6.7 2.6-10.3 1.9-3.2-0.6-6.2-0.7-9.4-0.5-7.8 0.4-13.5-3.6-17.3-10.2-1-1.8-2.2-3.1-3.9-4.2-5.9-3.8-8.1-9.7-8.8-16.3-1-8.9 1.6-17.3 3.4-25.7 3-13.6 4.6-27.4 6-41.2 1.1-11.1 1.4-22.3 4.2-33.2 1.5-5.7 4.5-10.6 7.8-15.4 0.4-0.6 1.4-1.3 0.9-2.1-1.6-2.5 0.2-3 2-3.8 2.6-1.1 5-5.8 4.4-8.3-0.2-1 0.4-1.6 0.9-2.2 3.3-3.7 6-7.9 7.7-12.6 0.2-0.5 1.1-1.1 0.2-1.6-2.2-1.3-1-2.6-0.2-3.9 1.6-2.7 2.7-5.6 3.8-8.5 2.3-6.1 5.5-11.8 8.6-17.5 1.2-2.2 2.9-4 5-6-3.8-1.3-6-4.5-9.4-6.2-2.4-1.3-4.8-2.7-5.4-5.8-0.2-0.9-1.1-1.2-1.7-1.7-3.3-2.8-6.6-5.6-7.6-10.1-0.4-1.7-2-2.8-3.2-4.1-3.1-3.4-6.1-6.9-8.2-11-1-1.9-2.8-4.2 0.1-6.3 0.7-0.5-0.2-1.3-0.6-1.9-1.9-3.4-3.7-6.7-4.3-10.6-0.3-1.8-1-3.5 0.4-5.2 0.6-0.7-0.2-1.7-0.6-2.6-1.8-4.3-3.8-8.6-4.4-13.3-0.2-1.7-0.3-3.3 0-4.9 0.3-1.7 1-2.8 3-1.2-1.6-6.8-2.9-13.3-2.7-20.1 0.1-2.6 0.6-5 1.7-7.4 1.4-3 0.9-6.5 1.6-9.7 0.6-2.8 0.9-5.7 2.4-8.1 0.6-0.9 0.5-2.6 2.6-2.2 0.9 0.2 0.5-1.2 0.5-1.8 0.3-5.1 0.6-10.3 2.2-15.2 1.2-3.8 2.2-7.8 6.6-9.4 0.5-0.2 0.8-1.2 1-1.9 1.7-3.9 3.3-7.8 5.1-11.6 2-4.1 2.2-8.7 3.3-13 1.6-6.7 3.7-13.3 7.8-19 5.4-7.6 12.5-12.9 22.3-12.6 10.3 0.4 17.5 6.2 22.9 14.6 5 7.9 7 16.8 8.2 26 2.2 16.8-3.1 31.9-9.9 46.7-4.3 9.3-8.2 18.6-9.1 29-0.8 8.8 2.1 16.8 5.3 24.8 5.5 3.5 6.7 10.4 11.5 14.6 3.4 2.9 7 4.9 11.2 6.2 1 0.3 1.9 0.4 2.9-0.2 4.8-2.8 10-4.6 15.1-6.5 1.3-0.5 1.9-0.8 0.8-2.2-1-1.2-0.3-2 1.1-2.3 9.4-2.5 17.6-8.2 27.3-10.2 1-0.2 1.2-0.6 0.8-1.5-0.9-2.2 0.4-2.4 2.1-2.5 5.9-0.4 11.7-1.4 16.5-5.3 4.5-3.7 8.4-8.2 11.9-12.9-0.2-0.2-0.3-0.4-0.4-0.4-4.7-1.2-4.7-1.4-1.9-5.3 2-2.8 4.6-5 7-7.4 0.9-0.9 2.7-1.9 0.2-3.3-1.1-0.6-0.3-1.4 0.4-1.9 1.8-1.4 3.5-2.9 4.8-4.9 0.9-1.3 0.9-2.1-0.4-3.1-3.4-2.9-6.1-6.4-7.2-10.8-0.3-1-0.6-1.7 0.6-2.5 1.5-1.1 1-3.4 1.6-5 1-2.4-0.7-3.2-2.3-4.2-3.1-2-3.2-3.2-1-6.2 2.1-2.8 2-6.4 3.8-9.5-0.9-0.2-1.5-0.3-2.1-0.5-2.7-1-3-2-1.2-4.4 1.4-1.8 2.8-3.5 3.6-5.8-1.5-0.7-3.1-0.6-4.5-1.4-2.1-1.3-2.2-2.2-0.2-3.6 2.4-1.8 4.4-3.9 6.3-6.1 0.8-0.9 1.1-1.7 0.8-2.9-5.1-21.8-2.3-42.9 5.2-63.7 3.9-10.9 8.1-21.6 13.3-32 3.6-7.2 9-10.9 17.2-9.8 1.8 0.2 3.7 0.3 5.5 0.6 14.3 2.1 28.8 3.6 42.5 8.4 6.3 2.2 11.5 2.2 18 0.2 30.3-9.5 60.3-7.1 89.4 5.1 3.6 1.5 6.4 1.8 10.2 0.2 11.2-4.6 23.1-6.3 34.9-8.4 5.8-1 11.6-1.9 17.4-2.3 8.1-0.6 11.7 2.6 12.3 10.7 1.3 18.9-1.7 37.2-8.6 54.7-2.9 7.4-3.7 13.7-1.1 21.6 4.7 14.1 8.8 28.5 11.7 43.2 0.9 4.6 2.3 9.3 6.8 12.1 1 0.6 0.7 1.4 0.1 2.1-1.1 1.6-2.7 2.1-4.5 2.1-1.1 0-1.6 0.1-1.3 1.5 0.8 5.1 0 10.2-1.1 15.2-0.2 0.9-0.4 2.1-1.7 2.1-0.8 0-1 0.6-1.3 1.2-2.9 5.3-2.7 5.7 2.6 8.6 3.1 1.7 6.2 3.4 8.9 6.2-1.5 0.6-2.2-0.4-3-0.9-3.1-2.1-6.4-3.9-9.8-5.5-1.1-0.5-1.7-0.5-2.3 0.7-1.5 2.6-4.3 4.2-5.6 7.1-0.7 1.5-0.6 2.1 0.9 2.9 11 5.8 19.4 14.3 26 24.7 0.7 1 1.4 2.1 1.2 3.6-7.7-11.8-17.3-21.5-30-27.8 7.9 7.3 14.5 15.5 19.9 25.3-1.4-0.1-1.6-0.9-1.9-1.4-5-7.2-10.2-14.1-16.7-20-3.1-2.9-3.1-2.9-6.2 0.1-1.2 1.1-2.4 2.3-3.7 3.3-1.2 0.9-1 1.5-0.2 2.6 12 15.3 19.3 32.8 22 52 0.4 2.5 0.5 5-0.4 7.5-0.5-3.5-0.9-7-1.6-10.4-3.3-17.1-9.8-32.8-20.5-46.7-1.5-2-2.6-2.9-5.1-0.9-3.7 3.1-3.8 2.8-1.7 7.3 5.6 11.6 8.9 23.8 10.1 36.6 0.1 1.3 0.1 2.6 0.1 3.9 0 0.2-0.2 0.5-0.3 0.8-1.2-0.4-0.8-1.4-0.9-2.1-1.6-14.2-5.1-27.7-11.8-40.4-0.9-1.6-1.4-2.2-3.1-0.9-2.8 2-5.9 3.8-8.9 5.5-1.2 0.7-1.6 1.3-1.1 2.6 3.3 8.8 2.8 18.3 4.5 27.3 0.1 0.8 0.5 2.1-0.4 2.2-2.7 0.4-1.7 2-1.4 3.4 0.4 1.7 0.8 3.4 1.5 5 0.9 2.3 1.8 4.2-2.2 3.7zm-51.3 91.4c1.2 0.2 2.4 0.9 4.1 0.2-5-2.1-8.2-5.8-11-9.9-0.2-0.3-0.5-0.9-1-0.6-0.3 0.2-0.6 0.7-0.7 1.1-0.3 0.8 0.4 1.3 0.7 2 1.9 3.3 5.2 4.9 7.9 7.2-3.7-0.9-6.1-3.6-8.4-6.4-0.4-0.5-0.8-1.4-1.7-0.7-0.7 0.6-0.4 1.3 0.1 1.9 1.1 1.2 2.1 2.5 3.4 3.5 1.9 1.4 3.9 2.9 6.6 1.7zm-95.5-132c-1.3-0.7-2.4-2.2-4.4-1.8 1.9 4.3 4 8.1 7.8 11.5-0.8-1.9-1.4-3.3-1.9-4.7 2.1 2.6 4 5.4 6.7 7.4 1.5 1.1 2.5 1.2 2.6-1 3.2-2.4 5-6 7.7-8.9-5.6-1.9-5.9-1.9-6.1 0.6-1.8-3.3-5.2-2.4-8.1-3.6 0.9 3.5 3 5.9 4.2 8.8-2.4-1.8-3.3-4.6-4.7-7.1-0.7-1.3-1.6-2.2-3.1-2.3-1-0.2-1.1 0.3-0.7 1.1zm-41.8 225.6c0.3 1.1-1.4 1.5-0.9 2.7 5.4-1.7 12.6-16 12.1-24.1-0.6-0.1-1.1 0.2-1.4 0.7-2.5 3.5-4.4 7.2-5.3 11.4-0.7 3.5-2.2 6.7-4.5 9.3 3.3-6.5 5-13.8 7.8-20.7-2.4-0.4-2.8 2.1-4.5 2.5-0.1-0.5 0.6-0.9 0.2-1.5-3.1 2-6 4.4-9.8 4.9-2.7 0.4-1.7 3.2-3 4.9 0.1-0.9 0.1-1.4 0.2-1.9 0.1-0.9 1-2.1-0.4-2.4-1.2-0.2-2.4 0-2.6 1.9-0.2 2-0.8 4-2.1 6.1 0.5-2.4 0.8-4.4 1.2-6.3 0.1-0.6 0-1.5-0.5-1.2-1.1 0.8-2 1.2-3.2 0.4-0.3-0.2-0.9 0.4-1.1 1-0.3 0.7-0.7 1.3-1 1.9-0.8-0.8 0.5-1.6-0.3-2.5-1.2 0.7-1.6 2-2.4 3.1-1.7 2.4-2.6 5.5-5.3 7.2 1.9-3.2 4.3-6.2 5.4-10-1.7 0.3-2.5 1.5-3.7 2.3 0.1-0.6 0.5-1.3 0.3-1.4-0.7-0.7-1.5-0.1-1.9 0.4-1.9 2.2-3.7 4.4-5.5 6.6-0.1-0.1-0.2-0.1-0.3-0.2 1.4-2.2 2.8-4.4 4.2-6.6-3.9-0.6-5.4 2.8-8 4.4 0.9-1.3 1.8-2.6 3-4.3-3.2 0.2-4.3 2.9-7 4.2 1.2-1.6 1.9-2.7 2.6-3.6-1.6-1.5-3.3-0.1-5.1-0.5s-3 2.2-5 3.1c0.1-1.6 1.7-2 2-3.6-3.1 0.7-5.3 2.8-8.2 4.2 1-1.9 3-2.3 3.8-4-4.4 0.1-7.1 3.7-11.5 5 2.4-2.1 5.3-2.5 6.7-5.2-3.7 0.2-6.6 2.3-10.3 2.3 2-1.3 4.3-1 6.4-2.7-3.4 0.4-6.4 0-9.2 1.1 0.2-0.5 0.3-1 0.6-1.7-3.7 1.2-7.3 2.2-10.8 3.7 2.4-2 5.5-2.8 8.5-3.8-3.2-1-6.1-2-9-2.9-0.6-0.2-1.1-0.6-1.7 0.2-0.8 1-1.9 0.8-3-0.1 0.4 2.2 2.7 3.1 2.6 5.3-1-0.6-1.2-1.6-1.8-2.2-0.7-0.7-1.1-2.4-2.3-1.9-1.4 0.6 0.4 1.8 0.2 2.8-0.9-0.2-0.8-1.8-2-1.4-0.8 0.3-0.6 1.1-0.4 1.7 1.3 4.3 2.7 8.6 4.6 12.7 1.8-0.9 1.9-2.8 3-4 0.4 2.5-2.7 3.7-2.5 6.5 1.8-1 2.1-2.8 3.6-4.1-0.4 2.6-2.9 3.8-2.7 6.4 1.8-0.9 2.2-3.1 4-3.9-1.1 2.4-3.5 4.1-3 7.6 1-1.4 1.6-2.4 2.4-3.5 0.2 1.3-0.7 2-0.9 2.9-0.7 2.5-0.2 4.5 1.1 4.1-0.3 1.3-1 2.5-0.7 3.7 0.8 3.5 1.7 6.9 1.4 10.6-0.3 3.5 0.4 7-0.3 10.5-0.7 3.4-1.4 6.8-1.8 10.3-0.7 6.2 0.9 11.8 5.3 16.5 2.1 2.2 4 2.4 6.6 0.8 2.3-1.4 3.9-3.5 5.4-5.8 1.9-2.9 2.9-6.3 4.4-10.1-0.3 4.3-1.6 7.7-3.2 10.9s-4.2 5.7-7 7.8c0.6 1 1.4 1.6 1.9 2.4 4.3 7 15.7 10.7 22.4 5.7 3.9-2.9 6-6.8 7.6-11.2 1.3-3.6 1.6-7.4 2.5-11.1 0.2 8.1-1.1 15.7-6.6 22.1 13.8-4.9 14.9-16.7 15.9-28.7 0.5 1.9 0.9 3.7 0.7 5.7l-0.3 5.4c4.9-8.2 5.3-17.1 4.5-26.1-0.1-1.6-0.8-3.2-0.7-4.8 0.3-4.8-0.4-9.7 0.4-14.4-0.8-0.4-1.3 0.6-2 0 0.5-1.2 2-1.5 2.4-3-2.7 0.9-5.3 1.8-8.2 2.1 1.2-1.1 2.8-0.8 4.1-2.3-4.3 0.8-8.1 1.6-12 2.3 1.7-0.9 3.5-1.5 5.2-2.6-4.1 0.5-8 1-12.1 1.5 1.5-2.3 3.7-2.3 5.8-2.4-4.1-0.5-8.2-1.9-12.6 0.2 0.5-0.6 0.8-0.9 1.3-1.4-1.8-0.6-3.3 0.2-5 0.2 2.2-2.7 4.9-0.4 7.3-1.3-4.1-0.7-7.9-3.2-12.9-1.8 1-0.9 1.4-1.2 2.1-1.8-2.3-0.7-4.3-1.2-6.5-0.9 2.8-1.4 5.8-0.7 8.7-0.4 7 0.6 14 3.4 21.1 0.7-2.9 2.2-6.2 2.6-9.8 2-3.4-0.6-6.8-1.5-10.8-1.4 2.8 0.7 5.2 1.4 7.5 2 7.1 1.6 14.3 3 21.5 0.5-0.2 0.8-0.8 1.3-2 1.9 1.6-0.2 2.6-0.3 3.5-0.5 7.5-2 14.5-5 18.8-12.1 1.1-1.8 1.7-4 3.2-5.6-1.7 8.5-7.8 13.2-15.1 16.9 11.6-2 14.9-11.5 18.7-21.1-0.8 8.2-5.1 14.1-10.1 19.5 3.1-0.7 5.1-2.7 7.1-4.7zm135.1-102.1c2.8 0.7 4.7 3.1 7.3 4.1 4.9 1.9 9.6 1.8 15.1-0.3-4-0.8-7.6 0-10.1-2.9 5.5 2.1 10.2 2.6 12.4 1.4-10.8-2.7-12.9-3.6-15.6-6.6 1.2 0.1 1.9 1 2.8 1.6 4.4 2.8 9.1 3.7 14.2 3 2.5-0.4 4.8-1.3 6.9-3.6-3.5-0.6-6.6-0.2-9.7-0.4-4.3-0.3-8.1-1.5-10.8-5 4.4 3.4 9.4 4.6 15.5 4.2-3.5-1.2-6.2-2.7-7.9-5.2-5.9-8.8-11.6-17.7-10.3-29.1 0.3-3.1 0.1-6.1-0.4-9.2-0.7-4.9 0-9.8 2.4-14.3-1.4 4.4-2.2 8.9-1 14 0.2-3.4-0.1-6.3 1.2-9.1-0.4 2.9 0 5.7 0.2 8.8 0.6-1.2 1.1-2.1 1.7-3 0.5-0.8 0.4-2.1 1.6-2.4-2.8 10.4-4.6 20.7 0.5 31.7 3-8.1 4.1-16.2 9.6-22.7 0.1 1.3-0.5 1.8-0.9 2.5-3.4 7-5.8 14.3-5.4 22.2 0.2 4.5 2.1 8.3 6.3 10.6 4.4 2.3 8.7 2.4 13-0.4 6.7-4.5 9.4-11.2 11-18.7 0.3-1.6 0.6-3.2 0.8-4.9 0.2-1.5 0.3-3 0.4-4.6 0.6 13.5-2 25.5-15.6 32.1 0.6 0.5 1.2 0.9 1.6 1.4 6.4 8.1 18.9 5.9 24.4-1.4 2.6-3.5 4.4-7.4 5.4-11.6 1.5-6.2 1.8-12.4 1.3-18.7 2.2 8 1.7 24.2-7.2 34 4.8-0.3 9-1.6 12.5-5 5.5-5.3 7.2-11.9 7.7-19.1 0.3-5.9-0.3-11.7-2-17.3 4.2 7.2 4 15.1 3.6 23.1 1 0 1-0.5 1.1-0.9 3.3-9.4 2.5-18.6-2.1-27.4-6.3-11.9-15.4-21.1-27.2-27.6-7.4-4.1-15.6-4.7-23.9-3.2 2.6 0.4 5.1 1.2 7.4 2.6-8.1-2.3-15.7-1.7-23.1 2.9-5.6 3.5-11.4 13.3-11 20.6 0.2-0.5 0.4-0.8 0.6-1.1 2.1-3.9 3.6-8.1 6.6-11.5-0.2 1.5-1.3 2.6-1.8 3.9-1.5 4.1-4.4 7.7-4.8 12.2-0.5 5.7-0.8 11.5 0.3 17.2 0.1 0.6-0.1 0.8-0.6 0.9-0.6-6.3-1.4-12.7-0.4-19.1-1.6 4.4-3.1 8.8-1.9 13.6 0.6 2.6 0.9 5.2 0.9 7.9 0 3 0.7 5.8 1.6 8.6 1.6 4.8 4.5 8.7 7.9 12.3-5.9-3.6-7.6-10-10.3-16.6 0 3.1-1.8 5.1-1.4 7.5-1.3 2.9-0.6 5.6 0.6 8.3-0.8-0.5-1.3-1.3-1.8-2.2-0.4-0.7-0.4-0.1-0.5 0.2 0 0.2 0 0.5 0.4 0.4-2.9 2.9-1.8 5.7 1 8.6-2.2-0.8-2.4-2.7-4.2-3.4 0.4 1.6 0.7 2.7 1.5 3.6-0.2-0.2-0.3-0.5-0.6-0.6-0.6-0.3-1.2-1.2-1.8-0.4-0.5 0.6 0.3 1.1 0.7 1.6 1 1.3 2.1 2.6 3.1 3.8 2.9 3.3 6.6 4.5 10.8 4.6-3.3-1.7-7-3.2-9.6-6.5zm28.8-112.6c-2.7-2.9-5.1-6.5-10.3-5.5 5.2 4.9 10.4 9.5 12.1 17.1 0.8-3.7-0.9-6.5-0.9-9.5 1.1 1.4 1.3 3.2 1.7 4.8 0.9 4 0.1 8.1 0.5 12.5 3.7-4.1 5.1-8.6 4.5-14.5 2.3 4.9 1.2 9.8-2.6 13.9-0.4 1.3-1.9 1.2-2.6 2.2-1.3-2.2-0.6-4.5-1.4-6.8-0.3 4.1-2.8 7-5.5 9.6-3.4 3.4-4.8 8-7.8 11.7 5-2.6 10.2-4.4 15.6-6-4-1.1-7.7 0.1-11.4 0.9 3.7-2.6 7.9-2.4 12.1-2.8s8.3 1.1 12.5 1.2c-2.9-2.4-6.3-3.7-10.3-5.2 3.5-0.3 5.9 1.1 8.8 2.3-0.5-0.7-0.7-1-0.9-1.2-2.3-3-5.7-4.5-9-5.8 8-0.9 10.9 6 15.5 10.2-2-4.9-4.8-9.3-7.7-13.6 3.4 2.7 5.5 6.7 9.5 9.2-1.3-6.2-5.1-11.3-5.1-17.9-1.7 1.1-1.6 2.6-2.3 3.6-0.7 1.2-1.6 2.2-2.8 3-1.8-7.7-3.5-11.5-6.8-15.5-3.2-4-7.3-5.5-10.8-4.1 2.2 1.7 4.7 3.1 5.4 6.2zm-10.1 1.6c-4.7-2.2-9.4-4.5-14.8-3.4 0.3 1 2 0.8 2.3 2.3-2.4-1.5-4.8-2.4-7.8-1.9 1.3 1.3 3 1.6 3.8 3-2.5-0.7-4.7-2.4-7.5-2.4-1.2 0-2.1 0.7-3.4 0.3-4.6-1.5-9.3-1.5-14.1-1.6-5.7-0.2-11.5 0.9-17.4-2.7 2.3 3.2 4 5.6 5.8 8.1-2.5-2.3-4.7-4.9-6.7-7.6-1-1.4-2-1.8-3.6-1-3.2 1.5-6.7 1.6-10.2 1-5.6-1-11.1-2.1-16.7-3.1-0.6-0.1-1.3-0.3-1.9-0.1-1.6 0.5-5 6.7-4.9 8.6-0.7-0.2-1.4-1.4-2.1 0-0.4 0.8-1.8 1.7-0.7 2.5 1.8 1.3 3.3 3.3 5.8 4-0.8-2.5-2.9-4.1-3-6.6 2.6 3.6 5 7.3 9.7 9.6-2.1-3.7-3.7-6.9-4.7-10.5 2.3 3.5 3.8 7.4 6.9 10.5 0.3-1.2-1.1-1.8-0.6-3 1.4 1.6 1.7 3.8 3.6 5.4-1-4.8-2.3-9.2-2.1-14.2 0.7 1.3 0.8 2.4 0.9 3.5 1 6.4 2.9 12.6 7.3 17.5 2.8 3.1 5.5 6.2 7.7 9.6 2.7 4.2 6.7 6.1 11.2 7.6-3.6-7.9-12.1-12.7-13.5-22.4 1 1.9 1.8 3.5 2.6 5 4.3 8.3 12.9 12.4 18.7 19.2 1.1 1.3 0.1-1.1 1.1-0.8 1.2 1.4 1.7 3.5 3.8 4.3 0.7-1.5-0.7-2.8-0.1-4.3 0.6 3.8 2.8 6.3 5.9 8.2 1.8 1.2 3.7 2.4 5.4 3.8 3.3 2.9 6.3 6 9.2 9.6 1.7-5.2 1.8-10.2 1.4-15.2 1.2 3.9 1.4 7.9 0.5 11.7-0.8 3.7-0.7 6.9 2 10 2.6-7.7 5.6-15.2 4.3-24.2 1.5 2.4 0.9 4.7 2 6.7 2.6-7.1 1.5-13.8-1.1-20.4 2.7 4.2 3.7 8.9 3.9 13.8 2.5-5.7 1.6-11.2-1.3-16.6 2.8 3 3.4 6.8 4.3 10.5 0.6-2.5 0-4.8-0.5-7.1-0.6-2.3-1.8-4.4-2.5-6.7 3.8 4.1 4.8 9.3 5.2 15.1 3.1-4.3 4.7-8.4 3.8-13.2 0.5 1.3 0.9 2.7 1.5 4.3 0.3-0.7 0.5-1.1 0.6-1.6 0.1-0.6 0.2-1.3 0.2-1.9 0.3-6.9-3-12.1-7.7-16.7 1.2 0 1.7 1 2.4 1.7 4.3 4.7 7 10 6.8 17.1 3-3.9 3.6-7.8 2.9-12s-2.9-7.6-5.4-10.9c5 3.9 6.8 9.5 7.8 15.9 2.2-4.5 3.2-8.7 1-13-1.9-3.9-4.6-7.2-8-9.9-1.9-1.5-3.7-1.6-5.7-0.3h-2.7c3.1 1.8 6.5 2.2 8.4 4.9zm35.9-186c1.1 2.3 2.2 1.7 3.5 0.2 3-3.7 7-6 11.5-7.5 3.6-1.2 8 0.6 9.7 4 0.6 1.1 1 2.3-0.7 2.8-0.2-3.3-3.9-5.8-7.8-5.4-4.3 0.5-11 5.1-13.3 9.1 0.8 0.2 1.2-0.3 1.7-0.7 2.5-2.1 5.4-3.4 8.4-4.4 3.9-1.3 7.7-1.8 11 1.4-1.3 1-2.4 0.1-3.6-0.2-2.6-0.7-5-0.9-7.5 0.4 1.7 0.2 3.3 0 4.9 0.3 3.4 0.7 6.8 1.6 8.5 5.2 0.7 1.6 0.6 2.6-1.6 2.4-2.1-0.2-4.2-0.3-6.8-0.4 3.3 3 5.8 5.9 6.4 10.2-5.8-8.9-8.5-10.6-15.4-9.3 6.3 6.2 11 13.2 14.3 21.3 0.3-0.5 0.5-0.9 0.7-1.3 6.2-12.7 9.6-26 11-40 0.3-2.5 0.8-5.1 0.2-7.6-0.4-1.7-1.3-3.5-3.1-3.3s-3.9 0.7-5.9 2.4c2.3-0.1 4.2-0.4 6.2 1.6-3.8-1.4-6.8-1.7-9.8 0.5 7.1-0.4 7.1-0.4 9 1.2-2.1-0.6-3.8-1.2-5.8-0.9-4.7 0.8-9 2.5-13 5.2-4.8 3.3-10 6.1-13.9 10.6-0.7 0.8-1.4 1.4-0.9 2.6-2.2-1-1.9-2.3-0.4-3.7 0.6-0.5 1.2-1.1 1.8-1.7 6.6-5.6 14-10 21.5-14.2 4.9-2.8 9.7-6 15.5-6.7 0.8-0.1 0.8-0.5 0.9-1.1 0-2.9-1.2-3.8-4-2.7-8.4 3.3-16.6 7.4-24.6 11.8-5.4 3-10.3 6.7-14.4 11.4-0.6 0.7-1.3 1.7-2.8 1.9 1.4-3.3 3.7-5.3 6.1-7.2 10.8-8.4 23.2-13.9 35.7-19.2 0.8-0.3 2.4-0.1 2.2-1.4-0.1-1.1-1.4-1.6-2.5-1.8-0.8-0.2-1.6-0.1-2.5-0.2-3.5 0-6.9 0.6-10.4 1.1-13.7 2.2-27.4 4.4-40.7 8.8-1.6-0.3-2.7 0.9-4 1.3-0.4 0.1-1.2 0.2-0.8 1 0.2 0.5 0.7 0.5 1.2 0.4s1-0.3 1.5-0.5c-0.7 0.8-1.1 1.4 0.3 2.2 2 1.1 4 2.4 5.7 4 1.1 1.1 1.8 1.2 2.4 0.5-0.4 3.1 3.3 4.5 3.8 7.8-2.9-3.1-5-6.3-8.7-8 0.3 1.1 1.3 1.4 1.2 2.4-7.9-6.9-13-10.2-16.2-10.6 3.9 3.7 5.9 6.6 6.2 9.1-2.4-3.3-4.5-6.8-8.7-9.1 2.6 3.3 4.6 6.3 7 8.9 2.5 2.7 4.4 5.7 5.6 9.9-11.1-17.4-17.6-22.8-23.3-23 2.3 1.9 2.1 5.2 4.8 6.8-4.4-2.9-7.3-7.8-13.3-9.5 6.7 7.3 12.5 14.5 17.5 22.3 0.6 1 1.1 1.6 0.1 2.6-2.4-4.4-5-8.8-8.3-12.5-1.5-1.6-3.3-3-4.4-4.9-3.2-5.3-7.9-8-13.9-9.5 0.5 1.1 1.6 1.4 1.7 2.6-2-1.4-3.6-2.9-5.7-3.2-0.6 0.8 0.9 0.8 0.3 1.7-1.4-0.9-2.4-2.3-4.4-2 0.9 1 2.3 1.5 3.2 3-3.4-1.8-6.3-3.9-10.3-3.7 2.8 1.9 5.5 3.5 8 5.3 6.2 4.5 11.8 9.6 16.1 16-0.1 0.1-0.2 0.1-0.2 0.2-4.7-5.5-9.6-10.8-15.6-15-6.5-4.7-13.4-8-22.1-6.1 1.1 0.1 1.8 0.2 2.5 0.3 0.6 0.1 1.3 0.1 1.9 1-6.8-1.9-13.2-0.7-19.8 0.7 4.8 1.1 9.1 3 13.1 5.6-8.2-3.8-16.5-6.6-25.7-2.7 2.5 1.3 4.9 2.6 7 4.4-1.7-0.6-3.3-1.4-4.9-2.1-3-1.4-3.1-1.4-5.2-0.6 2.3 1.4 4.8 2.7 6.7 4.6-3.1-1.1-5.7-3.3-9.1-3.9 2.7 1.7 5.3 3.4 7.5 5.7-3.4-1.8-6.8-3.7-10.4-5 3.2 2.5 5.7 5.6 7.5 9.2-0.9-0.6-1.5-1.5-2.3-2.3-4.5-4.6-9.5-8.2-15.8-10.1-15.6-4.8-31.7-6.9-47.7-9.2-5.9-0.8-10.5 1.1-13.3 6.9-2 4.2-4.1 8.4-6.1 12.6-8.2 16.9-9.4 34.4-5 52.5 1 4.1 2.6 8.1 3.6 12.3 0.9 3.7 2.3 7.6 6.1 9.7 0.1 0 0 0.3 0 0.5-0.8 0.5-1-0.6-1.6-0.6-2.6-0.2-3.1-2.4-3.7-4.1-1.7-4.2-3.3-8.6-4.6-12.9-3-9.8-4.5-19.8-4.5-30.5-3 8-3.7 15.7-1.6 23.6-1.3-1.8-1.3-4-2.2-6-0.8 5.5-1.1 11 1.2 16.3-0.8-1.4-1.7-2.8-2.5-4.2 0.7 4.8 2.1 9.2 5.9 12.4-2.4-1.8-4.4-3.9-5.9-6.6 0.2 3 0.8 5.7 0.4 8.6 1.3-0.5 1.9-2.1 3.7-1.7-1.4 1.4-3.2 2.3-2.7 4.5 1.5-0.2 2.6-1.5 4.5-1.1-1.6 0.5-2.7 1.4-3.7 2.4-0.5 0.5-1.3 1.1-0.8 1.8 0.6 1 1.3 0 1.9-0.2 0.8-0.2 1.4-1.1 2.4-0.7-0.7 1-2.3 0.9-2.6 2.3 1 0.9 1.9-0.4 2.9-0.1-2.8 1.8-2.8 1.8-3.1 3 1.7-0.5 3.1-1.6 5.3-1.4-2.3 1.3-4.6 2-5.6 4.8 1.8-0.6 3.3-1.1 4.8-1.4s3-1 4.9-0.4c-8.3 3.3-14.1 6.7-16.4 9.6 5.8-1.6 11-4.7 17.1-4.8-1.3 1.1-2.9 1.3-4.4 1.7-3 0.9-5.5 2.5-7 5.3-1.6 3-3.1 6-5.5 8.6 6.2-1.9 10.1-7.1 15.5-10.1 0.3 1.3-0.9 1.5-1.5 2-2.1 1.5-4 3.2-5.9 5-0.8 0.8-1.8 1.4-1.8 2.9 8.4-6.2 17.4-10.4 27.5-12.1-4.7 2.1-9.5 4.1-14.3 5.9-7.8 2.8-13.5 7.8-17.2 15.2-1 2-1.4 4.2-2.8 5.9-1.3 1.6-0.3 1.8 1.1 1.8 2.3 0 4.4-0.9 6.8-1.7-1.6 1.9-3 3.6-5.6 4.1 1.7 1.1 2.9 0.5 4.1 0.7-1.2 2.4-3.6 4.3-3.2 7.6 7.4-5.3 12-13.1 19-18.4-0.6 0.7-1.1 1.4-1.6 2 0.5 0.8 1.2-0.7 1.7 0.4-2.8 1.5-5.1 3.7-6.6 6.4-2.8 5.1-7.3 8.4-11.4 12.1-1.3 1.1-0.8 1.5 0.1 2.2 1.4 1.2 3.2 1.8 4.4 3.4-2.3 0.7-4.1-0.8-6.8-1.3 7.9 8.8 17.6 11.6 28.7 12.8-5.5 0.6-10.3-0.3-15.1-0.6 6.5 4.9 13.9 4.1 21.1 3.8-3.7 1.3-7.9 1.6-12 1.7 3.5 1.4 7.2 0.8 11.1 1.1-6.2 1.2-12.1 0.8-18.2-1.2 8.5 9.1 18.8 9 29.5 6.7-4.8 2-9.9 2.6-15.1 2.7 4.7 1.4 9.3 0.5 14 0-5.9 1.8-11.9 2-17.9 0.6 8.7 7.6 18.3 6.7 28.3 2.8-5.4 2.9-11.1 4.4-17.3 4.4 5.7 2.3 11-0.1 16.5-1-3.2 1.7-6.8 2.1-10.7 3.2 5 1 9.4 1 13.7-0.7-4.5 3-9.4 3-14.5 2.3 7 2.9 13.8 6.4 21.7 4.3-2.3 2.1-5 1.4-8.3 1.8 5.8 2.2 10.6 1 15.5-1-2.4 1.9-4.9 3.2-8.4 3.9 5.2 2.1 8.9-0.9 13.3-2.6-2.2 2.9-5.4 3-7.7 4.7 2.5 1.3 4.9 0.5 7.2 0.4s4.1-1.7 6.9-2.7c-2.2 2.4-4.6 3.1-6.7 4.3 4.9 0.5 9.4-0.8 13.7-3.2-2.1 2.2-4.8 2.9-8.1 4.2 5.3 0.1 9.5-1.4 13.7-3.1-1.9 2.1-4.7 2.4-6.9 4.3 2.9 0.2 5-1.5 7.5-2-0.7 1.3-2.3 1.1-3.6 2.6 4.9-0.4 8.5-1.9 11.5-4.9 8-8 16.5-15.3 26.2-21.4 4.6-2.9 9.8-4.5 14.1-7.8 0.9-0.7 0.9-0.9 0.6-1.8-0.6-1.5-1.4-2-3.1-1.7-9.9 1.9-19.3 5.1-28.1 10.1-0.9 0.5-1.7 1.4-3 1.1 0.2-0.4 0.3-0.7 0.5-0.8 0.9-0.6 1.8-1.3 2.7-1.8 8.8-5.4 18.5-8.3 28.6-10.1 1.2-0.2 1.6-0.5 1.9-1.7 1.3-6.2 1.8-5.6-4.2-5-0.4 0-0.7 0-1.1 0.1-16.6 0.9-31.6 6.1-44.9 16-1.6 1.2-3.1 2.3-5.1 3.7 0.3-1.9 1.5-2.5 2.3-3.2 12.5-10.5 27-15.9 43.1-17.6 3.2-0.3 6.4-0.4 9.6-0.5 4.4-0.2 3.3-5.1 5.7-7 0.1-0.1 0-0.3 0-0.6-16.2-4.8-32.5-5.1-48.9-0.7 8.7-7.4 52.7-4.7 58 3.3-1.3 0.3-2.3-0.6-3.4-0.9-4.3-1.4-6.4-0.2-7.2 4.3-0.1 0.5-0.4 1.2 0.4 1.4 0.5 0.2 1.1 0.3 1.4-0.5 0.2-0.5 0.4-0.9 0.6-1.4-0.4 1.8 0.2 2.4 2 2.2 1.2-0.1 2.6-0.4 3.5 1-2.3 0.7-5.5-0.9-6.8 1.4-0.7 1.2-1.1 4.2 1.1 5.7-4.5 1-4.5 1-3.6 4.8 1.3-0.5 2.6-1 3.9-1.4 0.5 1.1-0.4 1.1-0.9 1.4-1 0.6-3.1 0.4-1.9 2.7 1.5 2.8 2.8 3.5 5 2.5 1.7-0.8 3-2.2 5.8-2.6-2.6 1.9-4.6 3.3-6.6 4.7 6.7 4.3 12.3 5.2 19.5 3.1 6.3-1.9 11.1-5.9 15.7-10.3 2.7-2.5 4.4-5.4 5.3-8.8 0.6-2.2 0.6-4.2-1.3-6-1.2-1.1-2.2-2.5-2.8-4-0.9-2.2-2.5-3.2-4.6-3.7-2.9-0.7-4.8-2.5-6.3-4.9-0.3-0.5-0.7-0.9 0-1.6 6.9-7.2 20.2-6.8 25.8-3.2 2.1 1.3 3.7 3.2 3.5 5.8-0.2 2.7-2.2 4.1-4.5 5.2-0.9 0.4-1.9 0.6-2.4 1.6-2.3 5-6.6 9.1-7.2 15-0.1 0.8-0.6 1.5-1.1 2.2-0.4 0.7-0.6 1.2-0.2 2 4.7 9.5 11.3 14.2 22.2 9.8 1.3-0.5 2.9-1.1 3.5-2.4 0.2-0.4-1.2-1.6-1.8-2.5-0.1-0.1 0-0.3 0.1-0.8 1.9 0.9 3.7 3.1 5.7 0 1.4-2.1-0.9-2.4-1.2-3.6 1.1-0.6 2.5 1.7 3.3-1 0.8-2.6-1.4-2-2.7-3.3 4.4 0.6 4.4-1.9 3.8-5.1-1.2 3.4-1.2 0.2-1.9 0.1-0.9-0.3-1.9-0.3-3.2-0.5 5.2-2.1 5.2-2.1 3.8-5.6-0.7 0.7 0 1.7-0.7 3.2 0.3-3.7-1.4-4.3-4.2-3.4 0.9-0.8 1.6-1.5 2.5-1.7 2.4-0.6 1.4-1.6 0.5-2.7-2.8-3.4-5.9-6.5-9.2-9.4-4.5-4.1-7.4-8.9-7-15.2 0.5-7.7 3-14.8 7-21.5 5-8.3 15.2-10.6 22.7-2.6 4.3 4.7 9 8.7 16.2 7.9-1.1 0.5-2.2 1-3.8 1.7 1 0.2 1.5 0.3 2.3 0.4-2 0.6-3.9 0.3-5.6 0.4-0.3 0.6 1 0.7 0.4 1.3-1.9-0.4-3-2.2-5-3.2 2.7 4.8 6.7 6.6 11.5 7.2-4.4 0.4-8.3-1.1-12-2.8 1.5 7.3 0.5 14.1-3 20.5-3.8 6.9-9.9 10.1-18.3 9.8 2.4 2.3 4.3 4.1 5.6 6.4 0.6 1.1 1.4 0.8 2.4 0.6 12-2.9 24.2-4 36.6-1.2-0.4-2-1.8-3.6-1.9-5.8 1.7 2.2 1.8 5.2 4.9 6.7-0.9-5.1-3.2-9.1-6.3-13.2 3.4 2 3.9 5.6 6.1 8.6-1.3-5.4-3.5-9.7-8.1-13.1 2.1 0.3 2.9 1.5 4.2 1.9-2.7-2.7-5-5.7-8-7.9 10.1 3.7 12.2 12.5 13.8 22 1.2-6.8-1-12.6-3.3-18.5 2 2.8 3.9 5.4 8.2 5.4-3.3-2.8-4.7-6.4-5.5-10-0.6-2.6-2.9-4.6-2.1-7.8 0.5-2-1.9-4.1-3-6.3 1.1-0.2 1.2 1.1 2.3 0.9-1.3-2.4-2.6-4.7-4.1-7.4 1.6 0.9 1.9 2.3 2.9 3.1-2.1-5.2-2.4-11.3-7.6-15 1.6 0.2 2.3 1.6 4 2.5-1.4-3.4-3.3-5.8-5.8-8.1 1.8 0.1 2.6 1.3 3.9 1.7-3.4-3.2-4.1-8.4-9-10.3 3.3 0.2 5 2.8 7.5 4.8-1.5-6.9-4.5-12.9-6.6-19.1-0.5-1.4-0.9-2.8-1.4-4.1-2-4.6-4.3-9.2-10.2-10.8 2.3-0.6 3.5 1.3 5.4 0.9-1.9-1.9-3.9-3.4-6.4-4.5 2-0.9 3 1.1 4.7 1.1-2.7-3.5-6.1-5.8-10.1-7.4 1.7-0.8 2.8 0.5 4 0.3-4.4-4.9-6-4.8-9.5 0.4-1 1.4-1.8 3-2.5 4.6-2.7 5.8-4.7 11.9-6 18.2-1 4.5-1.9 9.1-2.8 13.7h-0.7c-1-13.8 0.8-27.6 0.4-41.4 1.6 10.5 0.6 21 0.9 31.5 2.4-11.8 5.1-23.3 13.9-32.4-1.2-1.3-2.9-2.1-3.8-3.8 0-1.5 0.7 0.3 1.4-0.3zm-143.5 313.8c1.9-2.3 4.5-4.1 5.9-7.1-3.1 0.8-6 3.6-6.5 6.1-0.2 0.7 0.2 0.9 0.6 1-0.7 0.3-1.3 1-2.5 0.9 0.9-1.6 1.7-2.9 2.4-4.4 0.3-0.6 1.2-1.2 0.4-1.9-0.5-0.5-1.2 0-1.8 0.3-2 0.7-3.9 1.6-6 1.9-5 0.7-9.8 1.8-14.4 3.9-3.8 1.7-7.5 3.4-12 3.5 3.8-1.5 7.4-3 10.7-5-4.3-0.5-7.3 2.7-11.1 3.9-3.4 1.1-5.5 1.5-11.7 1.3 3.7-2 7.3-4 11-6-3.9-0.8-7.6-3.5-11.4 0.4 0.5-1.5 1.9-1.7 1.9-2.8-3-1.6-4.1 1.6-6.1 2.7 0.2-1.4 1.7-1.8 1.6-3.1-1.5-0.1-2.9-0.2-4.4-0.4-5-0.5-8.7-3.6-12.5-6.5-8-6.2-13.7-13.9-15.2-24.2-0.4-2.9-0.5-5.8-1.3-8.7-3.8-13.8-2-26.4 8.1-37.2 0.6-0.7 1.3-1.3 2-1.9s1.2-1.5 2.8-1.6c-11.1 9.6-13.2 21.8-11.4 35.3 0.6-2.4 1.2-4.8 2-7.7 0.5 5.6-0.8 10.6 0 15.6 0.3-1.8 0.6-3.5 1.1-6 0.8 8.1-1.4 15.8 2.6 22.7-0.5-2.9-0.2-5.8 0.7-9.4 0.1 7.2 2.8 12.9 6.1 18.5-0.4-1.7-0.7-3.4-1.1-5.2 1.7 2 2.7 4.3 5 6.1-0.2-2.6-1.8-4.6-1.6-7.1 3.9 9 6.7 12.8 10.6 14.4-2.6-2.9-5-5.8-6.3-10.1 8.2 9.2 8.4 9.4 13.6 10.4-2.4-2-5.2-3.3-6.9-6.1 1.4 0.3 1.8 1.9 3.4 1.7-1.2-1.7-2.4-3.1-2.6-5.2 4.9 9 13.6 10.8 23 12.4-1.8-0.8-3.1-1.4-4.5-2 2.7 0.5 5.3 1.4 8 1.8s5.5 0.5 8.2 0.7c-1.9-1.8-4.1-2.5-5.7-4.4 7.9 3.7 10 4.1 13.6 2.5-1.6-0.6-3-1-4.4-1.6-1.3-0.6-2.7-1.2-3.9-2s-2.3-1.7-3.5-2.6c13.1 5.8 13.1 5.8 15.5 4.6-6.9-1.6-13.9-6.1-15.9-10.1 9.2 8.9 18 11.1 23.6 8.5-10.5-0.2-17.7-6.4-20.5-13.7 8 9.9 12 12.4 19.5 12.5-1.8-1.6-4.4-1.7-6.1-3.4 5.7 2.8 11.5 5 17.7 2.1-0.9-2.6-3.1-3-5.7-2.8 2.5-0.2 3.1-1.3 2-3.3-2-3.9-4.8-7.4-5-12.2-0.1-1.9-0.1-3.9-0.3-5.9 1.1 2.7 2.2 5.5 3.4 8.7 0-1 0-1.4 0.1-1.9 0-0.4 0.1-0.7 0.3-1.8 2.3 9.5 7.2 16.3 14.4 21.9 6.8 5.2 17 2.7 19.7-6 3.5-10.9 1.7-21.1-4-30.9-0.7-1.2-1.5-2.3-2.3-3.5 4.2 3.4 6.6 7.9 8 12.9 2.8 10 3.2 19.8-3.6 28.6-1.3 1.7 0.2 2.1 1 2.7 7.3 5.3 20.2 3.8 26.4-2.8 3.1-3.3 4.2-7.5 5.4-11.6 1.6-5.5 1.5-11.2 1-16.9 2.1 8.7 3.2 17.3-1.4 25.7 0.7-0.2 1.1-0.4 1.4-0.7 5.4-3.2 7.8-8.9 10.7-14 2-3.6 3.2-7.6 3.1-11.8-0.1-8.2-3.9-14.7-9.4-20.5-0.5-0.5-0.9-1.1-1.4-1.6 5.9 3.9 9.7 9.3 12.5 15.6 0.5-5.3 0-10.5-2.1-15.4-4.3-10.2-12.2-16.9-21.3-22.6-10-6.3-21.5-9.2-32.1-14.2-4.7-2.2-10.1-2.4-15.1-3.8-0.1 0-0.3 0.1-0.4 0.2 0.2 0.5 1 0.6 0.8 1.4-1.7-0.4-3.5-0.6-5.4-2.1 4.4-0.1 8.1-0.5 12.5 0.5-4.7-3.1-9.8-3.5-14.2-5.9-0.4-0.2-1-0.3-0.6 0.5 0.2 0.3 0.6 1-0.2 0.7-2.1-0.9-4.6-0.7-6.4-3.2 4.9 0 9.4 0.4 13.9 1.5-3.9-3.3-8.8-4.6-13.4-6.2-5.1-1.8-8.5-5.5-12.1-9 4.2 2.6 7.9 6 13 7.5-3.3-3.8-2.3-7.4-0.1-11 0.3-0.4 1-1.1 0-1.5-3.6-1.5-6.3-4.7-9.9-5.8-6.3-1.9-10.7-5.3-12.7-11.7-0.5-1.7-1.7-2.5-3.5-3-3.7-0.9-7.3-1.7-10.8-3.2-4.2-1.9-8.7-3.2-13.1-5.8 1.9-0.2 3 1.2 4.8 1.1-6-3.6-11.7-6.7-17.6-9.5 1.5 0.5 3 1 4.5 1.5 0.1-0.1 0.1-0.2 0.2-0.3-4.1-2.9-8.2-5.7-12.7-8.9 1.8 0.1 2.5 1.4 3.8 1.3-1.9-1.7-4.4-3.1-5.4-5.1-2.3-4.6-6.9-4.4-9.7-0.3 2.5-0.2 4.6-2 7.2-1.2-5.1 1.1-12.3 6.3-16.8 12.2 3.1-0.8 5.7-1.4 8.3-2.1s5.2-2 8.2-1.3c-10.9 2.3-15 12.3-22.6 19 4.3 0 6.4-3.7 10.4-3.8-0.8 0.7-1.1 1.1-1.6 1.4-4.1 3.2-7.6 6.9-10.3 11.3-0.4 0.7-1.8 1.5-0.9 2.2 1 0.8 1.3-0.8 1.8-1.4 1.2-1.1 2.3-2.4 3.4-3.6-4.7 8.1-5.4 12.8-5.5 18.7 2.6-3.7 5-7.5 7.8-11 3.9-4.8 7.7-7.6 9.7-8-7.3 7-14.9 14.3-18.6 24.7-1.5-5.8 0.3-11.3 0.9-16.8-1.9 2.3-3.3 4.9-4.7 7.9 0.2-3.9 2.9-6.4 3.9-9.6-0.2-0.1-0.4-0.3-0.6-0.4-1 1-1.9 2-2.9 3 3.8-3.4 3.8-9.2 8.2-12.5-7.2 3.1-13.3 8.5-21.7 8 2.7 1.8 5.8 1.8 9.3 2.9-6.9 1.3-13.5 0.5-19.5 3-5.9 2.4-11.7 4.9-18.2 7.5 4.7 0.1 8.5-1 13-1.6-2.8 1.8-5.8 1.7-8.3 3.2 1.3 0.9 2.2-0.7 3.5 0.3-13.9 3.1-26.5 8.9-39.4 15.8h7.3c0 0.3 0.1 0.5 0.1 0.8-6.7 0.5-13 3.2-20.3 4.2 4.5-6.1 11.3-7.4 17.1-10.8-10.1-2.3-15.1-9.7-19.6-17.7 0.3 1.9 0.6 3.7 1 6.2-5-5.8-5.6-12.6-8.6-19.3 0.2 5.5 1.9 9.9 2.8 14.5-2-4.7-4.2-9.3-5.5-14.2s-1.1-10-0.6-15 1.5-9.9 2.5-14.8c-1.2 1.5-1.7 3.2-2.3 5 0.7-9.4 6.8-16.7 9.9-25.2-0.8 1.4-1.6 2.7-2.4 4.1 1.9-9.9 10.3-17.2 10.9-27.6-1.3 2.1-1.3 5-3.5 6.4-2.1 1.3-3 3.9-5.7 4.9 8.3-13.2 10.7-18.6 10.1-23.1-2.9 10-6.9 17-12.2 20.5 1.2-1.4 2-2.2 2.7-3.1 0.8-0.9 1.5-1.8 2.2-2.8 7.5-10.8 8.1-22.6 5.4-35 0-0.1-0.2-0.2-0.3-0.3-0.7 0.4-0.1 1.4-1.1 1.8 0-3.5-0.8-6.7-2.2-10.5-0.5 2 0.3 3.5-0.4 4.9-1.5-8.9-2.3-10.7-5.7-13.2 1 2.5 2.8 4.6 2.5 8-3.1-8.2-7.4-14.6-16.4-15.6-9.1-1-14.9 3.6-18.1 12.3-0.8-1.9 0.6-3.1 0.2-4.6-10.1 13.2-11.3 28.7-12.8 44.2-0.1-2.4-0.2-4.8-0.3-7.6-1.8 3.4-2.7 6.8-3 10.3-0.1-1.4-0.3-2.8-0.4-4.2-2.3 5.8-5 11.4-6.1 17.9-1.2-2.8-0.4-5.4-1-8.3-4.1 8.7-5.9 31-3.8 45.3-2.9-5.5-2.8-11.1-3.5-16.6-0.4 5-0.7 10-0.4 15-1.6-5.7 0-11.4-0.6-17.9-2.5 9.9-2.4 19.1-0.9 29-1.9-3-2.3-6-3.8-8.4 1.3 19.6 4.6 38.5 18.5 53.8-9-6.7-10.6-18.8-18.8-26.9 3.2 11.4 8.5 20.8 17.5 28.9-3.1-1.3-4.9-3-6.4-5.1s-3-4.1-4.5-6.2c2.2 8.3 7.7 13.2 16 15.3-6.7-0.5-12.3-3.1-16.6-8.4 3.8 7.8 8.2 15 15.5 20.1-4.2-1.9-8.7-3.1-12.5-5.8 8.8 12.3 18.5 23.1 35.4 20.7-1.3-2.1-4-3.3-6.5-4.6 5.8 0.1 8.5 5.8 13.4 7.6-9.5-3.4-20-1.1-29.4-5.2 5.9 7 14 9.5 22.8 10.7-4.3 1.4-8.6 1.2-13 0.4 4 3.2 8.8 4.2 14 4.2-2 1.8-4.3 0.5-6.3 1.3 3.3 2.8 5.7 2.7 8.7 0.2 2.4-2 3.3-5.2 5.7-7 0.3-0.2 0.3-0.8 0.5-1.3 0.6-1.1 1.8-1.5 2.6-2.4 2.5-1.8 4.9-3.7 8.2-3.9-3 1.9-6.5 3.2-8.8 6.1 3.3-1.3 6.2-3.4 10.3-3.5-4.6 2-8.5 4.4-11.8 7.9 3.2-1.1 6.4-2.3 9.9-2-6.1 1.5-10.9 5.3-15.6 9.3 1.6-0.7 3.1-1.4 4.7-2.1-4.6 3.7-9.9 6.3-13.2 11.4 4-3.1 8.5-4.8 13.2-6.3-3.7 2.3-7.9 3.7-11.2 6.6-4.2 3.7-7.5 7.8-7.9 10.3 1.9-3.4 5.5-2.5 8.3-3.6-6.2 3.1-10.7 7.8-13.8 14.8 4.7-3.3 8.7-6.5 13.5-8.3-4.9 4.2-10.4 7.8-13.9 13.5 2.3-1.3 4.5-2.9 7.9-3.2-4.9 2.5-7.5 6.4-10.2 10.1 2.9-1.8 5.5-4.1 7.1-4.9-3.3 3.9-7.6 8.8-11.5 13.4 3.6-0.5 6.4-4 10.2-5.9-4.9 4.3-9.4 8.9-13.8 13.8 1.6-1.1 3.1-2.2 4.7-3.3 0.2 0.2 0.4 0.5 0.6 0.7l-2.7 2.1 0.3 0.3c0.7-0.3 1.3-0.6 2.5-1.1-3.1 3.6-6.8 5.4-10.1 7.9 2.1-0.7 4.2-1.4 6.3-2.1-4.7 6.1-4.2 13.1-4.4 20.1-0.1-1.6-0.2-3.3-0.3-4.9-0.3 7.2-1.5 14.5 3.6 21.1-1-0.7-1.7-1.2-2.3-1.7 1.6 3.3 1 7.8 5.4 9.3-1.1-0.3-2.1-0.7-3.4-1.1 0.9 2.6 3.3 3.2 5 4.8-1.6 0-2.4-1.2-3.9-1.4 0.9 2.2 3 2.8 4.9 4.5-3.3-0.6-5.2-1.8-5.9-4.6-0.7-2.7-1.9-5.4-2.5-8.1-1.7-7.5-2.9-15.1-1.9-22.8 0.5-4 1.6-7.8 2.7-12.1-3.5 1.8-6 3.8-7.7 6.9-2.6 5-4.8 10.1-6.1 15.6-2.5 10.3-2.5 20.9-3.4 31.4-0.7 8.4-1.8 16.7-2.9 25-0.9 6.9-2.5 13.9-4.6 20.7-1.5 4.9-2.2 10-2 15.2 0.2 5.5 2.2 10.2 6.3 13.9 1.4 1.2 2.2 1.4 3-0.7 2.3-6.2 5.8-11.9 8-18.6 0.5 1.5-0.1 2.4-0.4 3.4-1.3 4.5-3.3 8.7-5 13.1-1.2 3-1.9 6-0.1 9 2 3.2 4.5 5.8 7.9 7.5 5.8 2.9 10.4 1.7 14-3.7 1.7-2.4 2.8-5.1 3.8-7.9 1.5-4.3 2-8.8 3.1-13.2-0.4 9.4-1.7 18.5-8.4 26 4.7 1.4 9 1.2 13.1-1.2 6.5-3.8 9.3-10.2 10.9-17.1 0.6-2.5 0.9-5 1.4-8.3 0.5 4.3 0 7.7-0.7 11.2s-2.2 6.7-4.3 10.2c3.3-1.4 5.3-3.4 6.9-5.8 5-7.6 6.5-16.2 7.2-25s0.2-17.8 2.3-26.5c0.1-0.4 0.7-1.1-0.1-1.4-0.5-0.2-1.2-0.2-1.8 0.4-0.5 0.6-0.5 1.3-0.7 1.9-1.1-0.7 1.1-2.1-0.5-2.7-2.2-0.9-2.9 1.7-4.9 2.3 0.8-1.1 1.4-2 1.9-2.8-1.5-1.2-2.3 0.5-3.2 0.8-0.9-0.7 0.6-1.2-0.2-1.8-1.3 0.4-2.5 0.8-4 1.3 0.4-1 1.7-1.1 1.2-2.6-1.8 1.3-3.9 0.6-6 1.2 0.9-1.2 2.1-1.4 3.6-1.9-2.5-1.5-4.8 0.7-7.3-0.4 1.1-0.4 2.1-0.7 3.2-1.1-3.3-1.4-7.8-4.9-9.2-7.6 9.2 7.6 19 8.3 29.4 5.8-3 1.6-6.2 1.7-9.3 2.3 10.3 3.6 19.6 0.2 28.8-4.1-3.8 3.2-8.5 4.9-13.9 6.4 3.6 0.2 6.2-0.1 8.9-0.8 3.7-1 6.7-3.4 10.2-4.6l-0.1-0.1c0 1.2-1.1 1.3-1.8 1.7l-7.5 4.2c7.5 0.1 11.8-6 17.4-9.5-3 3.6-6.7 6.1-10.2 9.1 9-3 14.3-10.1 19.6-17.3-3.6 7-8.6 12.6-15.3 17 2.5 0.7 3.7-1.8 5.8-1.6l-0.1-0.1c-0.3 0.3-0.9 0.6-0.9 0.9 0 0.7 0.7 0.6 1 0.4 3.1-1.8 6.9-1.8 9.9-3.9 1.9-1.3 3.1-3.3 4.7-4.9 0.4 2.2 1.2 0.7 1.9 0.2-2 1.9-4.1 3.8-6.6 6.2 9.7-3.6 16.6-9.3 20.4-19 0.5 3.8-1.5 6-2.9 8.3-1.5 2.4-3.4 4.4-5.7 6.6 10.3-3 20.7-15.1 20.7-23.9-4.5 2.6-9.3 3.9-14.2 4.7-0.1-0.2-0.1-0.4-0.2-0.6 2.8-1.3 5.5-2.7 8.2-4 0.2 0.8-1 0.6-0.8 1.4 7.7-1.7 12.4-8.5 19.6-11.1-7.1 4.2-11.9 10.1-14.4 18-1.5 4.9-5.1 8.5-8.3 12.5 1.1-0.4 1.9-0.9 2.8-1.5 5.4-3.7 9.2-8.8 12.4-14.5 4.1-7.3 13.3-13.1 21.9-14-2.8 1.8-5.9 2.9-9 4.1-5 1.9-8.8 5.1-11.4 9.8-1.9 3.4-3.8 6.7-5.8 10-0.8 1.3-0.3 1.6 0.9 1.7 3 0.1 5.6-0.9 8-2.5 2.4-1.5 4.3-3.6 6.5-5.3-3.1 3.9-6.3 7.7-11.2 9.4 4.9 0.9 9.2-0.7 13.5-2.8-2.9 2.2-6 3.9-10.4 4.3 8.1 1.4 14-1.6 19.2-6.5-2.5 3.4-5.5 6.1-9.3 7.9 5.3 0.7 10.5 0.5 15.3-2.2-1.1 1.7-2.8 2.5-4.3 3.6 4.3-0.1 6.8-3.6 10.5-5.7-1.5 2.7-4 3.8-6.4 5.9 5.5 0 9.6-2.3 13.4-5.1-1.6 2.6-4.2 3.9-6.5 5.6 6.3 0 11-3 14.7-7.8-0.8 3-3.1 4.9-5.6 6.9 2.3 0 3.7-1 5.3-1.7 3.9-1.6 6.8-4.8 10.1-7.3-2.6 3.6-6 6.3-9.7 8.7 8.9-1.7 11-10.1 15.9-15.8-2.1 5.1-4.6 9.9-8.3 14.1 12-3 15.3-13.3 19.8-22.8-0.5 3.6-2.2 6.8-3.2 10.3 4.7-4.8 10.5-8.3 14.9-13.4-7.9 8.4-15.8 16.7-23.5 25.8 9-3 16.6-7.4 22.3-15-0.7 3.1-3.5 4.7-5 7.6 3.5-1 6.1-2.7 9-4.6-0.2 1.8-2 1.9-2.4 3.4 7.7-1.8 13-6.6 17.1-12.9-0.7 3.5-3.5 5.8-5.5 8.8 9.2-3.9 17.1-8.7 19.9-19-0.4 4.9-1 9.6-2.3 14.3 0.7-2.4 2.8-0.5 4.1-1.7 2.6-2.4 5-4.8 6.7-8 0.4-0.7 0.5-1.6 1.7-2.1-0.9 2.9-1.8 5.5-2.7 8.5 6.2-2.9 11.2-6.4 12.8-13.9 0.5 3.3-0.7 5.8-1.3 9.1 4.2-4 7-8 8-13.5 0.6 3.4-0.7 6.1-1.2 9.5 5-5 9.2-9.8 11.7-15.9-0.1 2.9-1.5 5.5-2.5 8.8 4.4-4.2 6.8-8.8 7.2-14.4 0.8 0.8 0 2 1.1 2.6 3.5-6.1 1.7-12-0.4-17.9 0.3 4.6-2.2 7.8-5.6 10.2-2.3 1.6-4.1 3.3-5.4 6.2-0.3-1.5 0.3-2.2 0.7-3.1 1.3-3.3 1.5-6.6 0.5-9.9-0.8-2.5-1.7-5-2.5-7.5 3 4.3 4.3 9.1 4.6 14.4 3.4-4.3 0.2-13.1-2.3-15.2-0.9-0.8-2.2-1.2-2.2 0.9-0.7-0.5-1.5-0.8-2.4-0.8-2.5-0.1-5-0.5-7.3-1.5-2-1.4-4-2.8-6.2-4.4 1.3 6.1-0.1 11.6-2.5 17.3 4.1-2.7 6.5-5.9 7.5-10.1 0.2-1 0.2-2.2 1.3-2.9-0.1 0.5-0.2 1.1-0.2 1.6-0.4 6.4-5 12.2-11.5 14 0.4-0.5 0.7-1 1-1.4 3-5.1 4.3-10.6 3.3-16.5-0.3-1.9-1.1-2.5-3.2-1.9-2.2 0.6-3.3 2.2-4.6 3.7-1.8 1.9-3.3 3.8-5.7 4.5zm63.5-163-0.3-0.3c1-1.2 1.9-2.5 2.9-3.7 0.3-0.4 1-0.7 0.7-1.3-0.3-0.7-1.1-0.4-1.7-0.6s-0.9 1.1-1.9 0.7c1-1.2 1.1-2.4 0.5-3.8-0.6-1.3-1.2-1.4-2.3-0.7-4.3 2.7-9 4.4-13.3 7.1-11.4 7.1-21.1 16.2-30.9 25.9 6-0.4 10.3-3.4 14.5-6.9-2.6 3.6-6.3 5.9-10.2 7.7 5.4-0.7 10.6-1.7 14.9-5.3-2.7 3.6-7 4.3-10.6 6.2 4 0 7.7-1.2 11.2-2.9-1.9 2.1-4.5 2.7-7.5 4.1 5.8 0.7 10.4-0.4 14.3-5-1.2 3.7-4.1 4.7-6.4 6.4 4.4 0.8 7.5-1.1 11.7-6.8 0.5 7.3 3.4 10.2 9.9 9.8-5.7-2.8-7.1-4.3-7.1-8.1 3 7.8 10.2 5.9 15.8 7.6-3.1-2.2-6.6-4-8.1-7.9 3.5 4.5 8.5 6.4 14.4 8.3-1.7-1.9-3.5-2.7-4.3-4.5 3.2 2.3 6.6 3.9 10.4 5.4-0.2-1.6-1.8-2-1.9-3.8 5.4 4.6 11.2 2 16.6 1.4 6-0.7 10.7-4.2 13.9-9.5-0.9 3.3-3.1 5.6-5.7 7.8 5.3-1.4 9.7-4.3 13.7-8.3-0.4 2-2 2.9-2.8 4.8 4.6-1.4 7.7-4.2 10.2-7.7-0.1 2.7-1.9 4.3-3.9 6.3 4.2-1.2 6-4.4 8.5-7.4-0.1 2.9-2.3 4.2-3.4 6.3 5-1.1 9.4-2.8 11.3-8 0.1 2-1.4 3.3-2 5.5 1.8-1.7 4.4-1.7 4.1-4.7 0.6 0.8-0.1 1.6 0.6 1.9 2.8-1 3.7-3.3 4.2-5.9v3c1.2-0.3 1.7-0.9 1.7-1.9 0-0.3 0.1-0.5 0.1-0.8 0.1 0.1 0.2 0.2 0.3 0.2 1.5 0.5 1.7 0.4 1.7-1.1 0-0.8-0.2-1.5-0.3-2.5 1 0.9 1 2.2 2.1 2.8 0.5-3-5.6-10.9-11.6-15.1-0.1-0.1-0.3 0.1-0.5 0.1 0.3 0.7 0.6 1.4 1.1 2.6-2-2-2-2-3.1 0.3-0.3 0.6-0.5 0.2-0.8 0.1-0.7-0.5-1.6-1.7-1.3 0.5 0 0.3-0.1 0.6-0.4 0.5-2.1-1.6-3.5 0.7-5.2 1.1-7.1 1.4-12.5-0.6-16.7-6.3-2.6-3.5-5.3-3.8-8.6-1-5.1 4.4-11 7.4-17.7 8.1-4.6 0.4-9.2-0.3-13.2-2.8-2.4-1.5-4.3-1.6-6 0.8-0.6 0.5-1.2 0.9-1.6 1.3zm113-18.6c1-3.5-0.4-6.6-1.2-9.7-0.8-3.3-2-4.1-5.4-4.3-8.4-0.4-16.6 0.6-24.8 2.3-3.9 0.8-3.8 0.8-2.8 4.7 0.4 1.9 1.3 2.5 3.2 2.4 1.7-0.2 3.5-0.1 5.2 0 6.8 0.5 13.8 0.5 20.2 3.2 1.9 0.8 1.7-0.1 1.7-1.3 0.9 0.3 0.4 1.6 1.6 1.6 0-3.1-1.4-5.9-2.4-8.7 2.6 2.7 3.3 6.4 4.7 9.8zm-5.9 12.6c1.1-2.6 1.8-4.7 1.9-6.9 0.2-4.5-0.3-5.2-4.7-6.6-7.4-2.3-15-2.1-22.6-2.5-0.7 0-1.6-0.1-1.9 1-1 3.4-0.6 4.1 2.8 5.1 0.6 0.2 1.2 0.3 1.9 0.5 7.4 1.9 14 5.5 20.6 9.2 0.4-0.6 0.9-1.4 1.5-2.3 0.2 0.8 0.3 1.4 0.5 2.5zm-60.9-39.9c-5.2 0-9.1 0.9-11.7 3-1 0.8-2.9 1.5-1.5 3.4 1.5 2.1 3.6 2.9 5.2 1.7 1.3-1.1 2.6-1.3 4-0.3 1.2 0.9 1.7 1.9 1.1 3.5-0.8 2.1 1.9 6.2 4 6.8 2 0.5 3.9-1.4 4.7-4.4 0.3-1.2 0.6-2.5 1.1-3.7 0.7-1.5 2.3-2.4 3.5-1.2 1.3 1.3 1.5 0.2 1.9-0.4 1.3-1.8 0.8-4-1.5-5.7-3.3-2.3-7-2.8-10.8-2.7zm-77.2 109.9c-3-4-6.2-7.5-9.3-11.1 4.9 3.9 8.5 9.3 13.6 13.1 0.3-0.7 0-1.1-0.2-1.5-3.5-6.3-8.9-10.8-13.9-15.8-4.4-4.4-10.7-5.9-15.3-10.1-0.5-0.5-1.1-0.5-1.7 0.1-1.7 1.8-2.6 4-2.3 6.5 0.3 2.3 2.3 4.4 4.6 5-0.7-1.6-2.5-2.5-2.7-4.9 3.2 4.6 7.7 7 11.8 9.9-1.1-1.6-2.6-2.9-3.9-4.3-1.2-1.3-2.4-2.7-3.5-4.1l0.5-0.5c6.7 6.8 13.7 13.2 22.3 17.7zm131.3-65.3c2.5-3.4 2.5-4.1-0.6-6-5.9-3.6-12.5-5.6-19.1-7.6-1.6-0.5-1.7 0.7-2.1 1.7-0.5 1-0.7 1.6 0.6 2.4 5.5 3.5 10.7 7.4 15.2 12.2 0.2 0.3 0.4 0.9 1 0.5 2.1-1.2 4.6-2 4.4-5.2 0-0.5-0.3-1.1 0.5-1.5 0 1 0 2 0.1 3.5zm-11.5-68.9c0.1 3.4 0.9 6.9 0.5 10.3-0.9-1.8-0.5-3.9-1.8-5.9-1.5 12.2-4.7 22.8-19.7 23.3 1 1.2 2.4 2 4.1 2.3 5.1 0.8 9.3-1.1 12.6-4.7 6.7-7.5 7.6-16.1 4.3-25.3zm2.4 76.4c1.1-1.5 3.6-2 1.6-4.1-4.3-4.6-9.3-8.3-14.6-11.5-0.9-0.5-1.6-0.8-2.2 0.4-0.5 1-1.7 1.8-0.3 3 4.6 4.1 8.8 8.7 12.1 14 0.8-0.9 0.1-2.1 0.9-2.7 0.9 0.1 0.1 1.6 1.4 1.4 0.8-1.6-0.8-3.2-0.1-5.2 0.4 1.7 0.7 2.9 1.2 4.7zm14.8-122.8c3.3-8.5 6.3-17 8.3-25.7 2.4-10.1 3.4-20.4 3.2-30.8-0.1-3.5-0.3-3.5-3.6-2-0.1 0.1-0.2 0.3-0.4 0.7 2.7 0.8 2.6 3.1 2.7 5.3 0.2 4.1-0.2 8.2-0.9 12.3-1.8 11.8-5.3 23.1-10 34.1-0.9 2.1-1 4 0.7 6.1zm-41.8 140c3.9 4.7 5.6 10.1 7.1 15.8 0.9 3.5 2.7 7.1 6.4 9.5-2.5-6.8-0.4-14.1-4.9-20 1-0.6 1.3 0.7 2.1 0.2-0.6-2.7-2.9-4.9-2.2-8.2-1.7 1.6-3.9 0.8-5.6 2.1 4.7 3.7 7 8.3 5.9 14.7-1-6.1-2.3-11.8-8.8-14.1zm-83.8 142c2.2 7 4.6 14.4 2.9 22.6 0.6-0.5 0.8-0.5 0.9-0.7 0.5-0.7 1-1.3 1.4-2 3.3-5.7 5.2-11.7 4-18.3-0.2-0.9 0-2.2-1.3-1.9s-0.3 1.4-0.1 2c0.8 3.3 0.9 3.3 0.4 5.6-0.7-5-1.8-9-8.2-7.3zm124.8-309.5c-3.5-6.8-13.6-7.7-21.1-2 2.1 0.6 3.4 2.6 5.8 2.2 5-1 10-1 15.3-0.2zm-200.2 386.6c2.1-1.9 4.1-3.6 5.2-6.2 1.1-2.4 1.6-5.1 2.8-7.5-0.5 3-1.1 6-1.7 9.2 3.8-4.7 5.1-10 6-15.7-2.5 0.9-2.8 3.1-3.6 5.1-0.6-1.4 0.7-2.5-0.2-4-0.6 2.1-3.3 1-3.7 3.1-1.1 5.5-1.4 11.2-4.8 16zm148.1-217.1c4.1 1.6 6.9 4.6 9.3 8.1s3.9 7.3 4.9 11.4c1.4-2.7 2-5.3 0.4-8.1-3.3-5.8-6.2-12.1-14.6-11.4zm-157.3 222c2.7-1.6 4.9-3.6 6.1-6.5 1.7-4 2.8-8.1 3.6-12.3 0.2-0.8 0.7-1.8-0.3-2.1-0.9-0.3-1.8 0.2-2.2 1.2-0.3 0.7-0.7 1.3-0.9 2-1.9 5.9-3.3 12-6.3 17.7zm176.5-320.6c-0.1-1.6-1-2.9-2.7-3.6-1.6-0.6-2.4 0.6-3.2 1.5-1.1 1.3-2 2.6-2.6 4.2-0.4 1.1-0.9 2.2 0.2 3.3s2.4 1.4 3.8 0.9c2.5-0.7 4.5-3.6 4.5-6.3zm-140.9 286.4c-4.5 3.3-8.8 7.1-8.3 13.8 0.1 1.1-0.7 2.2-1.2 3.5 3.3-2.9 8.1-11.6 9.5-17.3zm44.5-47.4c-0.6-3.4-2.7-5-5.6-5.9 2.7 4 3.5 8.5 4.5 13v-6.9c0.5 1.7 0.2 3.5 1 5.9 0.9-3.4 2.7-6 0.9-9.2-1 1.1-0.1 1.9-0.8 3.1zm-73.7 78c4.6-4.9 5.7-10.5 6.5-16.2 0.1-0.6 0.9-1.5-0.2-1.9-1-0.4-1.5 0.5-1.7 1.3-0.6 2.2-1.3 4.4-1.7 6.6-0.5 3.4-1.9 6.5-2.9 10.2zm25.3-215.1c-1.5-3-2.6-5.4-3.8-7.8-0.5-1.1-1.1-2.1-2.5-2.3-0.6-0.1-1.3-0.8-1.7-0.1-0.2 0.3-0.1 1.1 0.1 1.6 1.2 3.8 4 6.3 7.9 8.6zm131.1-4.3c5.3 3.2 7.8 7.7 10.2 12.3-1-8-4.8-12.9-10.2-12.3zm-144.7 212.5c4.3-4.5 5.6-10.1 6.5-16-4.4 4.5-3 11.3-6.5 16zm-19.5-70.3c4.9-0.5 9.3-2.2 13.3-5-5.3-0.7-9 2.8-13.3 5zm219.7-185.1c1-3.6 1.1-6.5 0.9-9.3-0.1-2.2-0.7-3.9-3.6-3.7 0.7 2.1 1.4 4 2 6 0.6 2.1 0.7 4.2 0.7 7zm-119.8 191.6c1.4-2.6 1.7-5.3 0.6-8-0.2-0.6-0.7-1.2-1.4-1-0.9 0.2-0.6 1-0.5 1.6 0.5 2.4 1.1 4.9 1.3 7.4zm4.6-191.1c3.5-0.3 3.7-0.7 3.4-4.7 0-0.5 0.1-1.1-0.7-1.2-0.6 0-1.2 0.1-1.3 0.7-0.4 1.7-1.5 3.2-1.4 5.2zm-74.4 37.8c0.7 3.5 2.8 6.7 5.7 8.6-1.9-3.2-3-6.4-5.7-8.6zm68.6 52.8c-2.6-2.7-5.1-5.3-8.4-7 2.3 3 4.7 5.8 8.4 7zm-69.9 146.1c-2.3 3.7-2.3 7.2-2.8 10.6 1.8-3.1 2.5-6.4 2.8-10.6zm68.1-46.8h0.7c0.1-2.5 0.3-4.9-1.9-7 0.4 2.3 0.8 4.6 1.2 7zm24.7-15.1c-1.3-1.7-2.4-3.2-4.1-4 0.3 2.4 1.5 3.6 4.1 4zm1.7-1.4c-1-1.6-2.1-3.1-3.1-4.7-0.6 2.5 1 3.8 3.1 4.7zm-155.2-176.4c-0.7 2.1-2.6 3-3.8 5.2 5.1-2.7 5.4-3.1 3.8-5.2zm115.1 88.1c-1.4-2-2.7-4-4.1-6 0.6 2.6 1.7 4.7 4.1 6zm43 87.7c-1.6-1.5-2.9-3.4-5.3-4.9 2.9 4.4 2.9 4.4 5.3 4.9z"/> <path d="m132 334c-1.9 1.2-3.8 2.3-5.8 3.5l-0.2-0.6c4.1-2.4 6.2-6.6 8.5-10.5 4.4-7.5 10.6-13 17.7-17.7 3.3-2.2 7-1.6 11.2-1.4-1.6 0.5-2.7 0.8-3.7 1.1-2 0.6-4.4 1.2-5.5 2.8-0.7 1-2.7 1.5-2.1 3.4-0.4 0.1-0.8 0.2-1.3 0.4-6.2 2.3-10.8 6.5-14.7 11.9 4.4-3.9 8.4-8.5 15-8.9-4.5 1.7-9.1 3.4-11.9 8.5 3.3-1.5 5.9-4 9.2-3.6-3.8 2.1-8.1 3.5-11.8 6.2-0.9 0.7-2 1.4-2 2.8-0.9 0.6-2 1-2.6 2.1z"/> <path d="m191.5 473.7h-1.1c0.4-2.6 2-4.8 2.8-7.4-1.3 0.1-1.5 1.3-2.4 1.8 0.1-2.3 1.5-3.7 3.4-4.6 5.4-2.6 9.2-7.1 14-10.6-4.6-1.7-7.8-0.3-10.8 3.4-2.7 3.3-6.1 6.1-9.2 9.1-0.4 0.3-0.7 0.9-1.5 0.3 0.4-1.3 2-1.8 2.6-3.4-4.7 2-9.1 4.3-14.1 4.3 9.2-2.8 18-6.2 24-14.6-5-0.5-9.7-1.4-12.6-6.1 10.9 0.1 17.7-6.9 25.2-13.3-2.8 5.6-11.1 11.3-21.5 15.5 14 4.1 27.3 3.8 39.9-6.4-2.3 3.3-7.4 7.5-12.9 8.8-7.3 1.8-12.1 6.8-17.7 11.1-4.3 3.1-7.1 7-8.1 12.1z"/> <path d="m268.4 307.8c3.2-1.7 5.5-3.7 8.6-4.4-7.2 5.2-14.3 10.4-17 19.5 3.5-4.1 7.6-7.5 12.6-10-11.7 7.7-17.2 19.3-20.2 32.1-0.4-1.3-0.5-2.3-0.1-4 0.5-2.6 1.2-5.2 2.2-7.7 1.2-3 2.2-5.9 2.9-9.1 1-4.8 3.7-9 7.1-12.6 1.3-1.4 2.3-3 3.1-4.8 2.9-6.8 8.2-10.8 15.4-12.3-6 3.1-11.7 6.1-14.6 13.3z"/> <path d="m180.8 433.9c3.2 0.8 5.9-1 8.9-1.6-2.1 1.8-4.8 2.6-7.9 3.6 5 2 9.8 2.7 15.2 2.2-6.4 3.2-16.9 0.1-19.8-5.6 8.5 0.4 14.1-4.3 19-10.5-0.6 2.6-2.7 5.2-6.2 7.9-2.8 2.1-6 3-9.2 4z"/> <path d="m268.7 250.6c-1.5 1.7-3.8 2.6-4.4 5.5 5.2-2 10.3-3.7 15.7-4.1-2.6 1.2-4.8 3.1-7.6 4.7 0.5-1.4 1.8-1.5 2.3-2.4-6.4 0.7-11.2 4.9-17 7.1 3.7-3.8 6.1-8.5 11-10.8z"/> <path d="m259.9 394.1c-7.1 5.5-9.8 13.3-11.8 21.6-1.1 4.4-3.1 8.6-7.7 10.7 1.3-1.6 2.6-3.1 3.7-4.7 2.3-3.5 3.2-7.6 4.1-11.6 1.8-7.4 6.3-13.7 11.7-16z"/> <path d="m360 424.8c1.4 5.2 1.2 6.8-1.6 12.8 3.5-2 6.5-7.5 7.3-13.2 0.7 5.2-1.7 11-6 14-2.2 1.6-4.6 2.9-6.8 4.8 4.1-5.5 8.3-10.9 7.1-18.4z"/> <path d="m158.5 461.8c4.8-0.6 9.3-1.3 13.4-3.3-2.8 2.5-6.3 3.2-9.8 3.9 6 1.9 12 1.1 21.3-2.5-5.1 5.4-17.7 6.5-24.9 1.9z"/> <path d="m342 451c-0.1-2.1 1.8-2.6 3.2-3.9 5.7-5.1 10.6-10.7 10.6-19v-1.3c2.3 12-5.5 18.3-13.8 24.2z"/> <path d="m320.5 272.6c-5.4-1.6-10.3-2.3-15.3-2s-9.6 1.8-14.5 4.2c7-6.8 24.1-7 29.8-2.2z"/> <path d="m115.2 480.9c3.1 1.6 6.2 0.5 9.8 0.3-6.9 2.3-14.2 0.8-19.7-3.8 5.5 1.9 11.2 2 17 1.7-2.3 1-4.7 1.5-7.1 1.8z"/> <path d="m83.9 427.3c0.2 2.6-0.9 4.3-1.1 6.1-0.4 3.8-0.7 7.7-0.1 11.5 0.2 1.3-0.1 2.5 0.1 3.6 0.2 1.5 1.1-0.5 1.6 0.5-1.2 1.5-2 3.3-1.1 5.5-1.4-0.1-1-0.9-1-1.4 0.2-3.9-0.7-7.8-0.9-11.7-0.2-4.7 0.2-9.2 2.5-14.1z"/> <path d="m287 376c1.2 5.6 1.2 11.1 4.1 15.8 2.8 4.5 5.6 8.9 11.1 11.5-7.2-1.1-15.8-12.9-15.2-27.3z"/> <path d="m260.6 401.6c-5 6.3-4 15.6-11 20.8 2.2-3.3 4-6.9 5.3-10.7 1.4-3.6 2.5-7.4 5.7-10.1z"/> <path d="m247.8 424.1c-1-4 4.2-18.9 7.9-22.4-4.6 6.6-5.2 14.6-7.9 22.4z"/> <path d="m263.6 284c-0.9 3.2-2.6 5.8-2.3 9.1-0.9-1-0.3-2-0.8-3.1-2.6 3.7-4.5 7.6-6.4 11.7 0.2-3.9 4.3-11.4 9.5-17.7z"/> <path d="m334.8 295.3c-6.6-1.3-13.6-1.3-19.7-4.6 6.5 1.9 13.4 1.9 19.7 4.6z"/> <path d="m112.3 319.5c6.6 1.6 13 3.9 20 2.7-7.1 3-13.5 0.2-20-2.7z"/> <path d="m101.9 470.1c4.7 3.7 9.3 5.3 14.5 5.2-6 1.9-11.4 0.2-14.5-5.2z"/> <path d="m299.1 260.8c6.4 1.5 12.8 3 19.2 4.4-6.8 0-13.1-1.7-19.2-4.4z"/> <path d="m106.5 468.3c-5.1-0.6-6.8-4.7-8.9-8.3 2.6 2 5.2 3.9 8.5 5.6-2 0.3-3.2-1.2-4.9-1.3 1.4 2.1 3.5 2.8 5.3 4z"/> <path d="m255.1 283.9c-1.6 5.9-4.4 11.4-4.4 17.6-1.4-6.6 1.5-12.1 4.4-17.6z"/> <path d="m370.3 420.8c0.2 5.3-1.6 9.8-5.6 13.4 2.4-4.3 4.3-8.7 5.6-13.4z"/> <path d="m218.7 437.9c5.3-4.1 8.1-9.2 10.4-14.8-0.1 4.9-6 13.6-10.4 14.8z"/> <path d="m91.6 234.2c-2.8-6.2-1.2-12.6-0.1-18.9-0.2 6.2-1.7 12.5 0.1 18.9z"/> <path d="m106.8 186.4c-1.6-6.8 0.2-13.4 1.1-20.1 0.2 6.7-1.9 13.3-1.1 20.1z"/> <path d="m222.1 355.8c4.8-3.1 9.6-6 12.6-11-2.3 5.8-7.1 8.8-12.6 11z"/> <path d="m263.2 249.4c-2.2 2.9-4.2 6.1-7.3 8.3 2.1-3.1 3.7-6.6 7.3-8.3z"/> <path d="m166.1 442.3c-6.9 0.3-13.9 1-20.5-2.2 6.6 2.3 13.5 2.3 20.5 2.2z"/> <path d="m139.5 277.1c-3.7-4-5.6-8.7-6.4-14 1.7 4.9 4 9.5 6.4 14z"/> <path d="m289 268.2c-4.7 3.4-8.7 7.6-13 11.3 3.8-4.4 7.7-8.6 13-11.3z"/> <path d="m130.7 238.5c-1.3-5.6 0.8-10.7 2.7-15.8-1.1 5.3-3.1 10.4-2.7 15.8z"/> <path d="m187.8 315.7c-4.3 3-9.2 4.3-14.4 4.9 4.9-1.5 9.8-2.7 14.4-4.9z"/> <path d="m308.3 401.5c-5.6-1.1-9.3-4.6-12-9.3 3.4 4 7.1 7.4 12 9.3z"/> <path d="m289.9 253.3c-5.1 0.7-10 2.2-14.6 4.6 4.2-3.7 9.2-4.7 14.6-4.6z"/> <path d="m183.8 329.7c-3.1 3.6-6.9 6.4-11.3 8.2 3.8-2.7 7.6-5.5 11.3-8.2z"/> <path d="m262.7 348c-0.5-6.1 0.8-11.3 4.2-16-2.8 4.9-3.3 10.3-4.2 16z"/> <path d="m99.7 279.4c2.8 4.3 5.4 8.8 9.7 12-5.2-2.2-7.5-7-9.7-12z"/> <path d="m327.3 389.4c3.7 3.2 7.5 6.1 12.3 7.2-5.4-0.2-9-3.5-12.3-7.2z"/> <path d="m174.7 316.4c4.8-1.8 10-2.5 14.9-4.1-4.6 2.4-9.8 3.1-14.9 4.1z"/> <path d="m253.6 278.7c-2.9 4-5.3 8.3-6.9 13.4-0.5-4.2 3.4-10 6.9-13.4z"/> <path d="m129 223.4c-0.9 4.4-1.6 8.8-1.8 13.3-0.9-4.7-0.3-9.1 1.8-13.3z"/> <path d="m270.5 435.2c-1.3 5.1-3.4 9.7-7.1 13.6 2.8-4.3 5.2-8.8 7.1-13.6z"/> <path d="m235.8 351.6c-2.5 4.1-6.2 6.9-10.3 9.2 3.6-2.9 6.9-6.1 10.3-9.2z"/> <path d="m136.2 276.1c-3.7-3.5-5.2-8.1-6.3-12.9 1.8 4.5 3.7 8.9 6.3 12.9z"/> <path d="m129.7 332.3c-4.9 0.3-9.2-0.2-13.4-0.8 4.3 0.2 8.6-0.6 13.4 0.8z"/> <path d="m333.3 302.8c3.2 0.2 5.6 0.1 7.4 2.3-2.3-0.8-5 0.6-7.4-2.3z"/> <path d="m145.4 193.8c2.3-3.8 4.7-7.6 6.6-12-0.2 3.4-3.2 9-6.6 12z"/> <path d="m160.9 388.4c4-1.6 7.4-3.4 9.9-7-0.9 3.7-5.5 6.9-9.9 7z"/> <path d="m110.1 274.4c2.7 3.2 4.5 7 7 10.3-3.3-2.7-5.1-6.5-7-10.3z"/> <path d="m109.4 471.5c-4.3-0.3-8.1-2.4-9.4-5.3 3 2.4 6.3 3.6 9.4 5.3z"/> <path d="m139.3 228.3c1.2-4.6 3.7-8.3 6.7-11.8-2.3 3.9-4.8 7.8-6.7 11.8z"/> <path d="m135 317.9c-4.6 0.5-8.8-0.3-12.5-3.2 3.9 1.9 8.1 2.7 12.5 3.2z"/> <path d="m177.7 306.5c4.4-0.9 8.9-1.8 13.3-2.7-4.2 2.1-8.8 2.1-13.3 2.7z"/> <path d="m197.4 294.9c-4.3 1.7-8.9 2.4-13.5 2.4 4.5-0.8 9-1.6 13.5-2.4z"/> <path d="m130.9 473.2c4-0.1 8-0.1 11.9-1-3.9 1.2-7.8 2.3-11.9 1z"/> <path d="m189 307.7c-4.2 0.9-8.4 1.7-12.5 2.6 3.9-2 8.3-2 12.5-2.6z"/> <path d="m194.1 300.3c-4.4 1.6-8.9 2.6-13.5 2.8 4.5-0.9 9-1.8 13.5-2.8z"/> <path d="m290.2 297.9c-2.4 2.8-4.4 6-6.6 8.9 0.9-3.8 3.7-6.4 6.6-8.9z"/> <path d="m109.7 234.9c-1.7-3.8-2.1-7.9-1.6-12 0.5 4 0.7 8 1.6 12z"/> <path d="m103 213.1c0.2 5.2 0.1 10.4 0.7 15.5-1.5-5.1-1.1-10.3-0.7-15.5z"/> <path d="m225.9 281.3c-3.2 2.3-7.2 1.9-10.8 2.9 3.3-1.8 7.2-1.8 10.8-2.9z"/> <path d="m120.1 236.5c-1.6-4.8-0.8-9.8-0.5-14.7 0.7 4.8-0.2 9.8 0.5 14.7z"/> <path d="m119.7 272.2 6 8.1c-3-2-4.8-4.8-6-8.1z"/> <path d="m104.4 278.4c2.3 2.8 4.7 5.7 7 8.5-3.2-2.1-5.4-5.1-7-8.5z"/> <path d="m173.5 342.8c3.5-2.5 6.5-4.7 9.5-6.8-1.2 2.3-5.9 5.8-9.5 6.8z"/> <path d="m240.2 422.1c-0.7 3.3-2 6.3-5.2 8.1 1.9-2.6 3.4-5.4 5.2-8.1z"/> <path d="m284.9 379.2c0.9 2.6 1.8 5.2 2.8 7.9-1.9-2.3-3.4-4.7-2.8-7.9z"/> <path d="m187.9 293.7c3.6-2 7.5-2.8 11.5-3.6-3.8 1.4-7.5 3.2-11.5 3.6z"/> <path d="m292 457.1c-0.3 3.6-1.7 6.7-4 9.5 1.3-3.2 3-6.3 4-9.5z"/> <path d="m254.5 452.3c2.7-2.4 4.5-5.4 6.2-8.6-1 3.7-2.7 6.8-6.2 8.6z"/> <path d="m184.7 320.5c-3.3 2.3-7.3 2.5-11.1 3.2 3.8-1.1 7.4-2.1 11.1-3.2z"/> <path d="m270 320c-2.8 1.7-4.5 4.5-6.5 7 1.5-3 2.7-6.1 6.5-7z"/> <path d="m367 321.2c-3 0.3-5.3-0.1-7.9-0.6 1.6-1.2 2.8-0.6 4 0 0.3 0.1 0.8 0.6 1-0.1 0-0.2-0.4-0.6-1-1.3 1.4 0.7 2.4 1.2 3.9 2z"/> <path d="m172.4 388.5c-2.1 2.9-5.3 3.7-8.4 4.7 2.6-1.9 5.8-2.8 8.4-4.7z"/> <path d="m208.2 298.9c2.7-2.1 5.9-3 9.2-3.6-2.8 1.8-6.3 2-9.2 3.6z"/> <path d="m213.3 289.3c2.8-1.5 6-1.5 9-2.3-2.7 1.7-6 1.7-9 2.3z"/> <path d="m144.5 474.2c-3 1-6 2.6-9.4 1.2 3.2 0.1 6.2-0.9 9.4-1.2z"/> <path d="m150 438.5c3.9 1.3 8 1.3 12 1.7-4.1-0.1-8.2 0.7-12-1.7z"/> <path d="m152 460.4c3-0.1 6-0.5 9-1.1-2.9 2-5.9 2.1-9 1.1z"/> <path d="m136.7 176.5c0.3 3.9-1.2 7.2-3.4 10.2 1.4-3.4 3.1-6.6 3.4-10.2z"/> <path d="m140.5 297.7c2.3 2.5 5.2 3.9 8.7 5.5-4.4-0.3-6.7-2.7-8.7-5.5z"/> <path d="m279.4 376c-1.6-3.2 0.4-6.3 0-7.9v7.9z"/> <path d="m137.1 266.3c1 3.3 3.3 6 4.1 9.4-1.8-3-3.8-5.8-4.1-9.4z"/> <path d="m125.6 264.2c0.4 2.8 3.4 4.8 2.3 8.3-0.9-2.9-2.2-5.4-2.3-8.3z"/> <path d="m330.6 320.3c-3.1-0.9-6.2-1.5-9.4-0.8 3.3-1.4 6.4-0.7 9.4 0.8z"/> <path d="m123.7 318.8c2.7 1 5.6 0.8 8.4 1.6-3 0.5-5.8-0.1-8.4-1.6z"/> <path d="m226.8 434.1c2-3 3.8-5.5 5.1-9.1-0.7 4.5-2 6.9-5.1 9.1z"/> <path d="m131.7 174.6c0 3.6-1 6.8-3 9.8 1-3.3 2-6.6 3-9.8z"/> <path d="m310.3 330.5c2.9-2.1 6.2-2.7 9.7-2.3-3.4 0.3-6.6 1.2-9.7 2.3z"/> <path d="m280.4 308.7c0.6-3.5 2-6.4 5-8.4-2.1 2.6-3.7 5.4-5 8.4z"/> <path d="m327.3 414.7c-1.6 2.7-4.2 4.5-7 6.1 2.4-2 4.7-4.1 7-6.1z"/> <path d="m142.4 310.1c-3.8 0.3-7.6 0.6-11.3-1.1 3.7 1 7.5 0.8 11.3 1.1z"/> <path d="m156.7 368c3.2-1.4 5.9-2.3 8.3-4.1-1.5 2.4-3.9 3.6-8.3 4.1z"/> <path d="m347.3 313c-2.5-1.4-4.8-2.2-7.4-2.2 2.6-1.4 5.1-0.7 7.4 2.2z"/> <path d="m252.6 444.9c1.7-2.2 3.4-4.5 5.1-6.7-0.7 2.9-2.6 5.1-5.1 6.7z"/> <path d="m327.2 321.9c-3.4 0-6.1-0.3-8.8 0.3 2.6-1.5 5.3-1.3 8.8-0.3z"/> <path d="m224.4 284.4c-3.3 0.9-6.5 1.9-9.9 1.6 3.3-0.6 6.6-1.1 9.9-1.6z"/> <path d="m115.9 216.8v12.2h-0.3v-12.2h0.3z"/> <path d="m322.4 360.5c1.4-2.9 3.9-3.8 6.9-4.2-2.6 0.9-4.7 2.5-6.9 4.2z"/> <path d="m218 281.2c2.9-1.3 5.8-2.8 9.1-2.4-3 0.9-6.1 1.6-9.1 2.4z"/> <path d="m173.2 394.9c-2.4 2.1-5.1 3.6-8.4 3.6 3-0.7 5.7-2.4 8.4-3.6z"/> <path d="m324.6 306.8c-2.4 1.3-5.1 0.7-7.7 1 2.4-1.1 5-1 7.7-1z"/> <path d="m221.8 290.6c-3.2 0.7-6.5 1.5-9.7 2.2 3.1-1.6 6.4-2.1 9.7-2.2z"/> <path d="m346.3 325.4c2.7-1.3 4.8 0.9 7.2 1.5-2.3-0.6-4.7-1.4-7.2-1.5z"/> <path d="m162.7 484.4c2.4-1.9 4.8-3.7 7-5.7-2 2.3-3.5 5.1-7 5.7v0z"/> <path d="m219.2 277.7c3-1.1 6.1-1.2 9.2-1.3-2.9 1.4-6.2 0.7-9.2 1.3z"/> <path d="m112.5 172.6c-0.7 3.5-0.4 7.2-0.7 10.8-0.5-3.7-0.4-7.3 0.7-10.8z"/> <path d="m150 438.5c-3.8 0.3-6.7-1.5-9.5-3.8 3.1 1.3 6 3.4 9.5 3.8z"/> <path d="m268.3 281.1c-1.2 2.5-2.4 5.1-3.5 7.6 0.3-2.9 1.2-5.6 3.5-7.6z"/> <path d="m170.7 488c1.2-2.9 4.1-4.2 6.2-6.2-1.5 2.6-3.8 4.5-6.2 6.2z"/> <path d="m127 172.9c-0.4 3.1-0.8 6.2-1.3 9.3-0.5-3.2 0.3-6.2 1.3-9.3z"/> <path d="m328.9 314.5c3.2-0.4 6.2 0.2 9.1 1.8-3-0.9-6.1-1.4-9.1-1.8z"/> <path d="m107.5 428.8c2.2-0.6 4.4-0.8 6.6-1.6-2 1.7-4.2 2.1-6.6 1.6z"/> <path d="m322.3 305.4c4.5-1.8 6.4-1.7 8 0.6-2.3-2.5-5-0.3-8-0.6z"/> <path d="m369.7 318.5c3-0.9 5.9-0.8 9.1 1.3-3.4-0.6-6.2-1.4-9.1-1.3z"/> <path d="m323.4 324.5c-3.2 0.4-6.3 1.2-9.4 2.1 3-1.5 6-2.5 9.4-2.1z"/> <path d="m277.5 415.3c2-1.8 3.9-3.5 5.9-5.3-1.4 2.5-3.1 4.4-5.9 5.3z"/> <path d="m120 484h8.7c-2.7 0.3-5.3 1.4-8.7 0z"/> <path d="m235.2 330.1c-1.3 2.6-3.4 4.2-5.9 5.3 1.9-1.8 4-3.4 5.9-5.3z"/> <path d="m101 289.7c-2.2-2-3.3-4.7-4-7.6 1.4 2.5 2.7 5.1 4 7.6z"/> <path d="m307.6 334c1.8-2.2 4.4-1.9 6.8-2.3-2.3 0.8-4.5 1.6-6.8 2.3z"/> <path d="m187.8 293.7c1.6 1.8 3.5-0.7 5.2 0.5-2.5 1.1-5.3 0.6-8 1.5 0.9-1.2 2-1.4 2.8-2 0.1 0 0 0 0 0z"/> <path d="m232.5 341.4c-0.9 3-2.8 5.1-5.6 6.2 2.3-1.7 4.1-3.8 5.6-6.2z"/> <path d="m333.1 348.6c-2.6 0.9-5.2 1.9-7.6 3.2 2-2.3 4.8-2.8 7.6-3.2z"/> <path d="m151.2 292.4c2 1.6 3.8 3.5 5.9 5.1-2.9-0.7-4.3-3-5.9-5.1z"/> <path d="m322.8 367.8c1.2-2.6 3.3-4.2 6-4.9-2.4 1.1-4.2 3-6 4.9z"/> <path d="m208.1 301.4c2.5-1.6 5.1-2.5 7.9-2.8-2.6 1-5.2 1.9-7.9 2.8z"/> <path d="m136.9 240.8c0-2.6 0.4-5.2 2.3-7.2-0.8 2.4-1.5 4.8-2.3 7.2z"/> <path d="m137.9 315.1c-3.1 0.5-6.3 0.5-9.2-1.1 3 0.6 6.1 1 9.2 1.1z"/> <path d="m307 316c-2.3 0.4-4.6 0.7-6.9 1.1 2.2-0.9 4.5-1.9 6.9-1.1z"/> <path d="m340.7 330c2.9-0.8 5.5-0.1 7.8 1.7-2.5-0.9-5-1.8-7.8-1.7z"/> <path d="m343.5 334.9c-2.3-0.2-4.6-0.8-6.9-0.2 2.2-1.3 4.5-1.1 6.9 0.2z"/> <path d="m94.9 230.2c-1.3-2.6-1.1-5.4-1.1-8.3 0.4 2.8 0.7 5.5 1.1 8.3z"/> <path d="m280.9 343.6c-1.5 1.7-2.5 3.9-3.9 5.7 0.5-2.5 1.7-4.4 3.9-5.7z"/> <path d="m334.4 345.3c-2.8 1.1-5.1 1.7-7.2 3.1 1.4-2.1 3.3-2.9 7.2-3.1z"/> <path d="m276.9 275.7c-1.4 1.6-2.8 3.3-4.1 4.8 0-1.8 0.7-2.7 4.1-4.8z"/> <path d="m227.3 367.2c1.7-2 3.4-4 5.1-6-0.9 2.7-2.8 4.5-5.1 6z"/> <path d="m109.2 406.4c-1 1.2-1.9 2.3-2.9 3.5-0.3 0.3-0.6 0.8-1.1 0.3-0.4-0.4-0.2-0.9 0.3-1.1 1.5-0.6 2-2.3 3.7-2.7z"/> <path d="m184.3 324.6c-2.1 2.1-4 2.8-6.7 2.6 2.3-0.9 4.2-1.6 6.7-2.6z"/> <path d="m272.2 438.1c-0.6 2.5-1.3 5-2.8 7.2 0.5-2.5 1.4-4.9 2.8-7.2z"/> <path d="m303.3 313.9c3.3-0.5 6-0.9 9.2-1.4-2.3 1.3-6 1.8-9.2 1.4z"/> <path d="m164.6 445.2h-9.6v-0.2h9.6v0.2z"/> <path d="m96.6 289.4c1.5 1.4 3 2.7 4.5 4.1-2.1-0.7-3.8-1.8-4.5-4.1z"/> <path d="m127.4 278.7c-2-1.6-2.9-4-4-6.3 1.8 1.7 2.5 4.2 4 6.3z"/> <path d="m119.6 463.8c1.6 1.9 3.8 3.1 6.6 4.5-3.6-0.3-5.3-2.1-6.6-4.5z"/> <path d="m298.5 322.9c-2.3 0.6-4.6 1.2-7 1.8 2.1-1.8 4.5-1.9 7-1.8z"/> <path d="m356.8 325.1c-2.2-0.5-4.4-1-7.2-1.7 3.1-0.8 5 0.8 7.2 1.7z"/> <path d="m342.1 327.8c2.8-0.8 5.4-0.4 7.8 1.1-2.5-0.7-5.1-1.2-7.8-1.1z"/> <path d="m287.8 303.9c0.9-2.2 2.4-4 4.5-5.2-1.7 1.5-2.7 3.7-4.5 5.2z"/> <path d="m290 331.6c-2.1 0.9-4.2 1.9-6.2 2.8 1.5-1.9 3.8-2.4 6.2-2.8z"/> <path d="m111.3 417.8c-2.7 2.5-5.2 3.1-6.7 1.6 2.6 1.4 4.1-1.2 6.7-1.6z"/> <path d="m310.9 310.8c2.1-0.8 4.1-1.5 6.9-1.3-2.5 1.1-4.7 1.2-6.9 1.3z"/> <path d="m333.4 317.8c-2.5 0-5-1.2-7.6-1.2 1.3 0 2.5-0.2 3.8 0 1.3 0.3 2.5 0.8 3.8 1.2z"/> <path d="m105.3 417.1c2.4-0.2 3.6-2.3 5.6-3.5-1.3 2.7-3.7 4.2-5.6 3.5z"/> <path d="m143.2 295.1c1.4 1.7 2.9 3.4 4.8 4.6-2.8-0.4-4.1-2.2-4.8-4.6z"/> <path d="m295.5 321.4c1.9-1.7 4.2-2.1 6.6-1.8-2.2 0.6-4.4 1.2-6.6 1.8z"/> <path d="m281 376.1c-0.4-2.6 0.2-5.1 0.5-7.5 0.4 2.5-0.3 5-0.5 7.5z"/> <path d="m340.8 337.2c-2.5-0.5-5-0.2-7.4 0.4 2.4-1.5 4.8-1.7 7.4-0.4z"/> <path d="m352 180.2c4.3-1.1 7.7-2.3 10.2-5.9-5.5 2.3-10.1 1.1-14.2-2.3 6 1.5 11.2-0.8 16.2-3.6s9.3-6.5 14.6-8.7c12.5-5.3 23.7-1.4 29.8 10.7 4 7.9 4.9 16.6 6.2 25.2 0.1 0.8 0.1 1.5-0.8 1.8-5.5 2.3-10.1 6.3-15.9 8.1-12.9 4.1-29.9 0.2-36-15.7-0.6-1.6-1.2-3.3-1.3-5-0.1-1.4-2.3-2.4-0.6-4.3 0.5-0.6-0.8-0.6-1.3-0.5-1.9 0.4-3.9 1.4-6.9 0.2zm20.1-11c-7.8 4-10.5 9.7-8.5 17.6 2.9 11.7 13.3 19.1 26.2 18.6 7.9-0.3 14-3.7 17.6-10.8 2.6-5.2 3.4-9.6 0.1-14.4-1.1 9.5-3.4 18.3-13.9 21.3-7.2 2.1-13.8 0-18.7-5.6-7.1-8-7.6-17-2.8-26.7zm15.4 1.9c0-2.7-2.1-4.6-5.1-4.5-3.7 0.1-6.9 3.2-6.8 6.5 0.1 2.6 2.5 4.9 5.2 4.9 3.6 0 6.7-3.2 6.7-6.9zm23.8 17.5c-1 3.8-2.7 7.2-4.8 10.5 2-1.5 5.1-1.6 6.1-3.4 1-2.1-0.8-4.7-1.3-7.1z"/> <path d="m298.9 116c0.3-1.4 2-1.4 2.6-2.6-1.1-0.4-1.8 0.8-2.8 0.8 2.9-3 13.1-5.4 25-6-4.2-4.2-12.5-3.6-25.6 1.9 1.9-2.9 6.2-6 12.2-8.6 7.6-3.3 15.6-5.1 23.9-5.7 4.7-0.3 8.9 1.5 12.7 4.5-10.7-7.2-21.2-1.9-31.8 0.8 1.5-0.1 3.1 0 4.6-0.3 1.5-0.2 3-0.8 4.5-1.1 8.2-1.6 16.6-0.2 22.1 3.8-7.5-3.5-15.3-4.1-23.6-1.9 1.4 1 2.6 1.3 4 0.9v-0.1c1.6 2.8 4.6 2.8 7.2 3.5 1.1 0.3 2.4 0 3 1.4-1.6 0.3-3 0.5-4.5 0.8-2.7-1.3-5.3-2.7-8-4-6.1-2.9-12.1-2.9-17.8 1.1 6-2.7 11.8-1.5 17.5 1.2 2.7 1.3 5.6 1.3 8.4 1.6-2.6 1.5-5.3 2.6-8.5 1.9-8.1-1.6-21.4 4.4-25.7 11.7 4.4-1.3 8.6-2.5 12.8-3.7 1.2-0.4 2.5-1 3.7-0.9 6.8 0.6 11.5-3.9 16.9-6.7 2.1-1.1 4.3-1.9 6.8-1.8-4.4 1.3-8.3 3.7-11.8 6.7 4.6-1.6 9.3-2.3 14.1-1.7-6 0.1-11.4 2.2-16.5 5.2 2.4-0.5 4.7-1.1 7.5-1.7-2.8 2.4-5.9 2.9-8.7 4.1-8.1 3.7-14.6 9-18.5 17.2 1.9-0.1 2.6-2.4 4.5-3-0.3 0.5-0.5 0.9-0.7 1.2 6.2-3.8 12.5-7.5 20.2-7-4 1-8.1 1.6-12.2 4.1 2.5 0 4.3-1 6-0.4-11 3.5-21.9 7.2-29.7 16.6 4.6-2.4 9.4-3.9 15.2-4.7-5.2 2.5-10.7 2.5-14.5 6.3 4.2-1.2 8.2-3.6 12.8-3.1-1.5 0.3-2.9 0.7-4.4 1 0.7 1.1 1.9 0.7 2.8 1.2-6.7 1-12.3 4.3-18.2 7.9 2.4 0.3 4.1-1.2 6.2-0.5-5.8 1.7-9.5 6.1-13.9 10.3 3.9-0.8 7.3-1.6 10.7-2.3-6 2.5-11.8 5.5-18.6 5 5.2-1.8 8.4-5.9 12-10.2h-2.4c0.1-0.2 0.2-0.4 0.3-0.4 3.2-1.6 5.4-4.6 8.5-6.4 1.6-1 0.2-2.4-0.2-3.4-2.8-5.6-4.9-11.5-6.7-17.4-6-19.5-5.5-39 0.4-58.4 2.2-7.2 4.7-8.6 12.1-7.3 9 1.6 17.4 4.9 25.7 8.6 9 4 17.7 8.4 25.6 14.4 3.1 2.4 5.7 5.3 7.4 9-2.4-2.3-4.7-4.7-7.2-6.8-5.8-5-12.7-8.3-19.5-11.7-8.4-4.1-17.2-7.2-25.9-10.5-3.5-1.3-6.8-1-10.1 0.5 0.6-1.1 1.6-1.5 2.9-1.8-7.4 0-7.5 0.1-8.4 4.2 1.3-0.7 2.2-1.9 3.7-1.7-6.1 4-7.2 10.5-8.3 16.9-3.5 20.3-0.4 39.7 8.3 58.3 0.5 1.1 0.9 2.2 1.9 3 0.8-1.7 0.8-1.7-0.2-5.5 0.3 0.3 0.4 0.4 0.6 0.5 0.8 0.5 0.5 2.7 1.9 2 1.2-0.6 2.6-1.7 2.3-3.7-0.8-4.7 0.5-8.8 3.3-12.6-0.7 2.4-1.5 4.8-1.9 7.2-0.3 1.6-1 4.3 0.3 4.8 1.6 0.6 2.9-1.7 4-3.1 3.9-5.5 8-11 13.6-15 2.1-1.5 4.2-2.9 6.2-4.6-11 0.8-15.8 9.7-22 17.2 0.1-1.9 0.8-3.3 1.4-4.7 1.4-0.3 2-1.7 3-2.5 0.9-1.1 1.9-2.2 2.7-3.4 2.9-3.9 6.7-6.3 11.5-7.2 1-0.2 1.9-0.3 3.5-1.3-9.4 0.3-16.7 6.1-25.6 6.4 4.9-8.4 12.1-12.9 21.5-14.3-5.1-0.2-9.6 1.9-13.9 4.3-1.5 0.3-2.7 1.4-4.2 1.7z"/> <path d="m338.2 91.6c-15.1-5.7-27.6-1.4-38.4 10.1 1.4-4.2 7.1-8.3 16.5-12.8-5.8 1.5-11.6 2.6-17.4 3.8 4.8-2.7 10.1-3.9 15.4-4.5 6.5-0.8 13.2-1 19.7 0.6 6.9 1.7 11.7 6.5 16.6 11.1-1.5-1-3.1-2-4.6-3.1-10.9-7.5-22-6.6-33.2-0.6-3.3 1.8-6.4 3.8-10.3 5.1 3-2.7 11.7-7 16.9-8.9 6.3-2.4 12.5-2.2 18.8-0.8z"/> <path d="m426.2 83.4c3.9 4.2 6.4 9.3 8.8 14.5 4.8 10.2 7.7 21.1 10 32.1 0.7 3.4 0.3 6.9 0.2 10.4-0.1 2.7-0.6 5.1-2.4 7.9-1.9-4.4-3.2-8.8-6.4-12.8 4.4 1.7 4.2 5.8 6.3 8.8-0.1-5.3-1.8-9.9-2.6-14.6-0.9-4.8-3-9.1-4.3-13.8 3.7 5.9 5.3 12.5 6.8 19.2 0.4 1.2 0.8 2.3 1.4 4.1 0.8-5.3 0.2-9.7-0.8-14.7-0.6 1.7-0.2 2.8-0.1 3.8 0.1 2.3 0.9 4.7-0.5 6.9 0.4-9.8-1-19.2-4.5-28.4-3.1-8.2-7.2-15.7-11.9-23-0.2-0.3-0.1-0.3 0-0.4z"/> <path d="m283.7 62.5c3.3-3.7 7.5-2.3 11.1-1.4 17.8 4.7 34.9 11.2 50.2 21.7 4.6 3.1 8.4 7 11.6 11.6 0.4 0.6 0.7 1.2 0.9 1.9-13.1-16.5-31.9-23.4-50.7-30.3-3.8-1.4-7.7-2.4-11.6-3.4-3.7-1-7.6-1.9-11.5-0.1z"/> <path d="m375.3 86.3c12.2 3.7 30.7 37.7 27.4 51-4-20.1-10.5-38.1-27.4-51z"/> <path d="m367.3 94.6c2.8 0.1 5 1.5 7.1 3 9.2 6.6 16 15.3 21.3 25.2 2.2 4.1 4.1 8.2 5 12.8-7.8-16.4-16.7-31.8-33.4-41z"/> <path d="m300.4 79.7c8-2.1 15.3 0.7 22.9 3-11.6-0.6-21.2 4.5-30.1 11.3 2.2-4.6 5.6-7.6 10-9.6 4.5-2.1 9.2-2 14-2.3-1.7-0.5-3.4-1-5.2-1.4-1.9-0.5-3.9-1-5.9-1h-5.7zm6.3 4.5c-3.3 0.9-6.3 2.4-8.6 5.2 2.8-1.8 5.8-3.4 8.6-5.2z"/> <path d="m299.1 210.1c15.2-3.6 28.8-11.8 43.6-16.5-14.5 5.8-27.8 14.4-43.6 16.5z"/> <path d="m406.8 148c-8.2-9.3-14.3-20.7-27.1-25.2 4.2 0 7.3 2.2 10.4 4.4 7.3 5.5 11.5 13.6 16.7 20.8z"/> <path d="m446.7 140.8c3.5-8.8 3.9-17.9 3.3-27.2 2.3 9.5 1.8 18.6-3.3 27.2z"/> <path d="m483.2 121.3c-5.4 5.7-9.2 12.3-12.2 19.5 1.4-8.1 5.6-14.6 12.2-19.5z"/> <path d="m310.2 203.1c-4.6 3.1-12.9 5.6-18.4 5.6 6-2 12.3-3.3 18.4-5.6z"/> <path d="m400.5 73.9c6.1 3.2 9.6 8.8 13.2 14.3-3.9-5.2-8.5-9.8-13.2-14.3z"/> <path d="m391.8 87c-4.2-4.6-8-9.6-13.2-13.2 5.9 2.9 9.7 7.9 13.2 13.2z"/> <path d="m309 75.4c-5.9-1.2-11.8-2.2-17.8-1.5 6.1-1.5 12-1.2 17.8 1.5z"/> <path d="m310.8 77.6c4.9 0.9 10 1.4 14.4 4-5-0.6-9.7-2.4-14.4-4z"/> <path d="m277.4 152.1c0.7 2.8 3.2 3.4 5.7 4.5-2.3 0.4-4.3 1.1-6.2-0.5-2-1.9-1.9-2.5 0.5-4 0.1 0 0 0 0 0z"/> <path d="m442.4 186.9c-4.4 0.8-8.4 2.1-12.1 4.6 1.1-1.8 3.6-3.8 5.3-4.1 0.8-0.1 1.6 0.1 1.7-1.1 0-0.1 0.1-0.3 0.2-0.4 1.1 2.6 3.4-0.5 4.9 1z"/> <path d="m329.2 126.6c-5.7 0.4-10.6 3.2-15.8 5.1 4.7-3.2 9.8-5.6 15.8-5.1z"/> <path d="m326.8 102.6c4.8-1 9.3 0.2 13.8 1.8-0.7 0-1.4 0-2.1-0.1-0.8-0.1-1.6-0.2-2.4-0.4-3-1-6.4 0.2-9.3-1.3v0z"/> <path d="m388.4 80.4c4.5 3.4 7.6 8 10.6 12.7-3.6-4.3-6.9-8.6-10.6-12.7z"/> <path d="m303.3 129.4c-1 0.8-1.6 2.2-3 2.5 1.3-3.7 3.9-6.5 6.8-9.1-1.2 2.2-2.5 4.4-3.8 6.6z"/> <path d="m468.8 153.9c0.4-3.5 1.8-6.4 4.7-8.6-1.3 3.1-3.4 5.7-4.7 8.6z"/> <path d="m298.8 116c-2.3 2.6-5.1 4.9-6.2 8.4-0.4 1.5-0.9 2.9-1.3 4.2-0.5-4.7 3-10.7 7.5-12.6 0.1 0 0 0 0 0z"/> <path d="m454.4 114.2c-0.3-4.4 0-8.9-0.7-13.3 1.5 4 1.7 8.3 0.7 13.3z"/> <path d="m322.4 209.5c-3.3 2.8-6.6 5.6-10.2 8.6 1.2-2.4 6.6-7.2 10.2-8.6z"/> <path d="m334.2 192.9c3.6-2.4 7.7-3.5 11.9-4-4 1.4-8 2.5-11.9 4z"/> <path d="m276.8 218.5c-3.8 0.5-7.5 0.1-10.9-1.7 3.7 0.6 7.3 1.2 10.9 1.7z"/> <path d="m454.4 190.2c-3.1-1.6-6.4-2.7-9.8-3.4 3.8-0.5 7.1 0.7 9.8 3.4z"/> <path d="m414.8 86.1c3.1 3.2 5.3 7 6.7 11.3-2.3-3.8-4.2-7.7-6.7-11.3z"/> <path d="m409.4 148.3c-2.1-2.6-3.8-5.5-6.1-8 3.4 1.6 4.7 4.8 6.1 8z"/> <path d="m327.5 179.9c4.8 0.4 9.6 0.9 14.3 1.3-4.8 0.2-9.7-0.1-14.3-1.3z"/> <path d="m286.4 198.3c-3.3 1.7-5.9 4.5-9.2 6.3 2.6-2.8 5.5-5.1 9.2-6.3z"/> <path d="m290.2 205.8c3.1-1.1 6.3-2.3 9.4-3.4-2.7 2.2-5.9 3.1-9.4 3.4z"/> <path d="m409.1 105.5c-1.9-3-3.8-6-5.7-8.9 0.2-0.1 0.4-0.2 0.6-0.4 1.9 3 3.8 5.9 5.6 8.9-0.1 0.2-0.3 0.3-0.5 0.4z"/> <path d="m283.2 206.6c2.2-2.3 5.1-3.4 8.1-4.5-2.4 2-5.3 3-8.1 4.5z"/> <path d="m452.1 109.8c1.4 3.5 1.1 7.2 0.6 10.9-0.3-3.6 0-7.2-0.6-10.9z"/> <path d="m458.2 140c0.4-3.2 0.8-6.2 1.2-9.7 0.5 3.6 0.4 6.6-1.2 9.7z"/> <path d="m470.8 156.4c0.3-3.1 1.6-5.3 4.3-7.2-1.5 2.5-2.8 4.6-4.3 7.2z"/> <path d="m431.7 130.8c-1.2-2.3-2.5-4.6-3.7-7 2.4 1.7 3 4.4 3.7 7z"/> <path d="m296.4 75.6c-2.7 0.9-5.5 0.6-7.9 1.8 2-1.6 4.8-2.2 7.9-1.8z"/> <path d="m405.5 152.5c-1.6-2.4-2.9-4.4-4.4-6.8 2.3 1.6 3.8 3.8 4.4 6.8z"/> <path d="m279 198.5c-1.4 2.1-2.9 4.1-4.5 5.9 1.5-1.9 3-3.9 4.5-5.9z"/> <path d="m437.4 373.4c-4.3-9.6-4.5-19.7-3.9-29.9 0.4 10.1 0.6 20.2 3.9 29.9z"/> <path d="m438.8 326.9c1.8-6 13.9-13.1 22.7-9.6-3.9-0.7-7.6-0.4-11.3 1-4.7 1.9-8.3 4.9-11.4 8.6-0.1 0 0 0 0 0z"/> <path d="m435.8 354c-0.4-7.6-2.2-15.3 2.1-22.4-3 7.3-1.8 14.9-2.1 22.4z"/> <path d="m448.7 385.9c-6.4-1.2-10.3-5.3-13.1-10.8 3.3 5 7.5 8.7 13.1 10.8z"/> <path d="m452.5 319.4c-2.2 1.2-4.4 2.3-6.5 3.7-2 1.3-3.9 3-6.2 4.8 3.2-5 8.1-6.5 12.7-8.5z"/> <path d="m431.9 361.1c-0.1 4.4 2.1 8.2 2.7 12.4-1.7-3.9-3.6-7.8-2.7-12.4z"/> <path d="m440.6 376.4c1.7 2 3.3 3.9 5 5.9-2.5-1.3-4-3.4-5-5.9z"/> <path d="m418.1 317c2.9-10.3 0.1-18.4-6.4-25.5 1.7 0.8 2.3 1.2 4 3.6 1.1 1.5 2 3 3.1 4.6 0.2-3.1-2.2-7-7.3-12.1 8.3 3.2 13.9 16.9 5.7 33.6 0.1-2.8-0.3-5.6-0.9-8.4-0.6-2.9-1.9-5.5-3-8.2s-2.5-5.3-4.2-7.7c-1.7-2.3-3.5-4.6-5.4-7.2 5.9 4.2 12.6 16.6 14.4 27.3z"/> <path d="m385.2 313.2c-7.5-6-12.7-13.4-13.5-23.8 1.6 4.7 2.9 9.1 5.1 13 2.3 3.9 5.6 7.1 8.4 10.8z"/> <path d="m412.1 308.6c2.9 4.2 3.8 8.9 3.3 13.9-0.5-4.7-1.5-9.4-3.3-13.9z"/> <path d="m419.5 288.4c2.3 1.5 4.7 2.9 7 4.4-0.1 0.2-0.2 0.4-0.3 0.5-2.4-1.5-4.8-3-7.1-4.5 0.1-0.1 0.2-0.3 0.4-0.4z"/> <path d="m482.4 96.4c3-1.9 5.6-4.4 7.9-6.9 1.3-1.4 2.7-2.9 4.3-3.8 4.1-2.3 8.4-3.6 13.2-2.7 0.4 0.1 0.7 0.2 1 0.3 0.2 0.1 0.4 0.3 1.1 0.9-6.1-1.3-11.2 0.7-15.8 3.5-3.4 2.1-6.2 5.3-9.2 8.1-0.7 0.6-1.4 1.1-2.5 0.6z"/> <path d="m509.3 89.5c-1.8-0.7-3.7-0.2-5.6-1.7-1.8-1.4-4.5 0-6.8 0.4-0.3 0.1-0.6 0.2-1.4 0.4 4-3 10.2-2.6 13.8 0.9z"/> <path d="m498.8 82.6c2.7-2.5 6.1-2.5 9.5-2.2-3.2 0.7-6.4 1.1-9.5 2.2z"/> <path d="m268.8 501.3c4.3-1.4 8-4.1 12-6.1-2.9 2.5-5.9 4.9-9.7 6-0.8 0.2-1.5 0.4-2.3 0.1-0.1-0.1 0 0 0 0z"/> <path d="m276.5 486c-0.2 3.6-2.4 6.1-4.4 8.7 1.5-2.9 3.4-5.6 4.4-8.7z"/> <path d="m288.3 483.6c-0.5 2.9-1.5 5.5-3.6 7.6 1.2-2.5 2.4-5 3.6-7.6z"/> <path d="m296.1 477.3c-1.3 2.6-2.6 5.2-4 7.8 0.9-2.9 1.4-5.9 4-7.8z"/> <path d="m447 282.8c0.4 0.1 0.7 0.1 1.1 0.2 3 2.4 4.7 5.5 5.4 9.2-1.5-3.6-3.7-6.7-6.5-9.4z"/> <path d="m446.1 391c3.4 0.6 6.9 0.4 10.3 0.5-3.5 1.5-6.9 0.7-10.3-0.5z"/> <path d="m430.7 375.4c1.3 2.6 2.6 5.4 4 8.1-2.3-2.2-3.2-5.1-4-8.1z"/> <path d="m431.6 383.8c-2.4-2.3-2.9-5.4-3.4-8.4 1.2 2.7 2.3 5.6 3.4 8.4z"/> <path d="m427.1 382.1c0.2 3.5 2.1 6.2 3.7 9.1-2.2-2.7-5.2-5-3.7-9.1z"/> <path d="m386.4 413.9c1.8 3 2.4 6.3 2 9.7-0.5-3.2-1.3-6.5-2-9.7z"/> </g> </svg>