<?xml version='1.0' encoding='utf-8'?>
<svg xmlns="http://www.w3.org/2000/svg" enable-background="new 0 0 612 612" version="1.1" viewBox="0 0 612 612"> <path d="m415.35 533.56c-3.77 0.32-4.56 2.45-4.77 5.65-0.54 8.41-4.14 12.78-12.28 14.8-12.52 3.11-25.24 2.94-37.97 1.54-4.65-0.51-9.24-1.45-13.7-2.88-8.62-2.75-11.77-8.51-9.55-17.31 3.89-15.42 11.28-29.29 19.02-42.99 6.46-11.43 13.36-22.6 18.27-34.87 3.53-8.82 3.42-17.44-0.15-26.12-1.21-2.93-1.66-6.96-4.19-8.33-2.39-1.29-5.85 0.84-8.82 1.52-17.01 3.88-34.25 4.88-51.63 4.12-1.09-0.05-2.19-0.11-3.28-0.14-5.46-0.14-5.45-0.14-6.82 5-4.59 17.23-5.31 34.71-3.85 52.41 1.47 17.86 2.49 35.76 0.18 53.65-0.23 1.77-0.61 3.52-0.99 5.26-0.81 3.76-3.15 6.22-6.77 7.24-1.87 0.52-2.87 1.27-3.12 3.31-1.14 9.25-6.91 13.86-15.71 15.37-19.06 3.28-38.05 3.29-56.86-1.54-11.3-2.9-13.82-7.81-10.26-18.94 3.61-11.29 9.81-21.29 15.63-31.47 6.69-11.71 12.93-23.62 15.05-37.12 2.65-16.94 2.38-33.91-0.25-50.85-0.18-1.15-0.22-1.76-1.77-1.32-7.57 2.17-15.01 4.65-22.05 8.22-8.9 4.52-13.16 11.97-13.88 21.79-1.13 15.53 1.18 30.61 6.43 45.15 2.87 7.95 1.55 14.14-4.01 20.48-13.89 15.83-31.05 25.9-51.36 30.83-7 1.7-10.74 0.01-14.46-6.34-5.4-9.2-6.82-19.41-7.22-29.86-0.65-17.11 2.46-33.67 7.14-50.01 4.47-15.58 8.9-31.18 15.39-46.09 3.26-7.5 7.93-14.01 13.84-19.63 9.53-9.07 18.67-18.5 27.22-28.5 1.04-1.22 1.35-2.07 0.59-3.61-10.32-20.83-11.45-42.73-7.6-65.25 1.4-8.23 3.55-16.25 6.38-24.56-6.8 2.86-13.46 4.7-20.12 6.51-0.95 0.26-1.57 0.85-2.06 1.6-13.01 19.89-37.55 23.09-58.03 14.29-14.07-6.04-22.96-16.55-24.82-32.14-0.98-8.21 1.42-15.97 3.87-23.67 1.09-3.41 2.01-6.86 2.68-10.39 0.42-2.23 0-3.58-2.14-4.45-0.96-0.39-1.98-0.94-2.32-2.26 1.32-0.97 2.65 0.41 3.92-0.03 0.53-0.9-0.3-1.25-0.7-1.71-4.32-4.83-6.86-10.46-7.32-16.93-0.12-1.73-0.75-1.56-2.05-1.26-3.47 0.8-6.32-0.66-8.17-4.18 2.18-0.16 4.36 0.18 6.27-1.04 1.28-0.82 2.05-1.4 0.63-2.89-2.33-2.46-4.43-5.14-5.82-8.27-0.61-1.38-1.66-1.19-2.72-1.17-5.62 0.07-11.11-0.73-16.49-2.32-5.03-1.49-9.13-4.34-12.25-8.57-1.27-1.72-2.12-3.62-2.45-5.71-0.18-1.15-0.53-2.62 0.58-3.34 1.2-0.78 1.88 0.69 2.66 1.31 2.84 2.25 5.9 3.7 9.64 3.09 3.34-0.55 4.4-2.02 3.8-5.3-4.71-25.77 1.92-48.49 18.51-68.49 1.36-1.64 1.91-3.08 1.58-5.34-1.41-9.5-1.74-19.03 0.84-28.44 2.17-7.91 7.13-10.61 14.9-7.98 7.18 2.43 13.33 6.66 19.04 11.52 1.51 1.29 2.63 1.57 4.65 0.87 18.35-6.31 36.95-8.63 55.88-2.58 1.73 0.55 2.01-0.26 2.49-1.44 1.75-4.34 3.55-8.65 5.99-12.66 4.38-7.2 10.11-8.17 16.64-2.91 11.18 9.01 17.27 21.1 20.85 34.65 0.52 1.96 1.24 2.69 3.22 3.03 39.71 6.76 62.4 31.84 73.88 68.88 0.43 1.39 1.06 2.45 2.02 3.52 7.76 8.67 16.17 16.84 21.65 27.29 2.21 4.22 4.18 8.58 6.15 12.93 1.47 3.23 3.3 6.12 6.27 8.18 4.06 2.82 7.82 2.81 11.37-0.65 2.18-2.13 3.31-0.8 4.49 0.7 2.55 3.27 2.37 8.79-0.32 12.62-0.98 1.39-2.04 2.9-3.62 3.48-3.21 1.18-2.62 2.67-1.11 4.98 2.02 3.09 3.31 6.62 3.85 10.27 0.43 2.86 1.83 3.18 4.23 2.74 8.31-1.53 16.61-3.15 24.96-4.41 20.56-3.11 41.17-4.67 61.67 0.35 14.54 3.56 27.12 10.71 37.36 21.74 0.95 1.02 1.78 0.95 2.89 0.74 24.78-4.7 47.25 0.09 66.88 16.39 7.46 6.19 13.19 13.78 17.78 22.27 9.02 16.68 14.53 34.36 15.34 53.4 0.9 21.13-4.22 40.8-14.18 59.33-3.29 6.13-7.2 11.94-9.95 18.37-3.36 7.87-0.02 14.72 7.92 16.2 4.25 0.79 8.32 0.15 12.05-2.19 5.51-3.46 8.63-8.65 10.8-14.59 0.25-0.69-0.06-1.87 0.9-2 0.94-0.13 1.51 0.85 2.03 1.55 2.68 3.67 3.75 7.9 3.8 12.35 0.15 13.12-5.45 23.99-14.9 32.38-20.61 18.31-44.19 25.43-71.26 16.46-2.06-0.68-2.77-0.52-2.56 1.9 1.36 15.51 1.37 31.01-0.82 46.47-0.64 4.5-1.54 8.68-6.38 10.59-1.04 0.41-1.38 1.35-1.65 2.34-1.67 6.17-6.06 9.32-11.97 10.78-6.01 1.49-12.12 2.3-18.3 2.49-14.28 0.45-28.47 0.06-42.26-4.31-8.01-2.54-10.85-7.63-8.57-15.83 1.64-6 4.07-11.78 6.56-17.72zm-254.29-441.12c-13.82 5.25-25.14 14.19-35.74 24.21-6.72 6.35-13.6 12.52-21.02 18.09-5.49 4.12-10.81 8.46-15.8 13.19-8.13 7.7-15.03 16.42-21.61 25.44-3.66 5.01-7.72 9.67-14.21 11.16-0.07 0.02-0.06 0.34-0.1 0.56 1.68 0.33 3.38 0.34 5.03 0.01 8.8-1.74 16.52-5.53 22.91-11.95 10.03-10.09 20.07-20.19 30.83-29.5 18.4-15.93 35.57-33.09 51.78-51.13h-2.15c-3.48-1.17-6.96-0.1-10.28 0.47-27.6 4.71-51.68 16.15-70.28 37.69-9.16 10.61-16.24 22.37-19.11 36.29-0.58 2.83-1.13 5.72-0.63 9.14 3.35-3.12 5.6-6.4 7.93-9.59 10.85-14.9 23.99-27.31 39.81-36.85 2.9-1.75 5.57-3.76 8.03-6.14 7.3-7.04 14.2-14.55 22.64-20.29 6.8-4.65 13.58-9.4 21.97-10.8zm144.45 329.04c0.49 0.23 0.66 0.37 0.83 0.38 23.59 1.83 46.69-0.76 69.26-7.89 2.74-0.86 5.33-2.18 7.99-3.3 0.63-0.26 1.54-0.5 0.87-1.42-2.11-2.91-2.68-6.67-5.18-9.35-5.99-6.42-9.97-13.88-11.5-22.54-0.64-3.63-1.12-7.33 0.06-11.1 2.28 10.34 4.22 20.73 11.49 29.29-1.78-11.94-2.32-23.44 3.94-34.51 0.82 1.07 0.41 1.62 0.25 2.15-3.96 13.56-2.56 26.53 4.17 38.95 7.25 13.38 17.87 23.8 29.34 33.48 6.56 5.53 13.15 11.09 16.78 19.15 5.05 11.21 4.76 23.02 3.43 34.88-0.66 5.92-1.96 11.72-3.67 17.62 22.66 0.08 42.15 7.62 58.66 23.39 0.09-1.14 0.16-1.72 0.18-2.3 0.61-12.75 0.01-25.47-0.91-38.19-0.98-13.62-0.44-27.28-0.8-40.91-0.17-6.3-2.35-11.83-6.51-16.61-3.26-3.76-6.54-7.52-9.61-11.43-6.55-8.35-7.87-17.62-4.34-27.58 1.86-5.26 4.47-10.19 6.97-15.17 12.3-24.52 15.67-50.06 7.29-76.4-6.89-21.66-20.35-38.11-41.58-47.45-16.36-7.2-33.58-7.68-51.01-6.31-15.41 1.21-30.47 4.7-45.68 7.2-2.22 0.37-3.09 1.02-3.3 3.42-0.46 5.17-1.8 10.2-4.21 14.84-3.5 6.74-8.52 11.84-16.22 13.41-4.75 0.97-9.38 0.47-12.93-3.43-0.83-0.91-1.73-2.09 0.66-2.26 2.49-0.18 4.16-1.71 5.49-3.67 3.41-5.01 3.04-10.6 2.48-16.26-2.85 8.27-8.02 15.05-13.22 21.85-2.48 3.25-4.43 6.84-5.65 10.8-2.17 7.04 1.41 11.71 8.72 11.32 0.69-0.04 1.57-0.63 2.15 0.52-3.3 4.19-7.72 5.57-12.72 4.38-9.69-2.3-13.45-9.63-15-18.87-2.24 3.49-3.73 7.05-4.43 10.87-1.93 10.59 5.78 18.59 16.06 15.71 0.69-0.19 1.61-0.8 2.13 0.11 0.38 0.67-0.33 1.31-0.72 1.84-3.06 4.15-7.53 5.38-12.32 5.59-16.86 0.74-32.5-10.86-36.92-27.28-0.48-1.78-0.92-3.58-1.53-5.96-0.98 4.24-0.92 7.8-0.28 11.36 0.65 3.61 2.54 6.75 4.07 10.2-10.4-0.93-19.83-10.17-22.02-21.37-0.69-3.51-1.38-7-2.48-10.43-2.07-6.42-2.59-13.06-2.01-19.78 1.14-13.19 5.23-25.45 11.55-37.04 0.47-0.87 1.44-1.59 1.29-2.86-5.99 2.44-11.74 3.38-17.08-0.98-2.08-1.7-3.41-3.88-3.23-6.95 7.55 3.56 13.09 0.32 13.88-7.72 0.27-2.71 0.08-5.39-1.02-7.91-1.3-3.01-2.62-6.02-4.06-8.97-6.51-13.28-8.36-27.26-6.63-41.86 0.75-6.32 1.84-12.63 1.27-19.04-0.39-4.39-0.84-8.79-3.3-12.9-7.48 17.74-11.14 22.99-16.47 23.36 1.36-1.56 2.67-2.9 3.8-4.38 1.1-1.45 2.14-2.98 2.97-5.41-1.9 1.64-3.17 2.9-4.6 3.93-1.41 1.02-2.8 2.24-5.31 2.28 0.76-0.72 1.1-1.05 1.44-1.37 5.84-5.52 10.19-12 12.08-19.87 3.44-14.34 0.51-27.65-7.02-40.07-3.36-5.55-7.2-10.74-12.75-14.43-2.06-1.37-3.4-0.97-4.71 0.92-1.89 2.72-3.27 5.69-4.62 8.69-6.23 13.83-10.98 27.87-9.06 43.52 2.38 19.35-4.21 35.96-17.51 49.8-9.36 9.73-20.46 16.47-34.67 16.14-0.77-0.02-1.34 0.3-1.91 0.69-9.33 6.36-19.4 10.91-30.67 12.55-1.4 0.2-1.82 0.76-1.21 2.2 1.55 3.66 2.95 7.39 4.43 11.08 5.2 12.92 8.82 26.04 5.03 40.08-0.31 1.13-0.13 1.61 1.28 1.39 14.97-2.4 27.92 2.23 39.22 11.84 8.3 7.06 14.42 15.62 16.58 26.59 0.61 3.07 0.04 6.2 0.24 9.6 2.74-2.26 4.87-4.47 6.67-6.98 2.54-3.54 5.84-5.8 10.15-6.83 6.3-1.5 12.42-3.59 18.32-6.29 13.2-6.03 24.09-14.64 31.08-27.67 1.7-3.18 3.47-6.32 5.09-10.16 0.33 0.9 0.51 1.15 0.49 1.38-0.08 0.89-0.17 1.79-0.35 2.66-3.05 14.51-11.05 25.57-23.44 33.56-0.98 0.63-1.91 1.09-2.09 2.6-2.21 19.17-2.64 38.31 0.64 57.4 3.91 22.76 12.54 43.48 26.98 61.65 1.63 2.04 3.02 4.29 5.24 6.29 0.04-9.5-0.79-18.67 2.59-27.45 0.44 1.15 0.45 2.28 0.43 3.41-0.11 6.37-0.02 12.72 0.93 19.06 2.46 16.5 6.36 32.79 7.17 49.53 0.84 17.5 0.28 34.83-5.83 51.52-0.7 1.92-0.57 2.56 1.65 2.75 7.24 0.62 14.43 1.58 21.37 3.91 11.85 3.98 22.43 10.04 31.45 19.27 0.09-0.95 0.16-1.52 0.19-2.08 0.82-13.76-0.39-27.45-1.44-41.14-1.63-21.32 0.98-42.08 8.34-62.19 3.49-9.55 6.62-19.17 7.74-29.35 0.19-1.75-0.23-3.68 1.37-6.03 2.12 13.08-0.97 24.68-4.57 36.27 12.54-12.21 16.61-28.04 19.3-44.5 1.21 17.2-4.02 32.27-15.22 45.57zm-116.82 60.51c-0.62-8.02-1.17-15.83-0.48-23.69 0.84-9.5 4.34-17.48 12.22-23.24 3.89-2.85 8.16-4.97 12.66-6.61 5.33-1.94 10.71-3.73 16.05-5.63 0.68-0.24 1.96-0.2 1.76-1.23-0.45-2.43 0.2-5.25-2.47-6.97-13.29-8.59-24.37-19.5-33.64-32.27-1.39-1.91-2.11-1.52-3.39-0.04-7.45 8.71-15.56 16.79-23.87 24.68-5.97 5.67-11.2 11.83-14.49 19.5-6.73 15.67-11.32 32.04-15.95 48.4-0.58 2.04 0.06 2.17 1.84 1.68 1.71-0.47 3.52-0.64 5.3-0.83 15.28-1.64 30.16-0.34 44.46 6.25zm227.5 27.62c0.2-0.34 0.33-0.48 0.37-0.65 3.32-14.56 7.06-28.99 12.74-42.85 0.49-1.2 0.32-2.31 0.05-3.49-1.45-6.39-5.22-11.35-9.89-15.67-10.37-9.59-21.49-18.43-30.06-29.83-0.84-1.12-1.66-1.04-2.81-0.49-2.34 1.11-4.71 2.17-7.14 3.03-1.8 0.64-2.24 1.44-1.43 3.24 1.27 2.81 2.34 5.71 3.43 8.59 2.09 5.57 3 11.29 2.29 17.25-0.71 6.01-2.78 11.58-5.26 17.03-3.5 7.68-7.49 15.1-12.08 22.71 19.19 1.44 36.41 6.83 49.79 21.13zm-289.92-207.03c6.26 0.58 12.09-0.73 17.79-3.05 2.74-1.12 3.94-3.06 4.27-5.87 0.49-4.14 0.05-8.16-1.38-12.04-4.81-13.04-14.15-21.88-26.37-27.88-6.42-3.15-13.25-4.84-20.49-4.12-8.74 0.87-7.05 0.07-9.63 8.18-5.8 18.22 3.36 33.25 17.9 40.09 4.16 1.96 8.55 3.07 13.3 2.23 6.05-1.07 10.25-4.51 13.31-9.61 0.4-0.67 0.61-1.66 1.66-1.2 0.98 0.43 0.65 1.31 0.39 2.07-0.26 0.75-0.5 1.51-0.83 2.23-1.99 4.4-5.61 6.99-9.92 8.97zm363.53-6.4c1.9 5.93 3.78 10.95 6.73 15.65 6.08 9.69 10.12 20.2 11.52 31.68 1.97 16.13-0.67 31.72-5.19 47.1-3.7 12.59-8.08 24.97-11.17 37.74-0.21 0.86-0.64 1.67-0.04 2.56 5.3 7.9 5.85 16.89 6.2 26 0.14 3.82 1.94 7.34 3.54 10.83 0.26-0.72 0.27-1.37 0.26-2.02-0.28-13.82 1.14-27.33 6.05-40.44 4.67-12.45 10.42-24.53 13.59-37.52 6.23-25.5 3.95-49.75-10.8-72.11-5.23-7.92-11.94-14.29-20.69-19.47zm-4.56-10.86c1.41 4.78 2.61 6.77 4.91 8.11 23.29 13.63 34.06 34.8 36.38 60.91 1.03 11.65-0.96 23.01-4.2 34.18-1.36 4.67-2.85 9.31-3.38 14.2-0.87 8.11-2.07 16.19-2.84 24.31-0.99 10.33-1.28 20.65 1.44 30.84 1.54 5.77 5.63 12.42 9.72 14.87-6.08-9.03-6.56-18.8-5.91-28.75 0.69-10.49 3.34-20.61 6.02-30.71 4.24-15.98 8.45-31.95 8.86-48.62 0.45-18.33-1.68-36.24-9.92-52.89-8.36-16.86-22.67-26.13-41.08-26.45zm17.43 0.1c11.68 5.2 20.37 13.47 25.96 24.92 10.85 22.21 11.93 45.73 9.01 69.71-1.68 13.77-5.71 27.04-9.11 40.44-2.76 10.83-4.89 21.73-4.28 33.01 0.92 16.88 12.62 28.04 28.96 27.55 6.84-0.21 14.42-3.92 17.52-8.72-0.69 0.33-1.21 0.58-1.72 0.84-9.53 4.69-19.41 3.15-26.8-4.49-6.14-6.35-8.76-14.38-9.76-22.94-1.51-12.86 1.71-25.09 5.39-37.23 3.78-12.47 7.84-24.85 9.25-37.92 1.82-16.77 0.77-33.2-5.08-49.14-6.9-18.78-19.91-30.96-39.34-36.03zm-258.92 281.27c9.78-0.01 18.55-0.84 27.18-3.19 3.79-1.03 6.07-3.19 6.79-7.03 0.26-1.37 0.46-2.75 0.81-4.1 0.47-1.84-0.24-2.66-2.03-3.14-6.34-1.69-12.62-3.61-18.97-5.23-12.91-3.3-25.93-6.09-39.21-7.48-1.71-0.18-2.64 0.12-3.52 1.79-2.5 4.77-4.68 9.66-6.43 14.75-2.17 6.31-1.55 7.54 4.75 9.44 10.27 3.1 20.8 4.36 30.63 4.19zm0.61-445.67c2.08 3.46 5.08 6.11 7.7 9.09 9.19 10.45 15.72 22.15 17.57 36.19 2.3 17.46-1.19 33.83-8.91 49.47-5.25 10.65-12.08 20.36-18.14 30.52-7.49 12.58-12.3 25.84-10.75 40.81 0.53 5.1 2.18 9.71 5.24 13.82-0.69-3.29-1.91-6.43-2.27-9.79-1.13-10.65 2.09-20.24 7.22-29.32 5.72-10.12 13.17-18.94 21-27.44 7.86-8.53 13.45-18.34 15.86-29.65 2.68-12.61 2.65-25.3-0.96-37.82-5.57-19.38-16.99-34.53-33.56-45.88zm-113.13 403.63c0.99 8.12 2.41 15.22 5.95 21.7 1.99 3.66 3.85 4.26 7.65 2.97 3.42-1.16 6.49-3.02 9.45-5.04 9.71-6.64 18.55-14.4 27.82-21.61 4.03-3.14 7.71-7.03 13.29-7.55 1.5-0.14 1.31-1.36 1.05-2.29-0.74-2.68-1.69-5.31-2.4-8-0.7-2.66-2.08-3.24-4.75-2.55-6.85 1.79-13.48 4.2-20.04 6.8-11.45 4.53-22.61 9.9-34.75 12.44-2.45 0.51-4.03 1.13-3.27 3.13zm162.51-349.45c0.49 5.66-1.05 11.22 0.33 16.76 4.75 19.05 0.98 35.99-12.37 50.73-6.95 7.67-13.49 15.74-17.79 25.29-6.08 13.48-7.77 27.14-0.49 40.73 2.85 5.32 7.24 9.11 14.34 10.4-3.89-3.99-5.66-8.36-7.42-12.76-7.05-17.56-4.04-33.06 9.17-46.66 3.81-3.92 7.32-8.13 10.94-12.23 13.19-14.96 17.93-32.01 12.65-51.51-2.01-7.4-5.4-14.19-9.36-20.75zm141.73 343.73c-6.43 0.02-6.42 0.02-8.59 5.21-1.07 2.57-1.98 5.23-3.32 7.65-1.36 2.45-0.94 3.54 1.76 4.43 12.47 4.07 25.16 7.26 37.96 10.08 7.68 1.69 15.44 2.84 23.28 3.47 1.71 0.14 3.19-0.24 3.94-1.98 0.72-1.65 0.27-3.01-0.91-4.35-2.19-2.48-4.69-4.6-7.24-6.65-13.9-11.25-29.86-17.06-46.88-17.86zm-60.85 30.91c7.16-0.08 14.28-0.47 21.34-1.85 4.58-0.9 7.24-3.41 7.96-8.01 0.15-0.98 0.49-1.95 0.54-2.93 0.27-5.83 1.41-5.11-4.74-5.67-16.71-1.52-33.49-2.65-49.63-7.75-1.34-0.42-1.98-0.21-2.49 1.09-1.81 4.63-3.57 9.28-4.43 14.2-0.58 3.34 0.54 5.3 3.64 6.63 1.27 0.55 2.6 0.98 3.94 1.35 7.82 2.14 15.8 2.91 23.87 2.94zm-217.87-62.74c-7.42-0.14-13.79 0.75-20.14 2.13-2.43 0.53-3.48 1.75-3.83 4.12-1.15 7.79-1.94 15.59-1.94 23.47 0 2.35 0.93 2.3 2.64 1.84 6.05-1.64 12.03-3.47 17.87-5.79 12.74-5.05 25.22-10.87 38.72-13.79 1.84-0.4 1.94-1.22 1.31-2.73-0.56-1.35-1.63-1.92-2.85-2.42-10.48-4.27-21.24-7.21-31.78-6.83zm381.36-30.88c0.63-9.85 2.77-19.3 5.69-28.65 4.15-13.29 9.76-26.06 13.49-39.5 4.67-16.84 6.17-33.57 0.24-50.43-3.57-10.15-9.02-19.05-16.69-26.6 0.92 2.4 2.11 4.68 3.03 7.05 7.57 19.46 8.3 39.53 5.07 59.88-2.04 12.81-6.56 24.99-10.07 37.43-2.47 8.76-4.37 17.56-3.92 26.73 0.23 4.88 1.12 9.6 3.16 14.09zm-320.2 76.2c10.59 0.98 20.32 2.28 29.99 4.07 11.83 2.18 23.28 5.89 34.93 8.78 1.82 0.45 3.76 1.18 5.02-1.05 1.26-2.24 1.17-4.27-0.71-6.24-4.7-4.91-9.89-9.19-15.83-12.54-12.52-7.07-25.86-11.1-40.35-10.83-1.14 0.02-2.44-0.31-3.21 1-3.19 5.46-6.39 10.92-9.84 16.81zm191.44-4.71c2.79 0.06 4.43-2.66 3-5.34-1.08-2.02-2.55-3.79-4.23-5.36-13.09-12.15-29-16.71-46.41-17.27-1.43-0.05-2.14 0.61-2.73 1.79-2.43 4.78-4.97 9.51-7.37 14.3-1.82 3.63-1.79 3.77 2.15 4.82 18.17 4.86 36.95 5 55.59 7.06zm-181.26-255.73c0.39-0.25 0.64-0.32 0.66-0.44 2.62-10.86 7.59-20.67 13.44-30.09 6.97-11.23 14.51-22.15 19.39-34.55 6.41-16.3 8.44-32.9 3.1-49.91-2.61-8.33-6.65-15.9-12.72-22.31 2.1 6.73 4.23 13.38 5.31 20.37 3.34 21.6 0.7 42-11.28 60.75-7.21 11.29-13.18 23.17-16.12 36.37-1.44 6.47-2.21 13-1.78 19.81zm-67.79-167.62c-11.35 19.55-25.61 35.61-41.83 50.01-16.25 14.42-34.68 25.17-55.76 32.6 1.15 0.27 1.62 0.46 2.1 0.49 18.76 1.07 36.03-3.19 50.73-15.27 13.23-10.87 24.26-23.76 33.37-38.31 5.6-8.94 9.49-18.48 11.39-29.52zm291.01 460.73c6.86-0.06 13.72-0.21 20.48-1.51 2.72-0.52 5.46-1.03 7.98-2.29 2.23-1.12 3.21-3.29 3-5.4-0.15-1.5-2.41-1.09-3.77-1.32-19.24-3.2-38.14-7.67-56.39-14.67-1.45-0.56-2.26-0.68-2.92 1.02-1.51 3.89-3.21 7.71-4.3 11.74-1.48 5.5-0.79 6.77 4.71 8.42 10.18 3.06 20.63 4.1 31.21 4.01zm94.9-136.13 0.54 0.3c2.22-4.22 4.4-8.46 6.68-12.64 12.78-23.48 17.52-48.27 11.91-74.65-3.55-16.71-9.63-32.11-22.54-44.19-16.79-15.72-35.78-24.96-59.41-21.66-1.11 0.15-2.91-0.36-2.86 1.54 0.05 1.88 0.96 3.06 3.29 2.69 10.14-1.57 19.54 1.32 28.64 5.29 13.53 5.9 24.21 15.53 33.68 26.59 15.34 17.91 20.57 38.67 16.97 61.79-1.43 9.17-3.99 18.06-7.04 26.82-3.28 9.38-6.57 18.75-9.86 28.12zm7.04 56.48c-0.8-0.1-1.09-0.17-1.38-0.16-21.17 0.49-36.38-13.67-38.61-35.08-1.01-9.76-0.37-19.46 1-29.15 0.54-3.8 1.03-7.61 1.55-11.41-2.27 2.73-3.1 5.92-4.39 8.9-6.23 14.4-8.93 29.44-8.28 45.08 0.21 5.15 1.31 10.05 4.91 14.07 10.62 11.82 30.59 15.41 45.2 7.75zm-359.84-200.02c-7.99 24.52-11.81 49.22-2.89 74.22 7.29 20.42 21.5 35.52 38.78 48.21-30.8-35.35-40.32-76.82-35.89-122.43zm35.21-66.82c7.64-2.44 11.82-8.2 14.66-15.11 6.56-15.95 7.68-32.61 6.19-49.57-1.07-12.16-4.28-23.68-10.93-34.06-5.43-8.48-12.31-15.3-21.95-19.05-0.73 2.33 0.07 3.82 1.92 5.15 6.48 4.68 11.56 10.6 15.28 17.68 5.06 9.62 7.02 20.03 7.7 30.74 0.84 13.29-0.17 26.48-2.55 39.55-1.63 8.94-3.69 17.78-10.32 24.67zm33.77 94.3c-1.01-2.57-2.76-4.73-3.65-7.39-4.23-12.61-3.13-24.92 2.01-36.98 4.63-10.88 12.03-19.91 19.75-28.65 11.18-12.67 15.33-27.06 11.43-44.14-0.76 3.81-1.53 7.1-2.06 10.43-1.48 9.19-5.34 17.24-11.32 24.32-3.8 4.48-7.68 8.9-11.41 13.43-7.47 9.07-13.93 18.73-16.42 30.45-3.19 14.92-0.69 28.25 11.67 38.53zm-203.13-151.7c17.51-42.81 50.08-64.91 94.96-70.79-0.7-0.06-1.28-0.13-1.87-0.14-16.2-0.25-31.91 2.38-46.95 8.47-19 7.69-33.33 20.38-41.05 39.74-2.86 7.18-5.67 14.47-5.09 22.72zm222.85 46.33c9.41-23.48 6.39-45.84-6.32-67.42-12.85-21.81-34.93-35.9-50.6-38.14 8.34 5.76 16.14 12.22 23.99 18.61 15.35 12.49 26.83 27.59 32.01 47.02 3.54 13.27 2.91 26.56 0.92 39.93zm21.36-19.81c0.9 2.16 1.77 4.33 2.71 6.48 6.75 15.56 8.36 31.23 0.97 47.07-3.94 8.43-10.24 15.13-16.33 21.97-5.24 5.89-10.16 12.02-13.81 19.05-2.69 5.19-4.14 10.67-3.52 16.58 1.35-4.48 3.66-8.39 6.19-12.23 5.57-8.47 12.95-15.35 19.72-22.77 6.33-6.95 12.22-14.22 15.52-23.17 6.51-17.69 2.71-33.84-7.61-48.93-1.03-1.5-1.89-3.18-3.84-4.05zm185.56 240.11c2.98-12.67 7.04-24.22 10.54-35.94 4.88-16.32 8.23-32.83 5.45-50-1.58-9.8-5.16-18.85-10.18-27.38 0.6 6.16 1.1 12.31 0.94 18.46-0.09 3.55 0.16 6.9 1.43 10.23 5.52 14.45 4.14 28.69-1.37 42.81-4.05 10.38-7.91 20.84-11.36 31.44-0.47 1.45-1.47 2.97-0.25 4.51 1.46 1.83 2.96 3.62 4.8 5.87zm-272.43-320.13c0.14 1.97 0.87 3.06 1.59 4.08 8.42 11.95 11.18 25.53 11.29 39.8 0.11 14.56 1.69 28.97 3.99 43.32 0.27 1.68-0.18 3.53 1.11 5.42 0.35-1.41 0.66-2.45 0.87-3.5 1.89-9.47 3.11-19.04 3.5-28.69 0.54-13.33-0.47-26.48-5.58-38.98-3.49-8.51-8.66-15.79-16.77-21.45zm-132.94 66.94c32.44-17.35 57.3-42.43 75.61-74.2-22.67 27.32-51.98 47.86-75.61 74.2zm397.61 243.76c0.5-1.39 0.85-2.3 1.16-3.22 3.12-9.43 6.55-18.75 10.11-28.02 3.65-9.52 6.42-19.25 5.32-29.64-0.4-3.8-1.09-7.53-3.1-11.83-1.11 8-2.85 15-5.41 21.75-1.87 4.93-3.55 9.87-4.54 15.08-1.54 8.05-4.79 15.54-7.97 23.05-0.56 1.32-1.46 2.66-0.72 4.25 1.32 2.86 2.64 5.73 5.15 8.58zm-356.11-246.3c25.54-3.48 47.3-42.66 38.79-69.1-0.22 0.44-0.48 0.76-0.55 1.12-2.17 11.33-6.98 21.75-11.14 32.38-5.58 14.26-13.48 26.79-27.1 35.6zm163.67 363.39c2.01-4.79 0-7.83-3.23-10.73-12.95-11.62-28.12-17.97-45.35-19.81-4.17-0.45-8-1.25-9.58 4.27-0.55 1.92-0.65 2.33 1.43 2.32 8.11-0.04 16.03 1.25 23.74 3.77 12.54 4.09 23.74 10.44 32.99 20.18zm18.55-329.06c0 1.35-0.06 2.25 0.01 3.13 0.64 7.9-0.69 15.42-3.96 22.66-3.91 8.67-9.88 15.81-16.19 22.75-5.89 6.47-12.25 12.62-15.6 20.95-2.56 6.36-3.81 12.89-1.02 20.47 0.08-3.33 0.34-5.76 1.03-8.16 1.69-5.84 4.98-10.81 8.35-15.74 4.34-6.35 9.72-11.85 14.82-17.55 12.44-13.92 17.73-29.66 12.56-48.51zm123.22 309.58c23.54-0.18 43.57 8.14 60.36 24.56 1.48-3.69 0.97-6.4-2.02-9.11-14.27-12.91-30.9-20.01-50.09-21.14-6.24-0.37-6.24-0.36-8.32 5.03-0.04 0.08 0.02 0.19 0.07 0.66zm-191.68-219.78c0.4-2.34 0.64-4.3 1.1-6.21 0.46-1.93 1.07-3.82 1.73-5.7 7.28-20.67 18.73-38.72 33.84-54.56 4.92-5.15 8.59-11.19 10.23-18.27-4.42 8.39-10.91 15.07-17.5 21.71-10.55 10.62-20.3 21.87-26.73 35.6-2.69 5.75-4.26 11.78-4.43 18.13-0.08 3.04 0.03 6.12 1.76 9.3zm-158.57-199.59c2.17-2.04 3.99-3.83 5.9-5.54 4.68-4.19 10.01-7.47 15.37-10.69 0.6-0.36 2.47-0.65 0.82-1.94-4.45-3.49-8.95-6.95-14.4-8.8-4.58-1.55-6.34-0.49-7.28 4.31-1.44 7.36-1.64 14.75-0.41 22.66zm242.73 134.94c-2.97 7.93-3.2 15.93-1.94 24.11 1.01 6.55 2.24 13.18-0.06 19.76-0.11 0.31 0.06 0.72 0.11 1.13 3.53-1.79 6.82-5.27 8.43-9 3.75-8.71 2.33-17.34-0.67-25.86-1.32-3.73-3.19-7.22-5.87-10.14zm-133.16 259.81c0.41-4.99-0.26-6.08-4.32-7.71-14.61-5.85-29.69-7.03-45.13-4.52-4.73 0.77-6.09 2.69-5.69 7.58 18.87-4.56 37.26-3.18 55.14 4.65zm224.04 27.78c2.37-3.91 1.41-6.87-1.65-9.62-2.82-2.53-5.66-4.98-8.87-7-10.58-6.66-22.19-9.96-34.58-10.84-4.3-0.31-5.59 0.47-6.83 4.88 20.05 1.03 38.06 6.81 51.93 22.58zm-251.55-430.96c-38.52-16.03-91.83 16.66-99.91 47.6 0.07-0.06 0.18-0.12 0.22-0.2 0.64-1.24 1.27-2.48 1.89-3.72 5.73-11.46 13.78-20.97 24.61-27.79 16.34-10.29 34.52-14.88 53.62-16.21 6.53-0.46 13.08-0.39 19.57 0.32zm1.31-2.95c0.01 0.02-0.03-0.21-0.16-0.33-0.43-0.41-0.89-0.79-1.34-1.18-7.65-6.61-16.96-7.97-26.35-6.98-20.82 2.2-38.48 11.35-53.19 26.22-1.19 1.2-2.32 2.45-3.48 3.68 24.81-20.79 52-31.32 84.52-21.41zm378.48 365.04c-0.18 2.35-0.56 4.71-0.49 7.06 0.26 9.02 5.12 14.29 14.12 15.53 5.74 0.79 10.79-0.93 15.48-4.12 4.54-3.09 7.13-7.4 8.48-13.32-5.4 7.48-11.8 12.26-20.72 11.22-9.52-1.09-12.84-9-16.87-16.37zm-318.86-321.31c0.46 5.7 0.21 11.35-0.35 16.99-0.93 9.35-1.29 18.67 1.13 27.88 1.3 4.96 2.76 9.85 5.1 14.46 0.05-1.73-0.1-3.4-0.33-5.06-1.88-13.24-1.22-26.64-2.44-39.92-0.45-4.88-1.03-9.79-3.11-14.35zm25.52 6.39c3.12 12.39 4.37 24.95 3.67 37.71-0.7 12.74-3.25 25.02-9.13 37.13 17.13-16.06 14.17-55.72 5.46-74.84zm69.62 146.12c4.83-0.25 8.98-2.03 11.87-5.84 6.16-8.11 8.04-17.48 6.69-27.35-1.15-8.41-4.99-15.52-12.44-20.51-0.07 1.38 0.85 1.98 1.38 2.76 4.09 6.01 6.87 12.54 7.86 19.77 1.46 10.75-0.65 20.18-10 26.98-1.81 1.32-3.6 2.7-5.36 4.19zm-3.15-30.5c-4.27 5.51-8.42 11.09-13.23 16.11-2.32 2.43-4.02 5.11-4.85 8.4-1.16 4.54-2.2 9.08-2.41 13.81 2.59-5.84 6.58-10.67 10.35-15.64 5.12-6.76 8.54-14.29 10.14-22.68zm182.71 229.8c-0.46 7.29-0.41 7.29 5.54 9.89 4.24 1.85 8.69 2.85 13.23 3.46 6.79 0.9 14.33 0.21 18.2-1.53-13.4-0.12-26.01-2.8-36.97-11.82zm51.66-24.66c2.89 5.48 6.73 8.36 12.08 8.08 6.93-0.37 11.94-4.11 15.27-10.21-8.47 5.69-17.23 7.89-27.35 2.13zm-12.71-166.87c-0.16-1.14-0.88-1.36-1.36-1.77-6.06-5.14-12.99-8.75-20.36-11.62-11.72-4.57-23.75-5.39-36.06-3.25-0.72 0.13-1.8 0.13-1.61 1.29 0.23 1.41 1.25 0.87 2.1 0.66 2.79-0.72 5.63-1.2 8.51-1.4 15.02-1 28.73 2.94 41.33 11.01 2.46 1.57 4.83 3.28 7.45 5.08zm-105.96 192.38c-3.91 11.03-6.64 22.35-8.25 33.94 4.94-10.78 7.84-22.06 8.25-33.94zm-138.32-179.21c-0.76-4.53-1.33-8.45-0.93-12.41 0.4-3.97 0.34-8 1.87-12.48-6.94 8.09-7.32 17.39-0.94 24.89zm46.78-81.56c-6.14 3.07-11.48 1.02-16.61-2.63 0.29 4.28 4.75 8.22 9.35 8.42 4.08 0.17 6.75-1.9 7.26-5.79zm-193.26-78.17c-6.29 9.31-14.06 17.38-21.51 25.72 10.06-6.18 17.17-14.8 21.51-25.72zm20.18 397.97c9.65-4.75 18.16-11.01 24.99-19.43-8.82 5.82-16.89 12.63-24.99 19.43zm345.54-54.85c0.23-0.12 0.32-0.17 0.4-0.21-5.69-4.94-11.09-10.13-14.22-17.1-2.67 8.11 2.68 11.45 8.34 14.58 1.82 0.99 3.71 1.85 5.48 2.73zm-344.76-400.6c2.07-5.11 1.95-5.42-2.75-6.89-3.3-1.04-6.71-1.49-10.23-1.66 4.84 2.05 9.23 4.74 12.98 8.55zm-83.9 117.11c-1.02-3.21-1.82-5.64-2.55-8.09-0.47-1.58-1.74-1.23-2.68-0.98-1.57 0.42-0.47 1.5-0.13 2.1 1.31 2.32 2.72 4.59 5.36 6.97zm0.11 8.27c-1.26 2.79-0.72 4.91 1.24 6.7 0.32 0.29 0.74 0.74 1.27 0.44 0.49-0.27 0.59-0.8 0.5-1.3-0.37-2.14-0.99-4.17-3.01-5.84zm397.27 176.86c-2.8 4.11-5.27 11.06-5.06 14.2 1.97-4.66 3.75-9.01 5.06-14.2z"/> <path d="m145.47 234.37c-0.04 1.37 0.87 2.27 0.09 3.4-1.45-0.23-2.04-1.47-2.41-2.59-3.91-11.87-3.99-23.62 3-34.36 6.32-9.7 17.42-12.46 28.78-8.03 2.59 1.01 5.1 2.24 7.73 3.13 1.87 0.63 3.86 0.96 5.87 0.3 0.63-0.21 1.48-0.53 1.96 0.09 0.54 0.71 0.08 1.52-0.32 2.21-0.82 1.4-1.8 2.77-3.32 3.32-2.01 0.73-1.67 1.66-1 3.24 4.22 9.99 1.68 21.14-6.48 28.95-6.96 6.66-18.79 8.55-27.84 4.52-2.22-0.99-4.03-2.51-6.06-4.18zm1.36-6.62c0.86 4.05 2.86 6.72 6.38 8.3 7.44 3.33 17.93 1.56 23.96-4.07 7.27-6.79 9.38-14.95 6.42-24.39-0.55-1.76-1.04-3.71-3.2-5 3.42 11.36 2.73 21.38-7.83 28.25-8.16 5.31-16.51 4.16-25.73-3.09zm11.2-27.63c-3.95-0.06-7.07 3.11-7.1 7.24-0.03 3.77 3.01 7.06 6.58 7.15 3.73 0.09 7.15-3.42 7.14-7.33-0.01-3.85-2.97-7-6.62-7.06zm12.76 17.06c-1.62 0.38-2.28 1.43-2.28 3.02 0 1.58 0.95 2.52 2.33 2.56 1.66 0.05 2.4-1.23 2.47-2.77 0.07-1.7-1.03-2.45-2.52-2.81z"/> <path d="m199.6 95.83c-0.06 8.08-0.57 16.12-2.93 23.92-1.49 4.94-4.07 9.06-9 11.29-4.03 1.82-7.36 0.92-9.82-2.78-2.47-3.71-3.1-7.98-3.22-12.26-0.39-13.97 2.55-27.26 8.64-39.85 0.43-0.89 0.97-1.74 1.58-2.52 3.28-4.23 7.5-4.15 10.52 0.28 3.33 4.89 3.82 10.58 4.21 16.25 0.13 1.88 0.02 3.78 0.02 5.67zm-2.96 1.25c0-7.65-0.21-13.51-2.43-19.07-0.8-1.99-1.99-4.01-4.2-4.25-2.2-0.25-2.83 2.11-3.88 3.59-0.34 0.48-0.6 1.03-0.85 1.57-5.84 12.93-8.33 26.46-7.09 40.62 0.2 2.26 0.79 4.51 1.99 6.5 1.85 3.08 3.83 3.6 6.99 1.87 3.18-1.74 4.77-4.71 5.88-7.95 2.73-7.98 3.43-16.28 3.59-22.88z"/> <path d="m170.34 178.14c-3.58-0.76-7.42-1.05-11.31-0.74-4.79 0.37-9.12 1.84-12.83 4.98-0.68 0.58-1.45 1.05-2.18 1.56-0.69 0.48-1.39 0.76-2.2 0.24-0.85-0.55-0.67-1.36-0.56-2.14 0.47-3.23 1.98-5.9 4.84-7.49 7.7-4.29 15.52-4.25 23.34-0.27 0.78 0.4 1.47 1.02 2.12 1.64 0.53 0.51 1.5 1.01 0.97 1.92-0.4 0.67-1.28 0.23-2.19 0.3z"/> <path d="m123.43 271.18c-4.98-1.42-6.02-0.89-9.69 4.5-1.01-2.87 0.86-6.11 4.13-7.15 3.49-1.11 6.89 0.3 8.86 3.67 1.8 3.09 1.52 6.28-0.79 8.46-1.74 1.64-3.83 2.39-5.98 1.13-2.28-1.33-2.19-3.66-1.49-5.84 0.69-2.16 2.16-3.75 4.96-4.77z"/> </svg>