<?xml version="1.0" encoding="utf-8"?>

<svg version="1.1" id="Layer_1" xmlns="http://www.w3.org/2000/svg" xmlns:xlink="http://www.w3.org/1999/xlink" x="0px" y="0px"
	 viewBox="0 0 3210.598 5000" enable-background="new 0 0 3210.598 5000" xml:space="preserve">
<g>
	<path d="M2191.248,1369.612c-243.941-229.795-298.062,93.673-296.951,107.821
		C2003.883,1311.271,2191.248,1369.612,2191.248,1369.612z"/>
	<path d="M2660.454,1322.442c31.492,3.099,67.023,14.784,105.897,40.424c-4.443-9.412-110.194-153.535-189.657-112.457
		c-28.727,14.849-54.016,53.899-69.835,132.262C2506.86,1382.671,2564.979,1313.031,2660.454,1322.442z"/>
	<path d="M550.734,4380.48c-43.984,18.571-54.629,95.458-20.49,138.616c40.395,51.174,106.587,12.54,102.092-63.262
		C628.887,4398.866,587.353,4364.878,550.734,4380.48z M582.986,4517.664c-10.289,4.344-23.413,2.069-34.993-12.611
		c-25.669-32.398-17.28-91.587,11.557-103.764l0.012-0.012c13.258-5.6,26.102,1.339,34.993,12.611
		C620.089,4446.241,611.958,4505.424,582.986,4517.664z"/>
	<path d="M524.866,4164.267c-8.699,38.892,4.156,85.747,41.628,94.147c53.291,11.697,97.871-68.46,73.944-126.813
		C615.582,4071.019,541.188,4090.814,524.866,4164.267z M571.452,4236.327c-24.453-5.406-30.118-42.288-24.512-67.133
		c10.809-48.545,55.506-70.712,72.564-29.029C637.042,4183.126,604.212,4243.66,571.452,4236.327z"/>
	<path d="M719.954,3933.659c31.229,0,66.953-33.508,72.944-68.338c4.782-28.304-11.949-45.702-34.058-45.702
		c-31.164,0-67.029,33.497-72.944,68.344C680.997,3916.344,698.067,3933.659,719.954,3933.659z M708.175,3891.75
		c7.038-41.155,69.349-70.758,62.44-30.257C763.517,3902.717,701.335,3932.274,708.175,3891.75z"/>
	<path d="M942.312,3607.673c-43.739-38.321-129.363,59.149-85.349,97.595C900.485,3743.557,986.326,3646.279,942.312,3607.673z
		 M880.171,3690.87c-30.796,0,1.304-68.806,38.892-68.806C949.836,3622.059,917.772,3690.87,880.171,3690.87z"/>
	<path d="M793.571,4041.972c-31.316,0-67.023,33.642-72.944,68.338c-4.834,28.153,11.908,45.702,34.058,45.702
		c31.223,0,66.976-33.525,72.944-68.355C832.434,4059.387,815.662,4041.972,793.571,4041.972z M805.338,4083.827
		c-7.015,41.115-69.279,70.893-62.434,30.271C749.978,4072.76,812.33,4043.491,805.338,4083.827z"/>
	<path d="M764.511,4409.096c43.996,38.272,129.269-59.261,85.349-97.607C806.285,4273.08,720.568,4370.496,764.511,4409.096z
		 M826.647,4325.898c30.772,0-1.339,68.783-38.881,68.783C756.619,4394.681,789.409,4325.898,826.647,4325.898z"/>
	<path d="M671.907,4596.352c-16.158,27.206-4.963,75.12,21.542,97.607c37.729,32.152,78.568-7.096,59.446-65.515
		C736.176,4577.533,690.877,4564.313,671.907,4596.352z M730.664,4676.427c-15.79,26.546-58.412-36.408-39.325-68.538
		C707.38,4580.98,749.511,4644.66,730.664,4676.427z"/>
	<path d="M986.659,4058.422c-31.164,0-66.952,33.42-72.974,68.326c-4.852,28.398,12.148,45.713,34.081,45.713
		c31.246,0,67.058-33.665,72.944-68.366C1025.534,4075.917,1008.815,4058.422,986.659,4058.422z M998.409,4100.282
		c-7.033,41.29-69.338,70.758-62.416,30.283C943.002,4089.404,1005.395,4059.83,998.409,4100.282z"/>
	<path d="M1030.181,3802.59c-37.08,0-83.28,45.773-93.615,86.811c-8.301,32.8,8.833,51.034,31.275,51.034
		c37.203,0,83.169-45.862,93.592-86.812C1069.705,3820.858,1052.688,3802.59,1030.181,3802.59z M1039.523,3848.083
		c-13.527,53.104-94.282,99.228-81.047,46.833C971.764,3842.254,1052.746,3795.451,1039.523,3848.083z"/>
	<path d="M2096.259,1889.612c130.666-0.941,208.288-155.768,136.67-272.147c-0.719,24.635-21.355,44.533-46.539,44.714
		c-26.002,0.187-47.059-20.285-47.234-45.679c-0.199-27.043,22.682-48.755,50.549-46.633
		c-108.972-81.806-260.17,1.456-259.141,145.217C1931.272,1812.16,2005.321,1890.261,2096.259,1889.612z M2056.548,1757.093
		c14.615-0.106,26.429,11.482,26.534,25.857c0.105,14.386-11.546,26.125-26.16,26.231c-14.615,0.106-26.464-11.463-26.57-25.857
		C2030.254,1768.948,2041.94,1757.198,2056.548,1757.093z"/>
	<path d="M2385.219,1736.234c-1.017-146.888-109.838-275.047-260.158-275.625c-230.016,1.678-341.62,302.26-179.497,474.648
		C2108.056,2107.996,2387.02,1983.946,2385.219,1736.234z M2289.424,1558.919c146.111,155.406,47.457,428.886-160.539,430.378
		c-120.173,3.391-232.63-104.612-233.735-249.53C1893.549,1516.769,2142.728,1402.945,2289.424,1558.919z"/>
	<path d="M2732.51,1611.537c-21.402,0.151-38.746-18.257-38.91-41.067c-0.169-23.565,17.807-43.885,41.821-41.675
		c-89.588-73.781-214.408,0.667-213.479,130.151c0.625,87.238,61.627,157.464,136.489,156.92
		c107.797-0.778,171.307-140.195,112.299-244.596C2770.198,1593.444,2753.262,1611.385,2732.51,1611.537z M2626.01,1743.565
		c-28.732,0.204-29.089-46.597-0.339-46.808C2654.392,1696.553,2654.684,1743.361,2626.01,1743.565z"/>
	<path d="M2916.046,1844.225c-4.127-90.828-3.338-176.416-15-262.731c122.313-23.997,204.301-96.13,259.544-225.386
		c119.565-279.789-6.676-505.25-54.302-520.788c-173.399-56.378-338.445,200.664-403.761,376.064
		c-62.907-48.064-140.569-83.537-232.378-106.114c-17.906-101.717-4.466-194.469,204.581-339.96
		c318.108-221.032,385.779-478.693,111.919-737.296c-80.059-78.977-232.208,23.535-140.92,127.825
		c4.466,5.079,9.114,10.312,13.907,15.691c80.679,90.558,189.949,213.175,33.538,382.354
		c4.25-103.624-44.434-236.804-120.495-268.459c-63.357-26.465-139.99,41.927-82.216,127.644
		c42.552,63.252,84.239,215.887,1.602,301.307c-24.488-88.681-190.37-189.078-237.195-138.512
		c-95.352,102.565,89.406,145.427,106.92,207.784c16.129,57.377-33.491,170.079-36.846,298.314
		c-117.314-9.775-215.881-0.941-321.691,15.853c-34.555-92.223-31.626-158.925-24.102-196.765
		c12.37-61.633,156.336-130.14,58.23-195.064c-55.869-37.203-193.234,50.947-205.996,140.225
		c-83.221-63.083-34.783-179.526,19.718-268.809c53.156-86.77-30.679-140.091-99.771-116.945
		c-105.377,35.245-121.582,176.79-100.286,277.023c-99.297-61.727-154.81-124.324-165.145-186.266
		c-15.193-91.113,67.21-167.36,115.923-227.199c87.647-107.797-85.513-195.356-164.865-111.375
		c-276.474,279.66-157.464,520.783,201.81,699.222c138.78,69.063,200.086,147.438,234.378,221.283
		c-89.249,34.52-166.25,87.594-221.955,153.289c-38.173-38.846-76.663-105.359-99.111-153.541
		c-121.184-258.146-318.453-365.781-566.609-204.178c-37.39,24.324-114.421,344.004,123.757,555.894
		c125.37,111.603,286.435,117.665,416.16,122.278c-156.254,113.643-253.441,313.525-206.943,611.88
		c26.546,174.802,141.148,294.005,297.782,376.035c-38.711,257.62-139.271,383.323-630.048,860.618
		c-137.746,133.846-413.272,333.242-515.779,566.69c-76.189-52.104-249.442-193.013-244.584-394.455l0.602-25.353l-22.629,11.389
		c-63.375,31.684-68.431,182.794-56.974,267.547c-45.428-58.002-86.483-160.504-105.073-204.879
		c-10.248,105.816-31.287,260.046,55.366,378.781c-40.699-19.162-76.563-49.104-96.983-65.438l-0.123,31.498
		c-0.772,212.397,158.609,354.599,441.169,398.494c62.662,316.535,354.036,460.694,674.248,510.278l0.801,1.958
		c77.458,24.651,166.233,45.551,247.963,51.023c3.011,0.597,6.004,0.936,9.003,1.333l0.064,0.057
		c46.726,4.413,92.154-7.987,139.634-56.267c191.75,86.021,436.2,106.39,619.607-3.005c13.1-5.963,10.879-27.411,9.926-36.682
		c-7.103-68.281-76.557-276.468-92.183-303.576c-10.879-38.272-23.15-82.404-36.028-133.427c2.414-1.384,2.689-1.63,3.923-2.483
		c16.222-15.619,31.673-31.433,46.375-47.426c30.439,129.919,61.662,251.711,73.839,281.911l-0.871,1.17l0.941,1.261
		c-10.581,56.361,44.399,173.774,93.586,208.125c110.142,76.972,503.415-1.176,559.962-55.507l1.216-2.303
		c19.625-51.614-105.459-325.007-127.375-334.815c-3.537-1.59-7.425-3.017-11.458-4.355
		c-103.127-223.792-196.725-590.642-312.157-786.138c24.325-307.469-29.27-597.253,37.975-775.479
		c3.905-10.33,6.571-20.997,8.19-31.952c19.332,9.428,39.044,18.029,59.142,25.744c131.648,77.269,289.007,50.215,349.249-21.302
		c54.764-65.075,73.313-187.079,3.969-290.551c80.474-13.85,336.955-75.311,361.005-298.267
		c11.633-107.874-14.889-184.712-63.463-241.001C3137.036,1969.384,3042.24,1871.583,2916.046,1844.225z M3079.379,2029.591
		c0,90.299-107.575,163.761-239.808,163.761c-132.227,0-239.797-73.458-239.797-163.759c0-90.318,107.569-163.812,239.797-163.812
		C2971.809,1865.773,3079.379,1939.273,3079.379,2029.591z M2840.377,1378.532c22.893-137.851,80.971-371.334,219.705-380.05
		l0.012,0.293c9.809-0.655,8.067-0.572,9.64-0.549c29.06,36.163,90.646,340.013-189.219,482.558
		C2870.255,1444.557,2857.921,1412.386,2840.377,1378.532z M2886.524,1756.169c0.777,25.763,1.532,52.443,2.981,83.368
		c-14.433-1.988-27.078-2.917-40.062-3.255C2865.409,1813.247,2878.235,1786.322,2886.524,1756.169z M2821.045,1836.619
		c-71.144,3.548-134.735,27.33-179.772,63.487c-84.005-23.079-147.222-112.276-147.993-219.021
		c-0.871-124.751,83.812-226.853,188.803-227.608C2851.011,1453.482,2937.19,1693.098,2821.045,1836.619z M3057.311,849.993
		c12.154,0,38.857,2.613,48.059,10.663c28.183,24.646,52.326,81.778,63.585,118.769c23.775,78.071,39.839,207.679-28.528,367.663
		c-51.701,121.003-128.492,188.785-242.708,211.889c-2.765-17.052-6.892-37.753-11.341-55.939
		c162.912-80.941,238.464-225.773,231.525-387.761c-2.04-47.707-11.756-92.633-24.079-118.039
		c21.688-0.321,41.36,0.427,41.623,0.438l1.883-17.292c-21.414-2.94-44.703-6.301-70.069-4.647
		c-151.823,0.865-217.272,222.499-244.374,371.574c-27.739-47.445-62.013-87.542-103.027-121.938
		C2782.421,1052.083,2920.547,849.993,3057.311,849.993z M2370.973,918.091c30.907-146.129,20.741-158.089-57.657-214.969
		c-53.87-39.074-85.8-65.071-42.119-112.083c30.808-33.21,199.636,61.019,201.916,145.772l0.602,22.471l17.538-14.065
		c104.36-83.73,76.703-256.908,17.701-344.601c-20.232-30.013-22.319-58.838-5.717-79.1c14.475-17.649,40.073-24.126,60.855-15.497
		c74.149,30.855,119.816,180.286,103.828,276.456l-5.53,33.198l24.266-23.342c203.435-195.696,74.768-340.082-10.376-435.633
		c-4.735-5.338-9.365-10.517-13.784-15.549c-72.512-82.829,48.702-156.318,108.651-97.059
		c268.985,253.99,189.832,495.16-109.154,702.927c-213.771,148.776-231.788,249.74-215.385,352.932
		c-31.667-6.852-64.93-12.124-99.333-15.744C2348.654,1024.035,2360.521,967.505,2370.973,918.091z M1648.666,891.884
		c-340.082-168.927-464.721-391.63-195.696-663.738c59.698-63.188,200.817-3.437,131.514,81.783
		c-50.438,62.089-137.798,141.937-120.623,244.94c17.467,104.711,132.894,177.305,223.674,230.11l-8.295-27.195
		c-28.978-95.006-17.596-243.841,79.141-276.181c47.147-15.831,116.636,13.99,73.652,84.14
		c-69.39,113.69-110.802,243.766,4.168,310.374l18.467,10.685l-1.754-21.255c-6.635-80.819,130.076-168.922,172.108-140.995
		c73.944,49-52.911,98.024-67.753,172.107c-7.95,39.886-11.247,109.732,23.769,205.277c-29.785,5.952-58.757,13.825-86.682,23.506
		C1858.877,1047.647,1795.187,964.793,1648.666,891.884z M1478.879,2466.645c-94.165-88.781-145.427-196.55-145.427-391.595
		c0-344.484,219.132-446.044,231.94-466.61c67.9,3.04,37.957,7.179,119.372-11.399c-51.169-6.337-63.965-8.518-106.359-10.71
		c-136.828-7.062-319.376,1.695-455.064-118.998c-116.21-103.418-165.753-244.508-157.44-388.358
		c2.414-41.71,9.365-74.973,16.316-97.667c46.819,12.896,52.18,14.001,103.536,29.919c-10.809,17.747-22.816,49.321-28.545,86.77
		c-39.074,255.475,263.665,508.542,490.543,400.767c36.332,23.238,68.315,36.308,69.759,36.899l7.541-15.691
		c-0.292-0.158-24.611-13.784-55.015-33.385l0.766-0.427l-16.129-9.658c-60.241-40.266-119.559-142.236-150.694-209.006
		c-32.889-70.624-103.255-274.889-267.313-274.889c-9.038,0-18.309,0.854-27.622,2.157c-67.818-21.097-73.751-17.532-125.557-17.532
		c5.448-16.813,10.727-27.008,13.633-29.335c85.075-55.413,184.811-91.791,283.26-63.732
		c208.246,59.283,243.918,310.07,358.497,421.802c19.426,18.912,31.877,14.171,62.212,13.551
		c-34.66-18.24-29.767-15.649-30.147-15.895c114.888-136.144,276.818-179.473,451.592-194.433
		c371.971-31.842,689.851,85.595,749.28,454.473c-35.602-78.194-106.605-132.812-188.575-132.812
		c-121.383,0-213.525,116.56-212.561,250.372c0,102.021,57.921,203.056,151.168,236.436c-6.22,6.325-11.984,12.908-17.135,19.765
		c-146.883,46.013-216.53,179.159-304.229,189.295c-165.817,19.099-367.002,92.72-323.597,254.249
		c58.973,219.553,154.021,192.388,316.149,375.941c18.303,37.67,41.763,73.056,70.396,104.086
		c-211.742-115.316-179.561-142.247-378.905-172.469C1820.476,2664.45,1601.806,2582.877,1478.879,2466.645z M1107.276,1017.944
		l6.501,2.034l0.655-3.063c224.077-28.153,234.664,315.717,412.167,466.382c-103.477,40.419-235.021,18.24-351.435-106.868
		c-98.07-105.377-106.605-207.318-96.497-274.275C1085.577,1056.357,1101.588,1025.608,1107.276,1017.944z M427.434,4325.057
		l0.503,1.969c1.912,4.975,3.291,30.177,7.752,60.831c-202.582-33.825-387.597-132.268-404.094-335.839
		c79.346,53.906,104.109,45.639,145.375,42.733l-25.459-23.829c-73.956-69.174-92.107-171.191-89.219-272.26
		c67.064,135.168,98.146,136.704,135.121,152.863l-11.534-32.94c-19.455-55.558-21.957-196.878,10.365-254.991
		c14.924,201.017,189.879,338.568,262.379,387.27C426.504,4135.663,414.456,4226.736,427.434,4325.057z M1138.458,4907.823
		c-63.509-159.417-94.978-392.051,108.201-604.349c78.89,6.465,142.604,10.582,218.67,35.889
		c-183.033,111.562-252.441,443.237-122.985,611.733C1280.688,4944.833,1212.507,4930.358,1138.458,4907.823z M1384.703,4955.158
		c-150.548-145.216-78.34-506.648,111.878-604.392C1711.229,4441.428,1585.888,4961.4,1384.703,4955.158z M1552.145,4356.88
		c7.997-7.741,15.924-15.62,23.804-23.601c0.421,16.607,1.046,33.234,1.847,49.841
		C1569.911,4373.239,1562.417,4365.432,1552.145,4356.88z M2120.257,4904.475c-176.866,103.635-403.703,83.872-590.22,4.607
		c1.479-1.801,6.197-7.967,5.676-7.301c66.824-86.304,100.864-214.145,100.098-321.154c114.368-29.663,283.553-8.121,397.038,19.034
		C2048.779,4634.15,2126.132,4865.463,2120.257,4904.475z M2023.005,4572.323c-114.181-25.627-273.743-44.714-388.047-16.633
		c-2.625-45.088-12.072-92.458-31.983-132.805c-18.444-265.472,16.766-550.591,48.351-654.829l-16.368-5.94
		c-49.07,116.666-61.165,414.242-59.622,540.601c-13.492,14.041-27.166,27.762-41.02,41.078
		c-14.667-9.377-26.037-14.135-39.237-19.051l-0.018,0.006c-90.844-33.976-164.157-38.278-259.778-45.891l-0.59,0.603
		c-46.971-3.56-84.326-3.331-116.981-3.331c-270.353,0-230.56-4.958-312.811,27.205c304.072-3.128,337.346-4.278,406.579,0.643
		c-197.093,218.032-157.838,457.594-107.318,596.819c-293.239-50.232-563.376-173.089-632.755-461.297
		c-15.585-85.992-29.557-141.588-22.483-229.082c27.119-343.951,345.028-533.802,554.268-737.447
		c492.209-478.68,596.101-607.817,636.145-866.453c196.771,96.222,360.104,108.594,417.557,121.319
		c87.472,458.73,23.091,771.44-148.104,1100.563c-2.28-22.887-4.501-46.193-6.6-70.162l-17.403,0.474
		C1881.079,3880.03,1932.289,4249.763,2023.005,4572.323z M2656.058,4523.487c21.039,22.547,122.125,252.08,116.858,300.102
		c-57.85,45.628-428.957,119.255-528.505,49.772c-50.45-35.28-99.105-162.182-80.731-191.4
		C2326.592,4526.13,2572.602,4487.156,2656.058,4523.487z M2625.349,4490.102c-124.329-19.584-332.494,39.628-471.123,168.497
		c-11.622-38.46-39.074-142.17-70.746-278.432c157.867-181.444,230.712-391.175,254.99-628.628
		C2441.69,3944.894,2530.074,4275.915,2625.349,4490.102z M2357.241,2926.677c-124.528,329.6,149.198,1010.718-349.605,1498.278
		c-32.924-134.628-68.771-314.477-94.773-557.062c185.091-342.901,255.569-664.269,167.899-1134.089
		c83.268,23.283,148.753,86.963,284.248,157.792C2363.987,2903.773,2361.462,2915.494,2357.241,2926.677z M3134.435,2316.049
		c-17.485,162.171-175.638,247.467-332.722,274.241l0.625-2.052l-19.695,4.892c-0.637,0.072-1.064,0.123-1.157,0.129l-2.303,0.551
		l-1.321,0.508c-145.825,36.234-287.955,5.583-419.147-71.309l-0.059,0.017c-25.57-15.696-51.818-34.182-74.909-55.992l-15,19.975
		c21.519,20.723,51.163,41.546,76.382,57.108c12.557,40.319,30.761,80.269,49.76,112.287l0.123,0.654l1.064,1.333
		c24.728,42.219,60.668,85.067,84.344,106.407c78.147,73.881,166.332,77.897,223.72,47.069c53.741-29.546,60.51-71.729,82.35-165.73
		c29.65,50.84,38.886,109.007,27.376,163.004c-20.753,97.344-93.896,139.136-195.438,139.136
		c-127.083,0-239.797-76.621-301.505-204.973l-1.321-2.152c-166.256-189.188-255.949-157.744-312.25-367.307
		c-37.969-141.411,158.984-203.588,300.284-219.884c94.031-10.91,157.756-127.727,280.028-179.818
		c-57.009,137.827,113.766,281.501,322.153,242.849c60.972,77.429,29.358,171.085,28.99,172.124l16.216,6.36
		c0.479-1.116,41.242-98.865-16.468-185.143c67.724-18.725,122.324-56.823,150.747-104.914
		C3124.421,2156.102,3144.408,2223.591,3134.435,2316.049z M2410.269,2633.526c37.823-8.723,78.165-12.183,116.87-5.418
		c0.035-0.006,0.099,0.017,0.158,0.006c10.569,1.735,20.922,4.333,32.135,8.132l-0.415,1.327
		c32.596,15.831,60.867,44.018,74.78,68.712l3.145-1.484c-0.169-0.428-14.649-36.068-49.199-62.492
		c25.342-9.734,54.062-10.464,82.947,1.59l0.023-0.006c48.386,19.296,76.253,66.614,71.53,59.826
		c1.099,1.584,2.069,3.325,3.133,4.958c-13.399,47.218-25.453,71.717-71.577,88.307c-92.674,31.573-171.897-33.953-230.414-111.608
		l-6.886,2.906l-0.193-0.257l5.922-4.222C2431.84,2669.086,2422.124,2654.951,2410.269,2633.526z M2406.136,2625.919
		c-9.967-18.508-19.981-40.353-28.469-63.088c49.982,26.874,100.782,45.773,150.957,57.411
		C2488.042,2613.094,2445.742,2616.456,2406.136,2625.919z M2535.668,2621.706c8.88,1.941,17.766,3.759,26.68,5.261l-0.526,1.684
		c-0.421-0.146-0.83-0.302-1.257-0.451c-0.035,0.006-0.041-0.023-0.041-0.023
		C2548.903,2624.417,2544.215,2623.487,2535.668,2621.706z M2562.916,2627.043c10.347,1.736,20.706,3.168,31.094,4.313
		c-4.273,1.193-7.424,2.175-13.434,4.713c-1.637-0.737-3.303-1.385-4.963-2.081
		C2570.27,2630.72,2567.136,2629.093,2562.916,2627.043z M2682.697,2640.81c0,0-0.006-0.034-0.041-0.023
		c-4.882-2.455-10.002-4.559-15.117-6.408c39.945-0.959,66.356-4.83,98.608-10.995c-6.01,23.969-11.3,49.684-18.263,76.002
		C2727.535,2669.962,2703.59,2650.795,2682.697,2640.81z"/>
</g>
</svg>
