<?xml version="1.0" encoding="utf-8"?>
<svg version="1.1" id="Layer_1" xmlns="http://www.w3.org/2000/svg" xmlns:xlink="http://www.w3.org/1999/xlink" x="0px" y="0px"
	 viewBox="0 0 2441.194 5000" enable-background="new 0 0 2441.194 5000" xml:space="preserve">
<g>
	<path d="M1198.1,3005.39c-132.614,132.614-377.55,385.627-484.038,539.669C838.311,3409.448,1092.747,3139.796,1198.1,3005.39z"/>
	<path d="M1108.727,3133.175c43.007,55.166,119.874,141.995,166.44,193.865c-89.703,93.634-189.445,202.545-271.659,302.179
		c-41.74-43.009-85.188-86.432-105.415-106.194c27.259,34.776,68.483,82.701,97.432,115.869
		c-22.655,27.452-48.758,61.257-68.926,90.419c1.767-1.767,19.128-21.861,75.758-82.596
		c87.36,99.796,185.001,205.53,274.835,302.042c-46.906,49.85-92.64,99.71-138.096,151.268
		c-96.918-108.32-211.566-227.647-292.95-307.179c0,0,0,0,0,0l0,0c67.013,85.512,208.023,240.531,281.424,320.293
		c-48.132,54.973-111.815,129.72-153.543,190.079c0,0,0,0,0,0c129.506-141.343,53.332-57.959,164.547-178.127
		c117.869,127.857,50.469,53.376,191.61,207.424c0,0,0,0,0,0c0,0,0,0,0,0c-47.218-68.303-124.217-157.325-179.964-220.015
		c60.265-65.221,100.762-109.803,138.259-151.616c128.102,137.62,40.359,43.642,93.653,101.81
		c-27.538-39.835-55.588-74.324-85.68-110.72c45.498-50.859,119.474-134.649,161.615-188.424c0,0,0,0,0,0
		c-40.318,39.4-105.526,105.406-172.068,175.873c-81.891-97.528-185.128-209.611-274.759-302.234
		c90.738-97.183,186.627-200.983,273.606-299.387c96.245,106.883,121.651,132.175,289.568,314.662c0,0,0,0,0,0
		c-0.338-1.014-67.03-102.056-278.272-327.443c33.67-38.315,83.141-95.366,114.497-135.377l0,0
		c-26.208,25.61-72.77,72.276-123.922,125.344C1188.054,3210.157,1121.552,3146,1108.727,3133.175z"/>
	<path d="M1031.219,4495.33L1031.219,4495.33c-46.23-150.873-103.426-298.661-155.934-445.742
		c-102.892-288.272-189.954-523.434-273.989-740.067l-8.439,2.794c38.944,141.059,127.726,441.854,163.578,561.345
		c141.427,473.813,243.106,720.582,251.241,745.36c0.952,1.867,34.902,95.14,42.335,114.443
		c9.384,26.721,24.66,64.276,39.677,95.051c30.389,62.079,62.317,103.94,97.606,127.973l6.362,4.733
		c10.596-5.244,12.547-8.292,19.045-14.49C1143.729,4776.534,1079.751,4653.619,1031.219,4495.33z M1194.475,4950.736
		c-45.734-34.014-71.521-74.51-96.791-126.13c-14.888-30.509-30.096-67.943-39.299-94.156
		c-0.039-0.106-41.86-113.628-42.467-114.853c-22.867-67.781-86.464-196.73-281.29-846.406
		c-42.447-142.115-103.071-351.548-108.068-369.361c73.77,192.66,151.101,402.726,240.341,652.75
		c52.545,147.18,109.667,294.78,155.807,445.359v0.001c48.47,158.083,112.91,282.644,179.505,446.619
		C1200.247,4946.568,1197.179,4949.065,1194.475,4950.736z"/>
	<path d="M640.445,2658.66c-3.456-63.707-72.349-87.006-121.06-50.11c-25.779,19.577-33.078,47.294-19.114,79.116
		c11.766,26.811,32.536,42.098,64.847,42.098c35.549,0,69.621-21.814,74.693-56.798
		C640.961,2665.492,640.445,2659.172,640.445,2658.66z M536.359,2704.978c-15.853-8.753-28.667-38.099-24.49-56.049
		c6.426-27.278,47.669-50.89,81.795-35.067c17.545,8.135,27.846,24.387,29.006,45.76
		C625.113,2704.904,569.47,2723.374,536.359,2704.978z"/>
	<path d="M1278.351,2719.155c-3.439-63.479-72.196-87.124-121.017-50.121c-13.256,10.021-21.616,22.256-24.842,36.337
		c-6.056,26.082,10.052,62.881,33.155,75.726c44.749,24.818,115.949-1.702,112.705-61.94L1278.351,2719.155z M1174.29,2765.534
		c-16.137-8.972-28.708-37.827-24.451-56.163c5.397-23.561,33.945-40.112,58.212-40.112c27.506,0,50.762,18.342,52.525,50.859
		C1263.037,2765.789,1206.938,2783.638,1174.29,2765.534z"/>
	<path d="M1898.944,2646.875c-3.448-63.582-72.207-87.069-121.059-50.106c-49.78,37.817-17.622,97.662,8.367,111.995
		c44.685,24.873,115.946-1.637,112.693-61.887L1898.944,2646.875z M1880.73,2658.551c-5.255,36.137-54.611,52.029-85.85,34.642
		c-16.13-8.897-28.7-37.751-24.453-56.135c6.214-26.904,47.459-50.894,81.76-34.977
		C1874.56,2612.463,1883.77,2636.257,1880.73,2658.551z"/>
	<path d="M2051.997,1577.435c62.31-64.335,181.821-244.708,141.939-397.164c-19.943-76.391-66.447-134.208-138.222-171.846
		c-64.515-33.832-127.84-40.824-160.258-46.629c26.653-76.238,38.737-133.044,39.082-183.312
		c0.332-48.383-10.029-91.826-34.644-145.262c-89.432-194.095-283.099-244.423-424.005-160.325
		c1.37-233.282-105.516-349.411-196.644-405.956C1175.67,2.698,952.665-32.287,843.067,41.16l-15.423,10.336l17.717,5.552
		c65.558,20.544,174.012,70.848,166.154,177.269c-55.723,124.975-426.203,100.859-291.742,522.047
		c-253.076-45.557-351.895,222.829-228.747,412.843c-105.259-4.491-198.107,78.709-238.612,175.936
		c-30.407,72.968,3.4,158.519,50.909,221.74c-428.758,109.61-365.224,698.978-44.257,758.562
		c-5.431,46.911-8.597,99.288-16.674,156.874c0,104.243,7.897,274.385,87.278,342.022c29.513,25.145,55.943,27.603,98.829,35.912
		c0.026,0.1,54.621,198.648,71.092,257.919c0.068,1.421,0.327,3.355,1.32,5.402c25.981,102.81,259.112,920.88,372.713,1239.337
		c83.808,234.835,54.47,149.121,99.26,271.008c0.036,0.104,50.163,137.831,66.248,175.126
		c29.097,65.672,67.317,138.183,126.895,178.719c6.365,4.542,14.512,12.237,22.516,12.237c82.424,0,160.147-224.002,188.22-301.754
		c9.221-25.538,66.226-174.173,102.346-285.667c71.46-207.897,207.859-678.235,213.489-700.334
		c9.752-26.136,146.995-518.904,227.534-832.893c40.668-6.803,81.305-14.194,121.905-22.198
		c158.489-32.484,150.72-180.419,145.942-360.352c-1.852-69.77,6.225-167.969-2.17-233.533
		c54.681-2.694,118.528-19.373,167.182-71.994C2554.114,1973.933,2393.391,1545.126,2051.997,1577.435z M1694.142,3643.323
		c-19.548,67.582-16.792,58.919-18.556,63.576c-17.001,67.481-164.287,556.903-213.341,699.972
		c-18.229,56.213-53.516,156.637-90.571,253.694c-11.716,29.815-41.903,121.59-79.476,199.807
		c-18.007,36.119-62.72,121.063-103.089,121.821c-2.946-1.115-10.138-7.081-12.871-9.012
		c-85.991-59.458-131.325-193.633-167.142-292.6c-27.806-76.834-16.35-42.213-18.953-51.402v-0.48
		c-1.903-3.926-84-217.824-135.596-378.862c-135.672-410.968-316.403-1049.415-337.051-1133.348l-0.127-0.179v-0.651
		c-58.231-209.388-29.086-108.315-69.457-251.69c481.325,90.946,968.847,97.275,1453.024,18.543
		C1875.186,2982.638,1767.346,3390.246,1694.142,3643.323z M2169.949,2488.51c5.061,192.321,11.2,321.959-131.424,351.192
		c-537.299,105.922-1091.891,108.335-1648.039-5.14c-39.597-7.84-69.247-34.778-90.643-82.351
		c-26.265-58.4-39.605-148.784-39.65-268.654c7.901-56.631,11.187-109.367,16.478-155.404
		c78.341,9.529,156.173-13.108,226.563-50.143c18.825,22.144,103.911,96.378,114.148,103.35
		c127.301,86.711,326.536,94.852,468.879,4.376c42.524-27.066,79.941-63.129,116.721-101.884c9.638,0.019,19.274,0.008,28.908-0.048
		c30.346,27.469,92.143,79.389,102.177,85.542c45.292,27.647,95.006,47.279,147.761,58.349
		c105.852,22.239,231.781,26.837,327.547-23.559c109.33-57.526,176.064-171.588,204.582-176.127
		c26.965-4.303,95.076,32.588,131.646,34.922c7.128,0.454,14.596,0.724,22.319,0.746
		C2175.887,2323.016,2169.371,2405.997,2169.949,2488.51z M2339.92,2179.187c-56.499,61.106-136.237,69.609-193.183,65.98
		c-34.373-2.195-101.641-40.143-135.579-34.737c-39.613,6.304-99.823,119.944-210.073,177.953
		c-104.218,54.844-242.464,37.257-315.599,21.89c-50.766-10.653-98.589-29.535-142.129-56.112
		c-11.641-7.138-111.78-92.15-118.558-102.029c1.391,2.028-8.571-9.678-8.571-9.678c-7.597,9.726-5.31,6.858-5.77,7.384
		c-42.716,46.026-85.09,89.903-133.751,120.875c-135.509,86.13-326.747,79.413-449.304-4.069
		c-9.203-6.269-91.23-77.969-110.201-99.588l25.074-30.494c-56.696,30.852-132.086,75.7-229.615,75.696
		c-349.225-0.009-438.111-630.148,8.258-731.309l14.471-3.28c-53.029-61.317-97.577-151.216-66.545-225.682
		c38.626-92.715,133.135-178.598,239.044-163.354l20.972,3.019l-12.525-17.09C383.58,993.403,476.084,719.781,731.065,776.803
		l15.45,3.455c-34.527-101.994-62.349-220.448-5.688-313.323c73.313-120.17,247.778-133.214,288.194-228.269
		c8.14-97.781-67.883-158.986-159.762-192.33c108.687-56.453,308.729-21.253,400.6,35.731
		c89.303,55.412,194.402,171,187.956,406.978l-0.475,17.355l14.368-9.745c133.285-90.394,324.339-46.265,412.017,144.014
		c41.015,89.039,50.286,160.144-7.953,323.401c-0.961,2.685-0.673,5.636,0.785,8.097c3.095,5.22,8.328,6.048,27.796,9.13
		c62.545,9.899,228.686,36.195,272.359,203.475c24.321,92.975-15.108,193.388-52.468,261.252
		c-44.697,81.193-95.405,132.733-104.845,135.843c0.084-0.028,0.165-0.043,0.238-0.057l3.221,17.507
		C2368.251,1538.894,2536.437,1966.821,2339.92,2179.187z"/>
	<path d="M758.499,1280.912c114.115,10.633,200.692,1.558,299.744-13.814c-170.879-21.642-327.53-58.431-549.007-156.535
		l-2.229-11.54c-6.78-35.095-22.058-152.605,66.014-191.215h0.001c95.333-41.812,214.551-11.041,240.256-107.329
		c13.031-48.812-4.816-111.51-5.886-162.243c-2.289-105.825,40.603-177.974,148.044-249.03
		c97.909-64.723,181.024-170.595,92.149-249.835c-6.281-5.585-7.319-6.128-43.559-34.236c21.953,32.345,50.488,68.892,45.053,133.79
		c-0.207,2.977-0.939,5.966-2.174,8.878c-66.74,156.808-426.127,98.562-286.466,511.028c7.229,21.271-11.77,42.5-33.721,37.502
		c-206.275-46.14-295.789,141.79-228.194,305.236l16.842,40.723l-1.968-10.189c6.207,11.536,12.429,21.491,19.125,30.626
		c15.171,20.633-2.171,49.371-27.404,45.728c-3.406-0.547,12.369,1.771-33.456-4.311l28.714,12.613
		C577.27,1250.532,664.116,1272.117,758.499,1280.912z M492.863,1055.32c-34.393-144.201,49.252-291.163,231.894-250.308
		c28.554,6.509,53.626-21.045,44.111-49.043c-137.641-406.506,216.601-341.092,286.229-504.688c1.624-3.828,2.587-7.779,2.857-11.68
		c2.833-33.826-3.394-65.863-18.531-95.539c58.481,49.933,42.185,111.208-8.96,169.137c-29.034,32.885-62.545,57.082-79.936,68.579
		c-98.281,64.998-154.614,137.369-152.034,256.645c1.848,87.549,47.715,196.149-67.627,224.351
		c-55.906,13.66-107.047,13.033-161.419,36.879h0C509.317,926.015,490.008,989.532,492.863,1055.32z M539.696,1157.46
		c-7.019-9.576-13.519-20.117-20.067-32.59c153.932,67.352,310.178,118.413,474.44,142.733
		c-171.147,21.728-337.318,3.576-473.124-51.803C545.124,1207.907,555.092,1178.399,539.696,1157.46z"/>
	<path d="M1249.505,1017.459c-1.625,3.283-1.5,3.01-1.628,3.352l-1.991,3.887c5.119,2.396,9.184,4.104,13.54,7.66
		c92.985,76.46,303.243,68.396,420.236,46.138c84.291-16.088,137.433-43.168,253.44-72.35c-50.054-7.944-64.283-7.736-73.782-23.749
		c-4.377-7.329-5.312-16.912-2.444-25.001c9.382-26.297,14.469-42.909,20.982-65.016
		C1672.647,978.788,1469.974,1047.539,1249.505,1017.459z M1863.96,907.879c-4.544,14.844-9.733,30.454-15.47,46.535
		c-3.791,10.69-2.599,22.857,3.181,32.536c8.469,14.278,20.57,18.195,37.914,21.24c-72.022,20.016-137.921,47.503-211.589,61.563
		c-113.811,21.654-316.259,29.461-408.544-40.811C1475.398,1051.974,1672.323,988.055,1863.96,907.879z"/>
	<path d="M1032.424,586.738l0.005,0.012c-2.859,1.301-2.491,2.46-4.009,11.388l7.021-3.01c8.511-0.552,85.202,4.276,181.407-5.795
		c118.44-12.398,192.89-37.509,262.659-69.792c-16.668-1.864-21.305-1.896-26.69-4.895c-9.551-5.227-15.31-15.249-15.031-26.15
		c0.857-31.68-0.514-54.901-2.88-83.257C1304.475,522.269,1052.774,578.005,1032.424,586.738z M1427.46,423.711
		c1.544,21.809,2.011,43.012,1.429,64.55c-0.386,15.045,8.053,28.62,21.135,34.962c-101.002,44.04-230.143,65.378-384.348,63.462
		C1178.441,555.17,1338.262,499.421,1427.46,423.711z"/>
	<path d="M2026.339,1619.068c-20.11,3.516-40.564-15.439-31.495-38.841l5.908-15.248
		c-143.439,113.564-216.96,123.745-382.85,187.437c-94.743,36.331-234.125,71.32-339.714,74.954l-0.981,6.015l1.814,1.628
		c4.746,4.255,183.186,24.117,436.818-46.34c149.724-41.591,248.685-96.669,348.325-174.309
		C2047.743,1616.155,2036.765,1617.223,2026.339,1619.068z M1713.455,1780.098c-117.958,32.768-253.497,54.797-374.86,51.494
		c97.395-11.73,209.239-42.774,282.494-70.866c143.729-55.184,238.231-75.278,362.551-170.955
		c-1.188,22.73,20.301,42.25,44.241,38.063c1.801-0.319,3.597-0.612,5.412-0.885
		C1940.626,1696.52,1838.531,1745.355,1713.455,1780.098z"/>
	<path d="M1229.713,1651.147c-346.007-14.148-636.15-38.417-939.353-185.292l4.552,10.859
		c17.703,42.233,43.716,73.997,45.941,76.643l-0.005,0.004c9.253,10.75,10.106,27.626-1.7,39.424l-3.756,3.752
		c91.747,64.157,252.4,86.869,377.338,106.506C907.81,1733.632,1059.699,1704.62,1229.713,1651.147z M714.111,1694.25
		c-116.999-18.385-279.81-42.302-365.148-99.153c10.786-13.894,10.526-33.724-1.369-47.543
		c-8.873-10.134-27.102-36.845-39.588-63.319c276.816,131.228,565.447,160.436,869.842,173.666
		C1011.573,1707.14,867.531,1718.309,714.111,1694.25z"/>
	<path d="M194.132,2261.961l14.036,7.841l-8.006-13.943c-47.554-82.816-99.663-208.063-77.852-334.434v-0.001
		c11.944-69.32,34.065-126.793,65.754-170.827c32.641-45.499,91.611-84.483,116.814-136.824l4.326-8.984l-9.576,2.78
		C-37.537,1705.424-22.367,2141.015,194.132,2261.961z M180.835,1745.403c-32.48,45.135-55.122,103.848-67.297,174.509
		c-20.995,121.648,24.848,241.805,70.635,325.619c-196.038-128.291-200.424-528.251,107.756-626.318
		C265.301,1665.287,211.873,1702.139,180.835,1745.403z"/>
	<path d="M1722.552,1850.92c-11.522,1.87-21.64,7.966-28.705,16.643c-23.964,19.467-39.276,49.165-39.276,82.427
		c0,58.644,47.504,106.146,106.146,106.146c58.619,0,106.146-47.501,106.146-106.146
		C1866.862,1875.232,1791.653,1824.28,1722.552,1850.92z M1730.062,1925.799c-15.919,0-28.87-12.949-28.87-28.867
		c0-15.892,12.95-28.821,28.87-28.821c15.931,0,28.892,12.929,28.892,28.821C1758.953,1912.849,1745.993,1925.799,1730.062,1925.799
		z"/>
	<path d="M642.187,1850.936c-11.469,1.883-21.543,7.947-28.591,16.574c-24,19.466-39.349,49.188-39.349,82.48
		c0,58.644,47.529,106.146,106.123,106.146c58.641,0,106.193-47.501,106.193-106.146
		C786.562,1875.23,711.273,1824.258,642.187,1850.936z M649.787,1925.799c-15.933,0-28.895-12.949-28.895-28.867
		c0-15.892,12.962-28.821,28.895-28.821c15.917,0,28.867,12.929,28.867,28.821C678.654,1912.849,665.704,1925.799,649.787,1925.799z
		"/>
	<path d="M1198.099,2107.862c56.446,0,102.217-45.771,102.217-102.218h-204.409
		C1095.907,2062.091,1141.631,2107.862,1198.099,2107.862z"/>
	<path d="M1921.478,1324.354c-2.031,1.643-3.611,3.379-3.556,6.068c0.099,4.774,5.684,7.483,7.663,9.407
		c9.458,8.922,12.247,14.586,17.098,25.397c2.503,5.579,2.96,16.165,9.285,16.165c10.025,0,4.975-23.726,29.795-43.578
		c1.049-0.857,6.912-2.674,6.306-7.753c-0.214-2.969-4.143-5.621-8.525-8.905c-4.885-3.663-6.031-5.052-10.328-12.799
		c-2.383-4.192-4.445-8.828-6.676-13.671c-1.596-3.567-3.496-16.004-10.308-16.004c-6.951,0-7.233,13.175-8.834,16.714
		C1936.274,1311.571,1933.643,1314.519,1921.478,1324.354z M1981.496,1330.36l3.246,0.001h-3.247
		C1981.496,1330.361,1981.496,1330.361,1981.496,1330.36z M1940.936,1314.528c3.482-5.119,6.041-10.697,8.558-16.41
		c1.124-2.484,1.804-7.841,3.074-11.515c1.03,2.026,2.111,5.511,2.593,7.065c1.697,5.476,9.154,22.039,16.168,29.461
		c1.428,1.47,6.91,5.211,9.514,7.541c-1.061,0.618-2.289,1.147-3.276,1.952c-17.838,14.272-20.724,28.586-25.477,40.36
		c-1.246-3.418-1.322-6.035-3.316-10.487c-5.178-11.543-8.441-17.929-18.571-27.486c-1.43-1.389-4.668-3.441-5.496-4.639
		C1925.913,1329.065,1935.333,1322.69,1940.936,1314.528z"/>
	<path d="M1546.663,714.017c3.299,4.668,5.813,10.297,8.182,15.627c2.055,4.561,2.755,15.935,9.28,15.635
		c7.232-0.312,5.492-11.799,16.221-29.041c4.016-6.53,11.508-13.648,14.576-15.247c3.13-1.633,5.649-3.7,5.036-7.315
		c-0.588-2.855-3.431-4.811-8.226-8.424c-3.763-2.835-5.419-3.731-10.624-12.986c-2.42-4.344-4.565-9.095-6.658-13.731
		c-1.601-3.426-3.469-15.971-10.288-15.971c-6.923,0-7.31,13.227-8.835,16.728c-7.085,16.075-9.538,18.909-21.674,28.798
		c-2.049,1.671-3.851,3.334-3.802,6.221C1529.958,700.625,1537.271,700.715,1546.663,714.017z M1537.026,693.952
		c13.466-10.986,16.551-14.139,24.415-31.981c1.083-2.482,1.752-7.787,3.045-11.49c1.736,3.44,2.638,8.054,4.088,11.261
		c12.705,28.08,15.635,25.23,24.196,32.825c-1.09,0.623-2.249,1.103-3.282,1.933c-11.019,8.879-16.675,17.473-22.328,31.257
		c-1.491,3.554-2.233,6.681-3.156,9.057c-1.144-3.144-1.394-6.141-3.162-10.115c-5.34-11.965-8.415-18.003-18.71-27.821
		c-1.498-1.457-4.6-3.374-5.48-4.592C1536.736,694.2,1536.857,694.088,1537.026,693.952z"/>
	<path d="M1683.258,772.031c4.417,6.314,7.746,13.801,10.951,20.889c2.711,6.062,3.66,20.378,11.216,20.023
		c8.429-0.379,6.678-15.427,20.532-37.88c5.487-8.849,15.497-18.328,19.688-20.534c3.703-1.945,6.78-4.268,6.108-8.533
		c-0.646-3.375-5.114-6.447-10.765-10.677c-6.619-4.957-8.157-6.804-13.998-17.261c-3.198-5.666-5.956-11.888-8.851-18.241
		c-2.182-4.651-4.53-20.435-12.631-20.435c-8.044,0-8.638,16.836-10.663,21.457c-9.647,21.891-13.489,25.891-29.064,38.461
		c-2.503,2.021-4.615,3.964-4.541,7.358C1661.409,754.198,1670.96,754.666,1683.258,772.031z M1668.922,745.344
		c17.126-13.828,21.601-18.145,32.035-41.819c1.518-3.464,2.845-13.609,4.809-17.047c2.511,2.917,4.064,11.202,7.443,18.619
		c17.857,39.252,21.974,31.42,31.793,42.03c-0.957,0.866-3.853,2.032-5.378,3.272c-26.807,21.624-31.229,49.707-34.358,55.032
		c-2.032-3.842-2.655-10.075-4.969-15.251c-3.399-7.508-6.8-15.161-11.58-21.993c-3.819-5.393-10.865-13.292-16.208-17.269
		c-1.26-0.939-4.607-3.431-4.594-4.409C1667.923,746.431,1668.122,745.997,1668.922,745.344z"/>
	<path d="M1720.399,1241.392c8.616-13.873,24.008-28.412,30.637-31.899c5.004-2.631,9.44-5.633,8.294-11.435
		c-0.747-3.955-8.381-9.373-15.628-14.816c-7.913-5.943-11.046-7.631-21.798-26.815c-4.975-8.839-9.287-18.503-13.542-27.861
		c-3.066-6.573-6.993-30.085-17.626-30.085c-10.422,0-11.587,24.642-14.663,31.628c-14.841,33.572-20.856,39.847-44.537,59.046
		c-3.376,2.738-6.493,5.296-6.401,9.881c0.15,7.636,10.307,12.578,14.33,16.446c19.168,18.416,24.471,28.388,35.288,52.446
		c4.766,10.615,5.975,30.274,15.503,30.274C1701.89,1298.203,1698.987,1275.89,1720.399,1241.392z M1699.852,1267.655
		c-4.023,9.752-6.195,21.24-9.544,23.769c-3.557-3.096-5.756-17.977-9.103-25.422c-5.097-11.353-10.262-22.921-17.44-33.12
		c-21.182-29.856-38.139-30.354-29.741-37.15c25.733-20.865,32.375-27.228,48.156-62.928c2.255-5.12,5.242-25.78,8.628-27.636
		c4.356,1.038,9.476,21.871,11.49,26.192c4.342,9.548,8.683,19.273,13.785,28.337c11.063,19.742,14.797,22.265,23.61,28.884
		c4.149,3.116,11.782,8.849,13.097,10.869c0.344,2.296-6.033,4.205-9.037,6.678
		C1721.573,1223.986,1710.785,1241.109,1699.852,1267.655z"/>
	<path d="M1710.99,1529.253c7.413,5.523,17.541,16.964,22.822,24.495c6.871,9.685,11.912,21.083,16.819,31.994
		c4.133,9.197,5.589,29.824,15.409,29.423c11.224-0.499,9.23-23.733,29.847-56.77c8.637-13.902,24.135-28.501,30.582-31.867
		c4.842-2.528,9.511-5.616,8.431-11.239c-0.658-4.146-7.792-9.168-15.444-14.919c-7.903-5.939-11.328-7.754-22.011-26.958
		c-4.874-8.709-9.105-18.142-13.561-27.818c-3.038-6.644-6.956-30.161-17.658-30.161c-10.4,0-11.568,24.65-14.612,31.631
		c-14.771,33.393-20.501,39.52-44.336,58.884c-3.153,2.563-6.717,5.235-6.614,10.078
		C1700.781,1521.646,1706.206,1525.687,1710.99,1529.253z M1709.542,1512.709c26.163-21.276,32.405-27.288,48.183-62.961
		c2.198-5.039,5.216-25.742,8.577-27.627c4.444,1.052,9.527,21.909,11.516,26.262c4.485,9.736,8.779,19.315,13.797,28.282
		c11.3,20.313,15.446,22.743,23.83,29.043c4.071,3.058,11.549,8.678,12.869,10.688c0.465,2.269-5.979,4.25-9.052,6.693
		c-22.477,18.189-32.966,35.052-43.892,61.569c-3.987,9.651-6.231,21.197-9.564,23.736c-3.712-3.182-5.443-17.282-9.085-25.388
		c-5.087-11.31-10.232-22.926-17.453-33.104C1718.27,1519.952,1701.12,1519.554,1709.542,1512.709z"/>
</g>
</svg>
