<?xml version='1.0' encoding='utf-8'?>
<svg xmlns="http://www.w3.org/2000/svg" enable-background="new 0 0 621.4 810" version="1.1" viewBox="0 0 621.4 810"> <path d="m220.3 494.5c-5.2 0.1-10.4 0.2-15-2.2-4.1-2.1-7-1.6-11 0.6-12.6 7-25.8 5.6-38.7 0.4-7.5-3-13.9-7.6-18.8-14.3-6.1-8.4-7.2-17.5-3.7-27.2 0.5-1.4 0.6-2.1-0.9-3.1-7.6-4.9-11.2-15-9-24.9 0.4-1.7 0.2-2.4-1.6-3.1-8.3-3.4-13-13-11.4-22.6 0.4-2.5 1.1-5 1.9-7.4 1.5-4.3 5-5.1 8.3-2.1 4.9 4.6 12.5 5.3 19 1.7 2.2-1.2 4-2.8 5.9-4.4 1.7-1.4 1.4-2.4-0.2-3.5-5.3-3.7-10.6-7.3-15.9-11.1-9.3-6.6-17.9-14-26-22.1-8.4-8.5-16.1-17.4-22.5-27.5-11.2-17.7-19.4-36.7-19.1-58.4 0.2-18.5 5.5-35.3 18.1-49.2 11.3-12.5 25.9-18.9 42.5-20.6 15.2-1.5 30 0.4 44.7 4.2 14 3.7 27.4 8.7 40.6 14.4 15.2 6.6 29.9 14.1 44.4 22.3 1.4 0.8 2.2 0.8 3.2-0.6 5.9-8 12.8-15.2 19.9-22.1 6.7-6.6 13.8-12.7 21.3-18.5 8.1-6.3 16.4-12.2 25.1-17.4 10-6.1 20.5-11.1 31.4-15.5 15.7-6.3 31.9-10.9 48.7-12.8 13.4-1.6 26.8-2.1 39.9 2.6 7.9 2.8 14.5 7.5 20.1 13.5 12.4 13.3 20.1 29.4 27.5 45.7 3.5 7.7 6.9 15.3 10.4 23 6 13.4 16.3 22.1 29.8 27.4 2.4 0.9 4.8 1.9 6.9 3.3 4.4 2.8 4.3 7.6 0.2 10.8-8.2 6.4-17.7 10.2-27.7 12.5-14.5 3.4-29.2 4-43.8 0.9-7.1-1.5-13.9-3.7-19.9-7.8-1.9-1.3-2.1-0.3-2.5 1.3-4.3 17.1-9.7 33.8-15.6 50.4-0.9 2.6-1.8 5.2-3 7.7-0.6 1.4-0.3 1.9 0.9 2.7 7.4 4.9 14.8 9.9 22.1 14.9 10.3 7 20.5 14.3 30.4 21.9 9.7 7.4 19.1 15.2 28.1 23.5 6.6 6.1 12.8 12.6 17.4 20.4 4.7 8 1.8 14.8-5.1 19.6-10.3 7.1-22 10.5-33.9 13.3-16 3.8-32.2 5.8-48.6 6.1h-1.1c-2.7-0.2-3.8 0.9-4.8 3.7-5.7 16.3-18 24.9-34.3 28.7-4.8 1.1-9.8 1-14.7 0.4-1.4-0.2-2.5 0-3.8 0.6-6.3 3-13.1 4.4-20.3 5.3 1.5 1.6 3.4 1.6 5 2.1 10.6 2.9 21.3 3.4 32.2 2.2 1.2-0.1 2.4-0.2 3.5-0.2 5.1-0.1 7.5 3.6 5.9 9.3-1.7 6.4-5.3 12-8.9 17.4-3.8 5.7-8.4 10.8-13.1 16 2.1 1.3 4.1 0.7 6.1 0.7 5.5 0.1 10.9 0 16.4 0.1 1.3 0 2-0.5 2.6-1.6 4.9-8.4 12.7-11.5 21.9-11.9 3.5-0.2 7 0.2 10.4 1.1 1.6 0.4 2.3-0.2 3-1.6 8.9-17.4 23-28.9 41.4-35.4 14.5-5.2 29.4-5.9 44.6-4.7 7.2 0.6 14.3 1.5 21.5 2 10.6 0.8 20.3-1.9 28.6-8.7 1.7-1.4 3.5-2.3 5.7-1.5 2.4 1 3.2 3.2 3.2 5.6 0.1 11.9-4.1 21.9-13.3 29.6-2.2 1.8-2.1 2.6 0.2 4 4.1 2.7 8 5.8 11.2 9.6 0.8 1 1.7 2.1 2.3 3.2 1.6 3 0.3 5.4-3.2 5.8-1.8 0.2-3.7-0.4-5.6 1.1 3 1 5.9 1.8 8.7 2.9 5.9 2.2 6.9 4.4 4.4 10.2-4.9 11.5-10.5 22.6-20.1 31-0.9 0.8-1.9 1.5-3.1 2.4 2.2 1.1 4.3 2.1 6.3 3.1 1.5 0.8 3 1.6 4.4 2.6 5 3.8 4.6 8.4-0.8 11.7-10.2 6.3-21.4 10.1-33.1 12.2-19.7 3.6-39.3 3.3-58.5-3.2-12.6-4.3-24-10.8-33.1-20.7-1.9-2.1-3.6-4.4-5.1-6.8-1.1-1.7-1.9-2.2-4-1.5-10.3 3.4-20.4 3.8-30.1-1.9-3.6-2.1-6.5-4.9-8.4-8.7-0.5-1-0.9-1.9-2.4-1.9-16 0.7-32 0.6-48 0.4-2.3 0-2.7 0.2-1.4 2.5 4.4 7.7 7.5 15.9 8.1 24.9 0.9 14.2-7.5 21.1-21.3 17.4-4.7-1.3-9-3.5-13.1-6-0.9-0.5-1.7-1.1-2.6 0.3-3.3 5.2-8.4 5.8-13.8 5-8.5-1.2-15.5-5.6-22-11-1.9-1.5-3.8-3.1-5.3-5.2-0.7-1-1.7-1.1-3-0.9-16.3 2.2-29.7-3-40.5-15.3-4.1-4.7-6.4-10.2-7.8-16.2-0.3-1.5-0.8-1.9-2.2-1.6-7.9 1.4-15.2-0.5-22.2-4.1-2.9-1.5-6.3-1.1-9.5-1.5-20.9-3-41.6-7.4-62-12.5-25.3-6.4-50.5-13.2-76.2-17.8-4.7-0.8-9.3-1.8-13.6-3.8-8.1-3.7-11.5-10.5-11-19.1 0.6-8.8 3.8-16.6 10.7-22.5 5.1-4.4 11.1-5.4 17.6-3.8 8.9 2.2 17.1 6.2 25.4 9.9 15.4 6.7 31 12.8 46.9 18.1 11.9 4 24 7.5 36 11.3 0.3 0.1 0.6 0.1 0.8 0.2 3.3 1 6.2 1.5 9.1-1.7 2.4-2.7 6.2-3.5 9.6-4.7 1.2-0.4 1.6-0.8 1.2-2.2-1-4 0.1-6.5 3.8-8.4 6.8-3.5 13.6-6.9 20.4-10.4 1-0.7 2.2-1.6 3.4-2.3zm50.8-262.3c5.2 0.1 10-0.3 14.8 0.1 0.6 0 1.3-0.3 1.8-0.6 2.6-1.4 5.4-1.8 8.3-1.3 18.5 3.3 35.4 10.7 51.4 20.2 2.3 1.4 4 3.5 4.7 6.2 0.2 1 0.7 1.4 1.5 1.8 11.7 5.4 22.9 11.9 33.4 19.5 12.5 9.1 24 19.3 32.8 32.1 0.4 0.5 0.6 1.5 1.8 1.3 0.7-2.3 1.2-4.8 2.3-6.9 2.2-4.4 1.6-8.5-0.1-13-6.7-18-18.2-32.3-33-44.2-4-3.3-8.2-6.4-12.3-9.6 22 10.9 40 26 50.9 49.1 6.8-24.2 14.3-47.8 9.6-73.1 7.2 14.1 8.9 28.9 6.8 45.1 6.9-7 9.8-15.4 13.5-24 0.4 3.3-0.1 5.9-0.6 8.5-1.4 8.4-4.2 16.2-11.1 21.8-1.8 1.4-1.2 2 0.1 3.1 5.4 4.4 11.7 6.6 18.3 8 15.9 3.3 31.7 2 47.2-2.6 3.6-1.1 7.3-2.2 11-5-2.4-0.1-3.6-1.4-5.1-2.1-8.9-3.9-16.2-9.8-22.2-17.4-6.8-8.7-10.9-18.9-15.3-28.8-7.5-17.2-15.8-33.9-27.8-48.5-4.6-5.5-9.8-10.2-17-12.3-6.6-1.9-13.3-2.2-20-2-25 0.8-48.6 7.7-71.2 18.1-20.1 9.3-38.4 21.4-54.8 36.4-0.6 0.5-1.5 0.8-1.3 2.1 19.6-4.3 38.3-1.3 56.8 6.9-1.5 0.6-2.3 0.1-3.1-0.1-17.8-3.8-35.7-5-53.5-0.2-7.2 1.8-13.8 4.6-18.6 11.4zm-105.6 145.5c-0.3 0.1-0.6 0.1-0.9 0.2 0 4.6-0.1 9.3 0 13.9 0.2 8.8-0.4 17.3-4.8 25.4-3.1 5.7-3.6 12.2-2.3 18.6 2.6 13.4 11 22.4 22.5 28.9 16.6 9.3 34.6 13.8 53.3 15.8 20 2.2 39.9 1.7 59.6-3.5 6.7-1.8 13.4-3.5 19.7-6.5 1.3-0.6 2.7-1.1 2.3-3.3-0.9-5.6 0.1-11 2.6-16 5.2-10.4 13.1-16.8 25.5-15.9 1.5 0.1 1.8-0.5 2.1-1.6 0.3-1.2 0.5-2.4 0.7-3.6 1-6.7-0.1-13.4 0.7-20.1 0.3-2.5-0.2-3.9-2.2-5.7-7.2-6.4-11.3-14.8-11.7-24.2-0.3-5.7-2.6-8-7.5-10.3-14.7-6.9-25.5-17.9-32-33.4-2.5 2.9-4.9 5.7-7.2 8.3 0 0 0.8 0.2 1.6 0.5 2.9 1.2 5.3 3 6.5 6.1 0.4 1 0.7 2.1-0.4 2.8-1 0.7-1.5-0.5-2.1-1-2-1.8-4-3.4-7-3.4-2.7-0.1-4.7 1.3-6.8 2.5-0.7 0.4-1.8 1.5-2.3 0.1-0.7-2-1.6-0.8-2.3-0.4-7.6 4.7-16 6.9-24.8 7.6-7.4 0.6-14.6-0.5-21.1-4.2-2.1-1.2-4.1-2.6-5.1-5.4 3.7 0.8 7.1 1.5 10.4 2.2-10.3-9.4-12.9-21.1-10.6-34.9-1.3 1.1-2.1 1.8-2.8 2.5-5.7 5.2-11.9 9.7-18.5 13.7-8.5 5.1-17.4 9.3-27.1 11.6-1.4 0.3-2.8 0.5-3.4 2.5-1.9 7.2-3.5 14.6-4.3 22-0.1 0.6-0.4 1.6 0.4 1.7 2.1 0.3 4.5 0.9 6.4 0.4 1.4-0.4 3.3-2 2-4.4-0.9-1.7-1.4-3.8 0.4-4.9 1.5-1 2.8 0.7 3.7 1.8 1.3 1.5 2.3 1.3 3.9 0.5 6.4-3.3 12.2-2.2 17.6 2.4 2.8 2.4 4.8 5.4 6.4 8.6 4.4 9.1 4.7 18.8 3.7 28.6-0.7 6.6-3 12.5-7.1 17.7-6.4 8.2-16.7 8.4-23.6 0.6-2.1-2.4-3.9-5-4.8-8-3.7-13.6-3.1-26.7 4.8-38.8 0.3-0.5 1-0.9 0.6-1.8-2.1 1.8-3.4 4.1-4.5 6.5-1.2 2.5-3 2.8-5.4 2-2.3-1-3.5-2.9-4.8-4.7zm173.6 62.5-2.7 1.5c-8.5 4.8-13.6 15.6-12.5 25.5 1.2 10.9 8.1 18.5 18.6 21.2 11.9 3.1 23.2 1.4 33.7-4.7 10.2-5.9 16.2-14.9 17.9-26.6 0.6-4.1 0.3-8.2-0.1-12.9 7.6 13.8 6.5 24.6-3.8 40.5 0.3 0.1 0.6 0.2 0.8 0.1 25.1-6.2 43.2-35.3 25.4-62.2-6.1-9.2-14.6-15.6-23.5-21.7-4.4-3.1-8.4-6.6-11.2-11.8 4.5 1.5 8.1 4 12 5.9 2.3-8.8 0-25.4-4.5-33.1-0.5-0.9-1.3-1.5-2.2-2.2-13.6-10-27.7-19.3-41.9-28.5-22.2-14.5-44.7-28.5-69.1-39.1-14.3-6.2-29.2-10.9-45-11.3-18.2-0.5-35.2 4.1-50.3 14.4-18.3 12.4-32.4 27.9-35.6 50.8-1.5 10.6 0.2 20.8 6.5 29.9 1.2 1.7 2.6 3.4 5.1 4.4v-6.3c-0.1-10.1 1.2-20 4.5-29.6 1-2.8 3.1-5.1 3.4-8.1 1.6-15.7 9.3-27.8 21.3-37.5 2.2-1.7 4.5-3.4 8.1-4.1-3.5 3.5-6.3 6.9-9 10.3-6.7 8.6-11.5 18-12.9 29-0.5 3.9-0.4 4.1 3.2 2.8 8.5-3.1 16.3-7.7 23.9-12.6 12-7.8 22.4-17.5 33.1-27 3.2-2.9 6.5-5.7 10.7-7.2-2.1 2.5-4 4.9-5.8 7.6-8.4 12.9-11.2 26.7-5.1 41.1 4.5 10.6 11.5 14.5 21.8 12 18.4-4.6 32.9-14.3 41.8-31.4 0.1 0.4 0.3 1.1 0.4 1.7 3.7 20 15.2 33.9 33.2 42.8 4.2 2.1 3.7 2.5 4.7-2.5 1.1-5.3 2.3-10.6 4.1-15.8 0.3 0.5 0.3 1.1 0.3 1.6-0.2 9.6-0.3 19.2 1.3 28.7 1.3 7.9 3.6 15.3 9.2 21.4 0.9 1 1.6 1.7 3.2 0.5 8.2-6.4 20.2-5.7 27.9 1.2 9.2 8.3 11.5 23.9 5.3 35.7-7 13.3-25.6 20.4-37.9 12.4-0.5-0.3-1.6-1.4-1.9 0.2-0.9 5.9 1.3 11.5 7.9 12.1 5.3 0.5 9.6-1.6 13.8-4.5 3.9-2.6 7-6 10-9.6-1.9 10.5-6.9 18.2-17.6 21.6-12.2 3.8-23.6-5.1-22.7-17.8 0.1-3.1 1.3-5.8 2.2-8.8zm233.7 61.7c-10.8 4.8-21.6 5.2-32.5 3.8-10.1-1.3-20.1-2.6-30.3-2.2-17.2 0.8-32.9 5.5-46.1 16.9-6 5.1-10.7 11.2-14.3 18.3-1.4 2.8 1.4 3.4 2.3 4.8 0.8 1.2 1.7-0.6 2.3-1.2 2.4-2.3 5-4.4 7.8-6.2 5-3.2 10.5-5.2 16.2-6.6-0.5 0.7-1.1 1.1-1.7 1.6-6.6 4.7-12.7 10-18 16.2-0.6 0.7-1.9 1.4-1.4 2.6 0.4 1.2 1.8 1.2 2.9 1.3 8.1 1.2 16.3 2.6 24.5 3-6.4 1.3-12.8 2.1-19.4 2.4-5.9 0.3-5.9 0.2-5.2 6.1 0.1 0.8 0.2 1.4 1.2 1.5 2.9 0.3 5.8 0.7 8.8 1.1 5.8 0.8 11.5 1.5 17.3 2.3-5.1 0.6-10.1 1.3-15.1 1.3 13.4 5.3 27.3 8.3 41.4 10.3-0.1 0.6-0.6 0.6-0.9 0.6-8 0-15.9-0.3-23.8-1.6-9-1.4-17.7-4.2-26.3-7.1-0.9-0.3-2.3-1.2-2.9-0.2-0.8 1.2 0.8 1.9 1.4 2.8 0.3 0.4 0.7 0.7 1 1 6.7 6 14.2 10.7 22.3 14.7 3.9 2 8 3.8 11.9 5.6-13.8-2.3-26.7-6.6-37.5-15.7-2.5-2.1-2.9-1.9-4.2 0.7-0.7 1.4 0.3 2.2 0.9 3 3.9 5.5 8.8 10 14.3 13.7 12.3 8.4 26.2 12.4 40.8 14 16.8 1.9 33.3-0.3 49.3-5.6 3-1 6.3-1.6 9.2-3.7-9.1-5.9-18.9-5.8-28.9-4.9 11.7-5.2 22.4-11.6 30.3-21.9-15.9 8.9-32.6 9.1-50.1 5.7 0.9-1 1.8-0.7 2.6-0.8 10.6-1 21.1-2.7 31.2-6.3 9.3-3.4 17.7-8.3 24.3-15.8 1.1-1.2 1.6-2.1-0.6-2.7-2-0.5-3.9-1.4-5.8-2.3-13.9-6.4-28.3-10.8-43.7-11.6-7.4-0.4-14.7 0.7-22.1 1.1 9.7-2.3 19.6-3.1 29.6-3.1 9.9-0.1 19.8 0.6 29.9 4.2-1.8-1.8-3.4-2.7-5-3.5-7.7-4.4-16.2-5.9-24.9-6.4-14.5-0.8-28.8 1-43.1 3.6 25.4-10.3 51.3-11.1 77.8-4.4-19.8-15.5-42.5-16.5-66.1-13.6 13.6-3.9 27.4-4.2 41.2-2.2 11.7 1.8 23.8-6.7 27.2-14.6zm-184.3 13.5c-10.2 0.7-19.6 0.1-28.9-2.8-12.8-4.1-24.6-10.4-36.4-16.7-6.9-3.6-13.4-8-20.7-10.8-4.8-1.8-9.3-1.4-13.4 1.7-1.8 1.4-3.6 2.8-5.2 4.4-4.7 4.4-9.3 8.9-14 13.4-8.8 8.4-18.9 14.9-29.9 20.1-1.2 0.5-2.7 0.9-0.8 2.6 7.3 6.6 13.1 14.5 19.7 21.7 4 4.4 3 4.5 7.3 0.7 11.1-9.8 21.1-20.8 29.7-32.9 2.4-3.4 4.9-6.8 7.9-10.8-1 7-3.2 12.7-5.9 18.7 3.2-1.6 5.8-3.3 9.5-3.6-7.2 6.2-13.5 12.4-19.3 19.8 9-2.3 17.7-3.2 26.6-1.8-3.2 1-6.5 1.6-9.7 2.4-9.5 2.3-18.6 5.3-26.5 11.3-4.2 3.2-6.8 7.4-6.6 12.9 0.3 7.7 4.4 13.2 10.5 17.3 8.8 5.8 18.5 6.2 28.4 3.7 12.7-3.2 23.3-10.4 33.1-18.8 11.7-10.1 21.8-21.7 31.3-33.8 4.5-6 9.1-11.9 13.3-18.7zm-333 7.1c2.8 0.6 5.4 1.2 8 1.7 12.4 2.4 24.8 4.6 37 7.7 24.9 6.3 49.6 13.3 74.9 17.8 8 1.4 16 3 24 4.5 1.3 0.2 2.5 0.8 2.4-1.6-0.1-3.1 1.2-5.9 3.1-8.4 0.6-0.8 1.7-1.5 1.7-2.8-26.4-4.1-51.7-11.7-76.9-20.1-20.3-6.8-39.9-15.6-59.8-23.7-1.6-0.7-3.3-1.2-5-1.9 0 2.5 1.2 3.6 3 4.3 6.6 2.8 13.3 5.7 19.9 8.5 5 2.2 9.9 4.4 14.8 6.5l-0.3 0.6c-12.3-4.3-24.6-8.6-37-13-0.2 1-0.4 2-0.7 3-0.8 2.7 0 4.1 2.9 5 6.3 2.1 12.5 4.7 18.7 7.2-0.1 0.2-0.1 0.5-0.2 0.7-6.2-1.7-12.4-3.2-18.5-5-4.9-1.4-4.8-1.6-7.2 2.9 0 0.1-0.1 0.2-0.2 0.2-0.7 1.1-0.4 1.5 0.9 1.9 3.6 1 7.2 2.2 10.8 3.4l13.8 4.5c-8.9-1-17.6-2.7-26.3-4.8-1-0.2-2.4-0.6-3.8 0.9zm363-200.8c-0.2-0.4-0.3-0.9-0.6-1.4-1.2-2-2.5-4.1-3.8-6-9.6-13.9-22.3-24.6-36-34.1-8-5.5-16.4-10.4-25.2-14.4-0.9-0.4-2.2-1.6-2.9 0.1-0.8 1.9-2.2 3.6-2.4 5.7-0.1 1.5 1.8 1.3 2.6 2.3 1.1 1.4 0.9 2.6 0.1 3.9-0.6 1-1.4 1.4-2.3 0.7-2.6-2-3.8-0.4-4.8 1.9-0.5 1.1-1 2.3-1.8 3.2-1.8 2.2-0.9 3.4 1.2 4.6 6.4 3.7 12.8 7.5 19.1 11.4 11.7 7.2 23.4 14.6 34.6 22.5 5.3 3.7 10.7 7.3 16 10.9 0.6 0.4 1.7 1.7 2.3 0.2 1.4-3.8 2.5-7.6 3.9-11.5zm-279.8 90.9c-1.2 1.4-2.4 2.7-3.5 4.1-5.1 6.5-5.4 13.5-1.6 20.8 2.3 4.4 5.9 7.6 10.1 10.2 1.5 0.9 3.4 1.5 4.5 3.2-1.1 0.7-2.1 0.5-2.9 0.3-3-0.7-3.8 0.9-4.3 3.5-2 10.7 2.8 21.5 12.3 27.7 10.6 7 22.2 7.8 34.1 4.7 3.4-0.9 6.8-2.2 9.1-5.3-17.3-3.8-29.7-10.6-39.2-21.6-13.6-15.8-15.2-36.1-4.1-53.7 1-1.5 2.5-3 2.6-4.7 0.4-4.4 0.1-8.9 0.1-13.7-18.2 17.2-23.8 18.7-38.1 10.7 0.3 5.2 2.1 9.6 6 13.1 4.9 4 9.8 2.4 14.9 0.7zm349.8-12.3c0.1-0.1 0.2-0.3 0.3-0.4-0.7-0.6-1.4-1.2-2.2-1.8-9.4-8-19.5-15.1-29.4-22.4-15-11-30.5-21.2-46-31.5-12.9-8.6-25.7-17.4-38.7-25.8-15.4-9.9-31-19.4-46.7-28.7-17.7-10.4-35-21.5-52.5-32.3-24-14.8-48.7-28.3-74.8-39.1-1.8-0.8-3.5-2-6.4-2.1 2.2 1.1 3.7 1.9 5.3 2.6 20.7 9.6 40.2 21.3 59.3 33.8 16.9 11.1 33.7 22.3 50.8 33.1 21.6 13.6 43.6 26.7 65.1 40.4 31.7 20.2 63 41 94.9 60.8 7 4.5 14 9 21 13.4zm-114.5 12.7c-7.9-3.2-14.7-0.6-17.5 6.7-0.5 1.3-0.9 2.3 1.2 2.4 1.7 0 3.3 0.9 4.7 1.8 1 0.6 2.5 1.3 2.1 2.7-0.3 1.1-1.9 0.6-2.8 0.6-4.4 0-7.5 1.5-8.8 6-0.5 1.8-1.4 3.5-2.2 5.2-0.5 1.1-0.3 1.8 0.6 2.4 3.8 2.9 8.2 4.1 12.8 3.2 11.4-2.1 19-11.9 18.4-23.6-0.5-8.3-3.8-15.1-11.7-18.7-4.6-2.1-9.5-2.3-13.8 0.9-3.9 2.8-3.9 6.9-3.5 11.4 7.6-7.7 17.1-8.2 20.5-1zm-78.7-178.5c-3.3 0-5.8 0.9-7.7 3-1.5 1.6-2.9 3.3-4.2 5-1.6 2.2-4.6 4.7-4.3 6.7 0.3 2.4 4.4 3 6.6 4.7 1.2 1 2 0.6 2.8-0.5 1.7-2.3 3.4-4.5 5-6.9 1.4-2.1 3.5-2.6 5.8-2.2 10.7 2 20.6 6.5 30.2 11.6 2.1 1.1 2.5 2.7 1.4 5-2.3 4.8-5 9.4-7.7 14-0.7 1.2-1 1.8 0.6 2.6 2.6 1.3 5.1 2.9 7.6 4.4 1.1 0.7 1.7 0.6 2.4-0.6 4.1-6.9 7.8-13.9 11-21.2 1.1-2.5 0.5-4.7-1.7-6.3-1.1-0.9-2.3-1.6-3.6-2.3-8.7-4.7-17.6-8.9-27-12.1-5.7-2.3-11.6-4-17.2-4.9zm-78.1 325.7c0.5 0.3 0.7 0.5 0.9 0.6 0.4 0.2 0.9 0.3 1.3 0.4 10.9 2 19.8-2.5 28.2-8.6 0.9-0.7 0.8-1.3 0.2-2.1-4.2-5.3-8.2-10.7-12.7-15.7-0.7-0.8-1.3-1.3-2.4-0.6-5.5 3.3-11.6 5.7-16.9 9.3-2.8 1.9-5.1 4.2-6.2 7.5-1 3 0.1 5 3.2 5.5 2.4 0.4 4.9 0.3 7.3-0.3 1.2-0.3 2.3-1.1 3.9-0.6-2 2.1-4.3 3.3-6.8 4.6zm-8.9-47.9c6.3 5 11.2 10.6 15.6 16.7 0.4 0.5 0.6 1.7 1.6 1 1-0.6 0.2-1.3-0.1-2-1.7-4.3-1.1-6.4 2.8-8.9 2-1.3 4.1-2.2 6.2-3.3 4.2-2 8.3-4.1 12.2-6.6 0.9-0.6 1.6-0.9 0.6-2.1-4.1-4.8-6.3-10.5-7.5-17.2-9.4 9.4-19.7 16.7-31.4 22.4zm153.8 53.5c1.1 0.7 2 0.5 3 0.5 11.8 0 23.5 0.1 35.3 0.1 6 0 12-0.1 17.9 0.1 2 0.1 2.6-1 2.6-2.5 0.1-1.7-1.5-1.4-2.5-1.5-2-0.1-4 0-6.1 0 1.9-1.5 4.1-1 6.2-1.5 0.9-0.2 2.3 0.4 2.1-1.4-0.1-1.4-0.3-2.7-2.1-2.9h-1.4c-14.3 0-28.6 0.1-42.9-0.1-3.3-0.1-4.5 1.8-6.1 4.4h18.3c-6.1 1.4-12.1 2-18.2 1.9-2.7-0.1-4.6 0.6-6.1 2.9zm-63.1-316c-0.8-0.2-1.9 0.5-2.7 1.6-1 1.5-1.9 3.1-3.1 4.4-1.3 1.4-0.8 2.2 0.5 3 7.5 4.5 15.1 9.1 22.6 13.6 1 0.6 1.5 0.5 2-0.5 2-3.7 3.9-7.3 5.9-11 0.7-1.2 0.6-2-0.9-2.6-2-0.8-3.9-2-5.9-2.8-5.7-2.2-11.3-4.9-18.4-5.7zm-22.9 342.5c-0.4-0.5-0.5-0.9-0.7-1.1-6.5-5-11-11.4-13.3-19.3-0.3-1-1-1.4-2.1-1.4-4.9-0.2-9.8-0.4-14.7-0.8-2.5-0.2-2.6 0.7-1.9 2.7 3.5 10 10.6 16.1 20.6 19 3.8 1.1 7.8 1.8 12.1 0.9zm140.9-16c4 5.6 12.1 5.6 16 0.4 6.2-8.4 4.3-24.7-3.6-31.4-4.2-3.6-11.4-2.1-13.6 2.9 7.6-0.3 10 1.3 12 8.3 0.7 2.5 1.1 5.1 0.9 7.8-0.5 9.1-2.5 11.2-11.7 12zm-91.4 25.3c6.4 4.5 12.2 8.5 19.3 10.2 3.7 0.8 5.7-0.7 6-4.4 0.5-7.4-1.5-14.2-4.7-21.2-4.8 7.9-11.5 12.8-20.6 15.4zm-263.1-99.9c-0.1-3.7-0.4-6.9-3.9-8.4-3.1-1.3-5.4 0.6-7.6 2.5-4.9 4.3-7 9.8-7.2 16.2-0.1 3.7 1.8 7.2 4.4 8 3.4 1 6.2-0.5 8.3-3.1 3.7-4.5 5.7-9.8 6-15.2zm371.7 42.1c8.1 12.1 9.8 24.2 1.8 36.8 5.4-0.4 9.2-2.9 11.4-7.8 3.6-7.9 1.8-19.2-4-25.6-2.4-2.6-5.3-3.8-9.2-3.4zm-245.7-15.5c8.8 2.3 17 3.7 25.2 4.7 0.5 0.1 1.2 0.2 1.5-0.4s-0.2-1.1-0.5-1.5c-2.5-4-5.8-7.5-9.1-10.8-0.6-0.6-1.1-0.9-2-0.4-4.8 2.7-9.6 5.4-15.1 8.4zm105.8 70.9c-0.1 0.2-0.2 0.5-0.2 0.7 5.3 4.6 11 8.7 18.1 10.2 0.7 0.2 1.5 0.2 2.3 0 0.7-0.1 1.5-0.5 1.8-1.2 0.4-0.9-0.6-1.3-1.1-1.8-2.2-2.2-4.4-4.5-6.6-6.7-0.6-0.7-1.1-1.3-2.3-1.2-4.1 0.1-8 0-12 0zm24.5-3.5c2 2.7 4.2 3.8 7.4 2.7 7.1-2.4 12.8-6.6 16.9-12.8 0.6-0.9 1.5-1.8 0.7-3.2-4.1 2.4-7.8 5.4-12 7.6-4.2 2.1-8.5 4-13 5.7zm-54-355.1c0.8 1.6 2.1 2 3.2 2.7 1.8 1.1 3.8 2.8 5.7 2.8 1.6 0 2.2-2.8 3.6-4.1l1.2-1.2c0.8-1 0.6-1.5-0.7-1.5-4.3-0.2-8.6-0.1-13 1.3zm-3.6 258.9c-4.8-1-8.3-3.6-12.4-5.8 0.9 3.9 2.2 7.1 4 10.1 0.5 0.9 1 1 1.8 0.5 2.2-1.4 4.4-2.7 6.6-4.8zm-67-98.1c0.3 1.9 1 3.6 3.2 3.6s3.2-1.5 3.2-3.6-1.1-3.6-3.2-3.7c-2.2 0-3 1.7-3.2 3.7zm67.9 90c4.9 3.2 5.7 3.1 8.6-0.8-2.8 0.2-5.4 0.4-8.6 0.8zm-13.5 68.8c2.4-0.3 4.4 0.8 6.5 0.2-2-3.5-3.1-4.8-6.5-0.2z"/> <path d="m306.3 377.8c6.1 8.2 7.7 17 7 26.3-0.5 7-2.5 13.6-6.7 19.4-8.8 11.9-24 11.5-32.2-0.8-5.6-8.4-6.4-17.7-5.3-27.3 0.9-7.5 3.1-14.5 7.6-20.8 7.5-10.4 21.9-13.5 33.3-3.4 1.6 1.4 2.7 2 4.4 0.3 1-0.9 2.2-2.7 3.8-1.2 1.5 1.5 0.7 3.3 0 5-0.4 0.8-2.1 1.2-1.1 2.5 1 1.4 1.4 3.4 3.5 3.9 1.8 0.4 3.5 0.8 5.3 1.1 2.8 0.4 3.1 0.8 1.9 3.4-1.3 2.9-3.6 4.7-6.5 5.6-3.7 1.2-6.3 0.1-8-3.4-1.4-2.8-2.4-5.8-4.4-8.3-0.5-0.8-1-1.6-2.6-2.3zm-5.4 25.6c-0.2-1.9-1-3.5-3.1-3.7-2.2-0.1-3.2 1.5-3.4 3.4-0.2 2.1 1 3.5 3.1 3.7 2.2 0.3 3.1-1.3 3.4-3.4z"/> <path d="m254.4 426.7c-0.4 7.2-1.6 13.3-6 18.3-6.6 7.6-15.9 7.4-22.2-0.5-4.9-6-6.7-13-6.8-20.6 0-0.6 0.3-1.3 0.4-1.9 0.2-1.1 0.5-2.1 1.6-2.5 1.2-0.4 1.9 0.7 2.5 1.5 5 7.7 20 7.7 25.9 0.4 1.7-2.1 3.3-1.7 4 0.9 0.4 1.6 0.5 3.5 0.6 4.4zm-11.3 5.6c-1.9 0-3.8 0.3-5.6 1-3.6 1.3-5.9 3.7-6.4 7.6-0.4 3.5 0.7 4.9 4 5.7 5 1.1 9.6-1.6 12.7-7.5 2.6-4.8 2.4-6-4.2-6.8h-0.5z"/> <path d="m199.3 342.8c4.5 0 8.5 3 9.5 6.7 0.2 0.9 0.3 1.7-0.5 2.3-0.9 0.8-1.6 0.1-2.2-0.4-0.5-0.4-1-0.8-1.5-1.3-3.6-2.9-6.1-2.9-10-0.4-0.9 0.6-1.8 1.7-3 0.7s-0.2-2.1 0.2-3.1c1.6-3.4 4.7-4.3 7.5-4.5z"/> <path d="m468.2 521.8c10-9.1 21.9-13.2 35.3-13.8-12 4-23.7 8.7-35.3 13.8z"/> <path d="m158.1 541.3c-16.3-1.8-31.8-6.2-46.9-12.3 16 2.8 31.6 7 46.9 12.3z"/> <path d="m186.7 549.2c-7.7-0.4-15.1-2.3-22.4-4.7 7.7 0.6 15.1 2.3 22.4 4.7z"/> <path d="m53.3 496.7c2.4 0.5 3.5 1.8 3.9 3.5 0.9 3.2-1.4 8.9-4.1 10.6-2.2 1.4-4.1 0.6-4.4-2.1-0.3-2.1 0.5-4 1.6-6.3 0.8 1.6 0 2.9 0.1 4.1 0 0.5-0.1 1.2 0.5 1.5s1-0.2 1.5-0.5c3.1-2.7 3.6-7.1 0.9-10.8z"/> </svg>